<svg xmlns="http://www.w3.org/2000/svg" width="995.56pt" height="893.75pt" viewBox="0 0 995.56 893.75"><g data-name="Capa 1"><clipPath id="a"><path transform="matrix(1 0 0 -1 0 893.75)" d="M0 893.75h995.56V0H0z"/></clipPath><g clip-path="url(#a)"><path d="M104.387 453.63h2.335c2.918 16.927 4.377 34.437 5.836 51.948.876 10.506-1.46 13.425-2.626 20.43-1.167-24.224-2.043-48.447-5.545-72.378m-14.592-56.909c1.459-1.459 4.378-1.459 4.669 1.168 1.459 6.128 2.919 12.257 4.086 18.385 1.459.292 3.21.292 4.669.584.293-1.459 1.168-3.21 2.627-4.378 8.755-5.545 18.386 2.335 25.099 7.88 9.339 1.167 18.969 2.335 28.308 3.502-22.472-15.467-45.82-28.016-70.918-33.853.293 1.46.584 3.21.876 4.67.292.583.292 1.458.584 2.042m117.028 48.738c-.583 5.544-6.128 10.506-10.798 9.922-13.717-.876-27.433-2.043-41.15-3.21 7.88 11.673 14.885 23.64 21.013 36.188 7.88 16.635 18.094 35.021 15.759 53.991-.875 6.421-7.587 7.88-12.55 5.837-2.625.292-5.252.292-7.878-.875-.292 0-.584 0-.584-.293-.875.876-2.627 1.46-3.794.876-5.253-13.717-11.09-27.433-16.927-40.858-3.21-7.588-11.09-26.849-16.635-37.648-1.46-3.209-2.918-6.128-4.67-9.047v-.29a122.735 122.735 0 0 1-4.96-8.173c-7.588-.292-15.468-.876-23.056-1.167 1.459 13.132 2.626 26.557 3.21 39.982.876 14.3 2.335 29.184 1.459 43.484.292 1.752.292 3.502.292 4.962-1.751 3.502-3.794 6.42-6.712 8.755-3.794 3.21-9.631 3.502-13.133-.583-.875-1.46-1.46-2.919-1.751-4.67-2.335.584-5.253-1.459-5.253-4.669-1.46-6.129-.876-13.134-1.46-19.554l-2.626-19.262-7.004-41.149c-.584-3.503-1.168-6.713-1.751-10.215h-1.751c0-.875-.584-1.75-1.752-2.043-3.21-.875-6.42-2.043-9.63-3.21 2.335-.292 4.378-.583 6.712-.876-2.918-1.167-6.128-2.918-8.755-4.669-8.171-5.253-4.67-19.845 4.086-19.845 1.75-.292 3.502-.292 5.253-.292-2.043-9.923-4.086-20.137-6.421-30.06 2.335-1.75 4.378-3.793 6.129-6.42-5.545-4.669-8.755-12.84-5.545-19.554 5.545-10.798 23.056-7.004 32.686-5.253 1.168 0 2.043.584 2.627 1.167 2.043.876 4.086 1.46 6.129 2.336.29 0 .583.291.875.291 32.102 10.215 60.995 30.06 89.595 49.322 2.335 1.751 3.502 4.085 4.086 6.42 4.086 2.92 8.172 6.13 11.966 9.047 4.669 3.502 6.42 8.755 5.545 15.176l-.876 6.13M281.82 395.553c-.875-2.043-1.751-4.377-2.918-6.42-.292-.291-.876-.584-1.168-.584h-1.46c-1.75 3.21-2.918 7.005-3.793 9.923-3.21 10.507-5.837 21.305-7.296 32.394-2.627 21.597-2.334 44.068 1.168 65.664.583 3.21.29 6.13-1.168 8.757-8.171-37.94-7.588-80.841 9.047-115.861-1.751 1.166-2.92 3.502-4.086 5.543-5.545 10.798-9.338 22.764-11.673 34.73-.292.584-.292.875-.584 1.167-1.167 6.714-1.751 13.425-2.335 20.137-.875 19.846 1.46 39.692 5.837 58.66-.876.584-2.043 1.168-3.21 1.46-3.502.875-7.588 0-10.506-2.043.29 0 .29 0 .29.293 4.67 9.63 14.886 21.595 27.434 17.801 3.503-1.168 6.129-3.793 7.88-7.004 1.752-3.21 3.21-6.42 4.086-9.922 4.962-13.718 6.712-28.309 6.712-42.61-1.167-14.591-2.043-29.476-4.377-43.775-.876-4.379-1.46-8.756-2.335-12.841-1.751-5.255-3.502-10.507-5.545-15.469m30.35 131.913c-3.21 4.377-6.711 8.463-10.797 11.965-5.544 5.545-12.257 9.34-20.428 10.506a53.064 53.064 0 0 1-9.632 0c-9.63 1.752-20.428-1.75-28.308-8.17-13.716-11.675-19.553-29.185-22.472-46.404-5.836-37.356-.583-75.879 18.97-108.565.292 0 .292-.292.584-.584 2.918-7.587 6.712-14.591 11.673-21.012.292-.584.876-.292.584.291-1.751 2.92-3.502 5.839-4.67 8.757-1.458 3.21-2.626 6.42-3.794 9.63.876-.291 1.752 0 2.336 0 4.96-10.798 11.965-19.846 21.304-21.887 3.793-1.46 7.588-2.627 11.382-2.337 4.086-.875 9.047-.875 12.549 1.168 3.794 2.335 6.712 7.296 8.755 11.09 2.335-.875 5.253-.291 6.712 2.336 4.086 7.88 8.172 16.05 11.09 24.514 2.627 8.755 4.378 17.802 5.837 26.558 2.919 18.094 4.086 36.188 2.043 54.575-1.46 16.05-4.085 33.853-13.717 47.57M460.13 473.183c-8.756-11.674-18.678-22.763-29.768-32.394-11.09-10.215-22.764-18.678-36.481-26.558-1.75-.875-3.502-1.75-5.544-2.918 4.96 24.223 9.339 48.737 13.424 72.96 1.459 8.755 3.21 17.511 4.67 26.266 9.047 3.21 18.386 6.13 28.017 8.172 7.587 1.75 11.382 2.334 18.969 2.626 7.005 0 11.382 0 17.51-1.75 4.962-1.169 9.048-2.628 12.258-5.546-.583-3.794-2.335-7.004-4.086-10.506-1.75-3.502-3.502-7.297-5.545-10.507-4.377-6.712-8.755-13.424-13.424-19.845m-112.943-70.626c4.96 20.138 9.047 40.275 14.3 60.412 2.627 10.506 5.254 20.721 7.88 31.227 1.75.875 3.502 2.042 5.253 2.918-1.751-4.96-3.502-9.922-4.67-14.884-3.793-13.716-16.343-65.664-20.136-78.213-.292-1.168-3.503-5.545-2.627-1.46m126.367 145.63c-15.175 3.502-30.351 2.918-45.82.583-7.295-1.167-14.591-2.626-21.595-4.378-1.167 2.627-3.21 4.67-5.545 5.254-1.46.291-2.918 0-4.086-.584-1.167 1.168-2.627 2.043-4.67 2.043-3.793.292-7.88-.292-10.797-2.335-6.421-4.378-8.464-9.047-9.923-16.05-9.34-3.795-18.386-7.88-27.433-12.55-8.463-4.67-11.09-16.052-6.13-24.223 4.67-8.172 15.76-11.09 23.932-6.42.292.291.876.583 1.168.875-.584-3.503-1.168-6.712-2.043-10.215-6.421-32.686-13.133-65.08-19.846-97.475-.291-1.167-.875-2.335-1.167-3.21-1.751-5.837 2.626-10.798 7.88-11.673 1.459-.293 2.918-.584 4.085-.584 2.627-7.588 16.052-9.923 22.764-9.339 19.553 1.46 33.562 14.3 47.279 27.433 15.175 14.592 30.35 29.476 44.36 45.527 4.96 5.253 9.922 10.798 14.3 16.635 7.296 9.631 14.3 19.845 19.845 30.936 7.004 13.716 13.425 30.351 7.004 45.527-5.545 12.841-20.428 21.012-33.562 24.223M589.7 440.205c-1.168-7.296-2.627-27.14-5.546-40.566-4.669 16.344-8.17 28.017-10.798 41.734 4.086-.584 12.258-.876 16.343-1.168m7.296 38.815-22.763.292c-4.378 17.51-7.588 34.73-9.048 52.532 0 3.502-4.96 3.502-4.669 0 1.46-17.51 4.086-35.313 9.631-52.532h-2.627c-3.794 14.3-8.755 44.068-8.755 44.068l-1.75 13.133c-2.336 26.557-38.524 22.472-34.73-4.96 2.335-17.22 5.253-34.147 9.631-51.074-2.627.292-5.546.584-7.88.584.292-.584.584-1.75.292-2.626-18.678-4.67-18.678-36.48 16.051-41.734 4.086-19.26 8.755-38.23 16.343-56.325 5.253-11.382 11.09-29.476 25.974-29.768 4.961-.292 10.798 3.21 13.133 7.88 8.464.584 14.592 6.42 15.467 15.76.876 11.673 2.043 23.64 3.211 35.02.291.292.291.292.584.292.291-9.923.875-20.137 2.043-29.768.291-2.919 2.042 41.15 4.085 58.66 22.18 2.627 25.391 28.892 9.34 39.107 3.793 17.218 8.754 40.858 11.09 58.37 3.21 26.264-18.387 26.848-25.099 5.835-5.545-2.043-17.219-52.24-19.554-62.746" fill="#1d1d1b"/><path d="M767.717 473.183c-8.756-11.674-18.678-22.763-29.768-32.394-11.09-10.215-22.764-18.678-36.48-26.558-1.75-.875-3.503-1.75-5.545-2.918 4.961 24.223 9.34 48.737 13.424 72.96 1.46 8.755 3.211 17.511 4.67 26.266 9.047 3.21 18.386 6.13 28.017 8.172 7.587 1.75 11.382 2.334 18.97 2.626 7.004 0 11.381 0 17.51-1.75 4.962-1.169 9.047-2.628 12.257-5.546-.583-3.794-2.335-7.004-4.086-10.506-1.75-3.502-3.502-7.297-5.545-10.507-4.377-6.712-8.755-13.424-13.424-19.845m-112.943-70.626c4.961 20.138 9.047 40.275 14.3 60.412 2.627 10.506 5.254 20.721 7.88 31.227 1.751.875 3.502 2.042 5.253 2.918-1.75-4.96-3.502-9.922-4.669-14.884-3.794-13.716-16.344-65.664-20.137-78.213-.292-1.168-3.503-5.545-2.627-1.46m126.367 145.63c-15.175 3.502-30.35 2.918-45.819.583-7.296-1.167-14.592-2.626-21.596-4.378-1.167 2.627-3.21 4.67-5.545 5.254-1.459.291-2.918 0-4.086-.584-1.167 1.168-2.627 2.043-4.669 2.043-3.794.292-7.88-.292-10.798-2.335-6.42-4.378-8.464-9.047-9.923-16.05-9.339-3.795-18.386-7.88-27.433-12.55-8.463-4.67-11.09-16.052-6.129-24.223 4.67-8.172 15.76-11.09 23.931-6.42.292.291.876.583 1.168.875-.584-3.503-1.168-6.712-2.043-10.215-6.42-32.686-13.133-65.08-19.846-97.475-.29-1.167-.875-2.335-1.167-3.21-1.75-5.837 2.626-10.798 7.88-11.673 1.46-.293 2.918-.584 4.085-.584 2.627-7.588 16.052-9.923 22.764-9.339 19.553 1.46 33.562 14.3 47.28 27.433 15.174 14.592 30.35 29.476 44.36 45.527 4.96 5.253 9.922 10.798 14.3 16.635 7.295 9.631 14.3 19.845 19.844 30.936 7.004 13.716 13.425 30.351 7.004 45.527-5.545 12.841-20.428 21.012-33.562 24.223M897.287 440.205c-1.167-7.296-2.626-27.14-5.545-40.566-4.67 16.344-8.171 28.017-10.798 41.734 4.086-.584 12.258-.876 16.343-1.168m7.296 38.815-22.763.292c-4.378 17.51-7.588 34.73-9.048 52.532 0 3.502-4.961 3.502-4.67 0 1.46-17.51 4.087-35.313 9.632-52.532h-2.627c-3.794 14.3-8.755 44.068-8.755 44.068l-1.751 13.133c-2.335 26.557-38.523 22.472-34.73-4.96 2.336-17.22 5.254-34.147 9.632-51.074-2.627.292-5.546.584-7.88.584.29-.584.584-1.75.29-2.626-18.676-4.67-18.676-36.48 16.053-41.734 4.086-19.26 8.755-38.23 16.343-56.325 5.253-11.382 11.09-29.476 25.974-29.768 4.96-.292 10.798 3.21 13.133 7.88 8.463.584 14.592 6.42 15.467 15.76.876 11.673 2.043 23.64 3.21 35.02.292.292.292.292.585.292.29-9.923.875-20.137 2.043-29.768.29-2.919 2.042 41.15 4.085 58.66 22.18 2.627 25.39 28.892 9.339 39.107 3.794 17.218 8.755 40.858 11.09 58.37 3.21 26.264-18.386 26.848-25.098 5.835-5.545-2.043-17.22-52.24-19.554-62.746M201.129 385.083a307.893 307.893 0 0 1 9.664-27.332 37.695 37.695 0 0 1-9.31-6.23c-7.102-6.468-11.345-15.013-12.131-24.31a1033.93 1033.93 0 0 0-12.788-10.064 39.73 39.73 0 0 1-16.09-3.206 52.519 52.519 0 0 1-1.568 3.04c-1.94 3.424-2.933 6.713.209 9.993l-2.736 5.112c-3.288.179-4.987 2.119-6.021 5.072-1.524 4.35-3.228 8.643-4.907 13.014 18.736 10.037 36.327 21.87 53.56 33.484zM133.599 540.92l.413.183c-.07-.168-.138-.341-.207-.51l-.206.328M799.436 359.624l-.212.225c-3.409 3.577-6.899 6.495-10.412 8.837a307.817 307.817 0 0 1 14.112 52.959 191.774 191.774 0 0 1 3.966 4.77c4.676-4.604 10.44-8.64 17.35-11.748 3.527-14.728 7.926-29.97 14.273-45.106.128-.304.26-.606.4-.906.565-1.225 1.136-2.54 1.73-3.902 2.095-4.8 4.572-10.444 7.969-16.073-.975-.741-2.235-1.14-3.822-1.205-.908-2.065-1.703-3.874-2.5-5.683 1.149-2.388 2.416-5.017 1.755-7.006-1.222-3.675-2.841-7.218-4.452-10.711a48.368 48.368 0 0 1-13.642 4.304c-10.707 13.365-19.434 23.648-26.515 31.245M777.273 638.215c.223.22.482.372.649.44.128.051.232.081.304.097.043-.012.098-.029.163-.054.225-.089.576-.297.887-.612a1.49 1.49 0 0 0 .284-.395c.109-.256.149-.45.163-.538a2.063 2.063 0 0 0-.142-.482 1.605 1.605 0 0 0-.3-.414 2.812 2.812 0 0 0-.892-.616 1.327 1.327 0 0 0-.163-.054 1.949 1.949 0 0 0-.304.098 2.446 2.446 0 0 0-.755.518 2.2 2.2 0 0 0-.461.65c-.05.12-.08.22-.1.292.016.053.038.12.069.2.09.227.295.572.598.87" fill="#1d1d1b"/><path d="M819.892 573.313a44.584 44.584 0 0 1-7.897-7.658c-6.412 3.752-13.55 6.775-21.211 8.914a307.966 307.966 0 0 1-11.162 27.965c4.276.144 8.369.95 12.184 2.415 4.378 1.681 8.259 4.13 11.54 7.28a33.703 33.703 0 0 1 7.708 11.216c1.806 4.257 2.722 8.874 2.722 13.724 0 4.865-.922 9.486-2.738 13.735a34.062 34.062 0 0 1-7.637 11.125c-3.291 3.194-7.193 5.671-11.595 7.361-4.224 1.621-8.79 2.444-13.568 2.444-4.802 0-9.395-.839-13.653-2.494-4.105-1.594-7.772-3.869-10.924-6.752a15.015 15.015 0 0 1-13.617 8.7h-3.47C679.31 740.7 592.764 784.742 497.299 783.874c-96.22.737-184.073-44.607-241.365-116.068-2.6 2.161-5.922 3.482-9.567 3.482h-7.094c-2.845 0-5.496-.806-7.765-2.18-4.365 1.805-9.147 2.726-14.223 2.726-4.804 0-9.373-.832-13.581-2.47-4.342-1.69-8.204-4.16-11.478-7.34a34.084 34.084 0 0 1-7.617-11.06c-1.825-4.23-2.752-8.875-2.752-13.795 0-4.918.927-9.562 2.755-13.803a33.947 33.947 0 0 1 7.694-11.104c3.287-3.156 7.138-5.606 11.45-7.286 3.727-1.452 7.737-2.267 11.939-2.436a307.124 307.124 0 0 1-12.253-31.3c-.47.301-.93.614-1.416.895-7.731 4.45-17.002 5.883-25.918 4.193-1.6-.016-3.41-.12-5.37-.388-5.59.504-11.293-.469-16.413-3.03a27.972 27.972 0 0 1-13.604-15.01 682.129 682.129 0 0 0-5.851-14.693c.036 1.881.165 3.87-.688 5.253-1.405 2.275-1.63 4.403-1.144 6.587 1.077 4.846 2.529 9.61 3.867 14.397.126.452.53.826.763 1.171l3.778 1.825 1.665 4.76c-3.375 3.5-2.62 7.272-1.031 11.167.938 2.3 1.893 4.641 2.397 7.056.758 3.636 2.658 5.99 6.365 6.678l2.249 5.343c-3.044 2.681-2.388 5.54-.838 8.634 1.559 3.113 3.034 6.317 4.074 9.628 1.034 3.292 2.754 5.2 5.707 4.714 3.385 3.462 3.673 6.858 1.419 10.52 2.23 4.222 4.542 8.258 6.523 12.45 1.536 3.248 3.405 5.674 7.552 5.012l3.199 5.99-2.097 4.115 10.838 16.622c4.104-.25 6.975.925 8.13 5.144-.573 2.26-1.452 4.776.64 7.23 2.479 2.903 4.71 6.022 6.996 9.087 2.005 2.687 4.322 4.604 7.796 3.461l3.27 3.606c.574 3.042.323 5.763 1.539 7.383 3.462 4.613 7.522 8.777 11.262 13.02 4.648-1.058 7.707.291 9.175 4.278.476 2.34.738 5.067 2.222 6.645 3.735 3.97 8.02 7.422 11.943 10.953l5.357-.883 3.893 3.476v4.786c5.084 5.007 10.598 9.151 16.425 12.62l3.835-1.943 4.508 3.476c.525 2.456 1.065 5.26 2.758 6.555 4.716 3.606 9.91 6.585 14.684 9.661l4.337-1.929 4.643 2.753c-.138 4.056 2.166 6.242 5.796 7.652 2.457.954 4.832 2.268 7.008 3.765 3.342 2.297 6.683 2.664 10.082.705 1.758.731 3.267 1.36 4.742 1.972.549 2.821 1.28 5.487 4.025 6.67 5.163 2.223 10.407 4.26 15.692 6.405 3.193-2.17 6.403-2.988 9.96-.135-.198 3.4 2.27 4.955 5.259 5.97 3.758 1.275 7.506 2.62 11.343 3.608 1.452.375 3.36.291 4.672-.364 2.997-1.499 5.688-1.37 8.412.226l1.917 4.35c4.338 1.038 8.794 1.731 12.97 3.214 3.843 1.364 7.077 1.67 9.804-1.975 2.083.5 3.995.957 5.725 1.371l2.072 3.871c3.122.651 6.182 1.447 9.292 1.894 3.272.47 6.593.606 9.937.891 4.488-3.287 4.488-3.287 10.072-2.21.616 1.013 1.29 2.126 1.94 3.197 6.78 1.624 13.456 2.66 20.182 1.665l2.616-3.349h6.066l3.433 3.833c5.156 0 10.31-.036 15.466.015 2.872.028 5.418-.342 5.906-3.796l6.439-1.1 2.973 2.825c4.772 0 8.922-.063 13.069.018 4.488.087 8.262-.966 9.796-5.79h6.207c1.607 1.242 3.44 2.47 5.1 2.268 5.724-.69 11.388-1.88 16.805-2.832l2.572-4.86c2.51-.624 5.029-1.752 7.228.088 1.98 1.657 4.067 1.466 6.118.918 4.953-1.325 9.839-2.897 14.62-4.33l2.29-4.65c3.393-2.093 6.608-2.205 9.74.796l17.763-6.553c.57-1.745 1.074-3.283 1.599-4.885l5.308-2.518 4.75 2.44 18.29-8.939c.32-1.769.583-3.212.855-4.71l4.706-2.67c1.566.802 2.866 1.47 4.445 2.278 4.252-2.517 8.396-5.303 12.836-7.489 3.232-1.59 5.26-3.397 4.23-6.918 3.013-3.73 6.606-4.054 10.642-2.754 4.322-2.965 8.598-5.827 12.793-8.804 2.266-1.609 4.07-3.539 2.186-6.692l5.349-3.955 5.336.913c4.316-3.805 8.895-7.869 13.507-11.895 1.898-1.656 1.019-3.503.126-5.22l5.15-4.347 3.812.946c3.777-3.515 7.055-6.84 10.629-9.807 3.049-2.53 5-5.249 3.536-9.315l3.683-4.349 4.905.387c2.722-2.99 5.479-6.08 8.3-9.108 2.844-3.05 4.983-6.3 3.366-10.722l3.16-4.446 5.832-.45 10.74-15.633a9089.6 9089.6 0 0 1-1.57-5.272l3.305-4.566 5.187-.576 9.75-16.734-2.236-4.036 2.94-5.512c2.716-.186 5.16-.866 6.416-3.729 2.185-4.987 4.506-9.914 6.668-14.646-2.137-4.295-1.721-8.85.957-10.742.45-.053 1.113-.078 1.75-.22.775-.175 1.528-.449 2.492-.74 2.26-6.089 4.499-12.114 6.74-18.149l-2.947-4.02 1.822-5.263 4.767-2.069a70.487 70.487 0 0 1 1.273-4.186 45.307 45.307 0 0 1-35.482-8.316M538.839 216.38 503.8 422.457a58.318 58.318 0 0 1 5.3-3.753l32.277-202.983c-.85.219-1.697.438-2.54.66" fill="#1d1d1b"/><path d="m301.961 603.05 56.485-36.655a49.341 49.341 0 0 1-2.417-2.462l-58.886 39.118zM500.064 603.05l.108-35.092a87.907 87.907 0 0 1-4.154 2l.254 33.093zM759.93 603.414c1.533.342 3 .915 4.343 1.702.084-.033.165-.071.25-.104a35.44 35.44 0 0 1 3.18-1.071 295.892 295.892 0 0 0 11.466-26.901 124.08 124.08 0 0 1-8.048 1.022 291.19 291.19 0 0 1-11.192 25.352M544.871 603.05l-7.03-20.683a45.028 45.028 0 0 1-4.308-.377l7.411 21.06zM780.604 397.102a530.416 530.416 0 0 1 9.982 10.81 296.953 296.953 0 0 0-9.93-34.822 42.564 42.564 0 0 1-6.83 2.23 290.315 290.315 0 0 1 6.778 21.782M601.871 603.05l-28.17-36.422a44.463 44.463 0 0 1-2.675 2.898l26.51 33.525zM455.548 602.797l8.6-24.8c-1.437.142-2.883.26-4.343.355l-8.092 24.174c1.295.03 2.575.119 3.835.27M396.342 606.647l24.08-30.743c-1.416-.24-2.823-.49-4.222-.748l-22.676 29.6a15.066 15.066 0 0 1 2.818 1.891M630.262 348.177c.318.428.652.843.956 1.284a38.191 38.191 0 0 1 8.616-5.799l44.373-41.48a42.96 42.96 0 0 1-1.582-1.912zM456.725 237.568l28.255 172.587c.565.638 1.14 1.265 1.7 1.906a336.541 336.541 0 0 1 3.951 4.267l-31.205-178.567a42.517 42.517 0 0 1-2.7-.193M701.206 603.453l-44.194-29.067a37.343 37.343 0 0 1-2.479 2.17l43.572 27.992a14.937 14.937 0 0 1 3.101-1.095M713.158 671.216a295.034 295.034 0 0 1-34.094 31.643l-25.104-32.46c-.845.25-1.733.467-2.652.658l26.144 33.063c-24.752 19.293-52.672 34.693-82.834 45.298l-26.476-77.9a37.674 37.674 0 0 1-3.305-.57l27.85 79.15c-29.241 10.052-60.56 15.589-93.122 15.79l.29-94.6h-3.06l.724 94.622c-32.582-.022-63.935-5.393-93.23-15.278l28.828-83.143c-.117-.063-.24-.117-.356-.181a15.18 15.18 0 0 1-3.547 2.428l-26.857 80.225c-30.244-10.443-58.254-25.711-83.117-44.877l27.29-34.841c-.441-.123-.88-.25-1.316-.387a44.085 44.085 0 0 1-1.242-.42l-26.355 34.403a295.155 295.155 0 0 1-35.481-32.778c-2.5.509-5.098.773-7.781.773-.403 0-.802-.014-1.202-.026a305.842 305.842 0 0 0 12.488 13.284c56.648 56.647 131.964 87.845 212.077 87.845 80.112 0 155.429-31.198 212.077-87.845a305.606 305.606 0 0 0 15.097-16.233 14.991 14.991 0 0 1-2.5-2.018 14.975 14.975 0 0 1-9.234 4.375M437.63 489.804a215.365 215.365 0 0 0-2.507-3.263l-4.366 1.141c.084.462.164.915.248 1.381 2.143.599 4.197 1.118 6.212 1.594l.87-.218-.457-.635M377.335 253.933l55.779 103.83c2.78 2.534 5.387 5.027 7.837 7.372l1.139 1.099-62.136-112.747c-.87.165-1.744.31-2.62.446M220.75 361.618a37.112 37.112 0 0 1-1.473-.444 295.9 295.9 0 0 0-4.998 13.369c.392-.676.773-1.357 1.174-2.028a113.168 113.168 0 0 1 5.297-10.897M304.527 297.273l41.467 38.41a53.528 53.528 0 0 1 2.999-1.324l-42.628-38.643c-.624.524-1.234 1.042-1.838 1.557M617.479 249.784c-.374.102-.75.18-1.124.27l-39.82 73.043a46.093 46.093 0 0 1 4.033-.394l38.793-73.014c-.625.047-1.252.081-1.882.095M235.564 603.527A290.592 290.592 0 0 1 216.7 555.63a35.164 35.164 0 0 1-4.961 8.188 295.996 295.996 0 0 0 15.977 40.088c1.302.367 2.579.797 3.82 1.307a15.075 15.075 0 0 1 4.028-1.686M217.284 656.812c-2.946 0-5.656-.482-8.13-1.446-2.474-.963-4.63-2.337-6.465-4.12a19.086 19.086 0 0 1-4.283-6.22c-1.02-2.363-1.528-4.983-1.528-7.857 0-2.873.509-5.491 1.528-7.857a18.925 18.925 0 0 1 4.31-6.22c1.855-1.781 4.019-3.155 6.493-4.12 2.473-.962 5.183-1.445 8.13-1.445 3.128 0 5.983.537 8.566 1.61a16.974 16.974 0 0 1 6.548 4.774l-4.583 4.31c-1.42-1.491-2.983-2.61-4.692-3.355-1.711-.745-3.547-1.12-5.512-1.12-2 0-3.828.329-5.484.983-1.655.655-3.091 1.582-4.31 2.783a12.973 12.973 0 0 0-2.864 4.256c-.692 1.637-1.037 3.438-1.037 5.4 0 1.966.345 3.767 1.037 5.403a12.973 12.973 0 0 0 2.864 4.256c1.219 1.2 2.655 2.128 4.31 2.783 1.656.655 3.484.982 5.484.982 1.965 0 3.8-.372 5.512-1.118 1.709-.745 3.273-1.883 4.692-3.411l4.583 4.31c-1.783 2.11-3.965 3.71-6.548 4.802-2.583 1.092-5.456 1.637-8.621 1.637M239.272 618.073h7.094v38.194h-7.094zM274.355 656.812c-2.946 0-5.656-.482-8.13-1.446-2.474-.963-4.629-2.337-6.465-4.12a19.086 19.086 0 0 1-4.283-6.22c-1.019-2.363-1.528-4.983-1.528-7.857 0-2.873.509-5.491 1.528-7.857a18.925 18.925 0 0 1 4.31-6.22c1.855-1.781 4.019-3.155 6.493-4.12 2.473-.962 5.183-1.445 8.13-1.445 3.128 0 5.983.537 8.566 1.61a16.974 16.974 0 0 1 6.548 4.774l-4.583 4.31c-1.419-1.491-2.983-2.61-4.692-3.355-1.711-.745-3.547-1.12-5.512-1.12-2 0-3.828.329-5.484.983-1.655.655-3.091 1.582-4.31 2.783a12.973 12.973 0 0 0-2.864 4.256c-.692 1.637-1.037 3.438-1.037 5.4 0 1.966.345 3.767 1.037 5.403a12.973 12.973 0 0 0 2.864 4.256c1.219 1.2 2.655 2.128 4.31 2.783 1.656.655 3.484.982 5.484.982 1.965 0 3.801-.372 5.512-1.118 1.709-.745 3.273-1.883 4.692-3.411l4.583 4.31c-1.783 2.11-3.965 3.71-6.548 4.802-2.583 1.092-5.456 1.637-8.621 1.637M296.343 656.266v-38.193h7.094v32.192h19.97v6.001zM329.027 618.073h7.093v38.194h-7.093zM358.272 656.812c-2.983 0-5.83-.428-8.539-1.282-2.711-.854-4.884-1.955-6.521-3.301l2.456-5.511c1.527 1.2 3.418 2.2 5.674 3 2.255.802 4.565 1.2 6.93 1.2 2 0 3.618-.217 4.855-.653 1.237-.437 2.147-1.028 2.729-1.774a4.018 4.018 0 0 0 .873-2.537c0-1.163-.419-2.1-1.255-2.81-.838-.71-1.919-1.272-3.247-1.691a48.689 48.689 0 0 0-4.419-1.146 52.648 52.648 0 0 1-4.856-1.282 21.838 21.838 0 0 1-4.448-1.937 9.257 9.257 0 0 1-3.246-3.138c-.818-1.31-1.227-2.982-1.227-5.02 0-2.073.553-3.973 1.664-5.701 1.109-1.728 2.801-3.11 5.074-4.147 2.274-1.037 5.156-1.555 8.649-1.555 2.292 0 4.564.29 6.82.873 2.255.582 4.219 1.419 5.892 2.51l-2.237 5.51a21.054 21.054 0 0 0-5.292-2.264c-1.819-.49-3.565-.736-5.238-.736-1.929 0-3.511.237-4.747.709-1.238.473-2.138 1.1-2.701 1.883a4.324 4.324 0 0 0-.846 2.59c0 1.166.409 2.102 1.228 2.81.819.71 1.891 1.266 3.219 1.666 1.327.4 2.81.782 4.447 1.145 1.637.364 3.255.79 4.856 1.282 1.6.492 3.073 1.128 4.42 1.91a9.347 9.347 0 0 1 3.246 3.11c.818 1.292 1.227 2.938 1.227 4.938 0 2.038-.554 3.92-1.664 5.647-1.109 1.728-2.809 3.11-5.101 4.147-2.291 1.037-5.184 1.555-8.675 1.555M380.752 656.266v-38.193h5.838l16.696 27.88h-3.055l16.423-27.88h5.838l.11 38.193h-6.821v-27.663h1.365l-13.86 23.352h-3.22l-14.185-23.353h1.637v27.664zM450.754 650.592c1.928 0 3.701-.328 5.32-.982a12.584 12.584 0 0 0 4.23-2.783c1.2-1.2 2.136-2.619 2.808-4.256.673-1.637 1.01-3.437 1.01-5.402 0-1.964-.327-3.765-.982-5.4a12.333 12.333 0 0 0-2.81-4.257 12.89 12.89 0 0 0-4.256-2.783c-1.619-.655-3.392-.982-5.32-.982-1.928 0-3.72.327-5.374.982-1.655.655-3.083 1.592-4.283 2.81a13.627 13.627 0 0 0-2.837 4.256c-.692 1.62-1.037 3.41-1.037 5.374 0 1.93.345 3.711 1.037 5.347a13.526 13.526 0 0 0 2.837 4.284c1.2 1.22 2.628 2.155 4.283 2.81 1.654.654 3.446.982 5.374.982m0 6.22c-2.946 0-5.684-.49-8.21-1.473-2.53-.982-4.72-2.364-6.576-4.147a18.828 18.828 0 0 1-4.31-6.247c-1.019-2.382-1.528-4.974-1.528-7.776 0-2.837.51-5.447 1.527-7.829a18.552 18.552 0 0 1 4.311-6.22c1.855-1.764 4.038-3.138 6.548-4.12 2.51-.982 5.256-1.473 8.238-1.473 2.946 0 5.675.482 8.185 1.446 2.51.964 4.683 2.328 6.52 4.092a18.682 18.682 0 0 1 4.283 6.247c1.018 2.401 1.528 5.02 1.528 7.857 0 2.838-.51 5.448-1.528 7.83a19.03 19.03 0 0 1-4.283 6.247c-1.837 1.783-4.01 3.157-6.52 4.12-2.51.963-5.239 1.446-8.185 1.446M493.858 618.073h7.094v38.194h-7.094zM511.263 656.266v-38.193h5.838l23.953 29.463h-2.892v-29.463h6.984v38.193h-5.838l-23.899-29.463h2.892v29.463zM573.137 656.812c-2.946 0-5.657-.482-8.13-1.446-2.474-.963-4.63-2.337-6.466-4.12a19.101 19.101 0 0 1-4.283-6.22c-1.018-2.363-1.527-4.983-1.527-7.857 0-2.873.51-5.491 1.527-7.857a18.913 18.913 0 0 1 4.311-6.22c1.855-1.781 4.018-3.155 6.493-4.12 2.472-.962 5.183-1.445 8.13-1.445 3.128 0 5.983.537 8.566 1.61 2.582 1.073 4.765 2.665 6.547 4.774l-4.583 4.31c-1.419-1.491-2.983-2.61-4.692-3.355-1.71-.745-3.547-1.12-5.51-1.12-2.002 0-3.83.329-5.485.983-1.656.655-3.092 1.582-4.31 2.783a12.973 12.973 0 0 0-2.864 4.256c-.692 1.637-1.037 3.438-1.037 5.4 0 1.966.345 3.767 1.037 5.403a12.973 12.973 0 0 0 2.864 4.256c1.218 1.2 2.654 2.128 4.31 2.783 1.655.655 3.483.982 5.484.982 1.964 0 3.801-.372 5.511-1.118 1.71-.745 3.273-1.883 4.692-3.411l4.583 4.31c-1.782 2.11-3.965 3.71-6.547 4.802-2.583 1.092-5.457 1.637-8.62 1.637M595.125 656.266v-38.193h7.093v32.192h19.97v6.001zM643.631 656.812c-5.202 0-9.284-1.473-12.249-4.42-2.965-2.946-4.446-7.22-4.446-12.822v-21.497h7.092v21.279c0 3.929.846 6.785 2.538 8.566 1.691 1.783 4.083 2.674 7.174 2.674 3.092 0 5.475-.891 7.148-2.674 1.673-1.781 2.511-4.637 2.511-8.566v-21.28h6.983v21.498c0 5.602-1.482 9.876-4.446 12.823-2.966 2.946-7.067 4.419-12.305 4.419M682.153 656.812c-2.983 0-5.83-.428-8.54-1.282-2.71-.854-4.883-1.955-6.52-3.301l2.456-5.511c1.528 1.2 3.418 2.2 5.674 3 2.255.802 4.565 1.2 6.93 1.2 2 0 3.619-.217 4.856-.653 1.237-.437 2.146-1.028 2.728-1.774a4.012 4.012 0 0 0 .873-2.537c0-1.163-.418-2.1-1.255-2.81s-1.92-1.272-3.246-1.691a48.715 48.715 0 0 0-4.42-1.146 52.648 52.648 0 0 1-4.856-1.282 21.853 21.853 0 0 1-4.447-1.937 9.26 9.26 0 0 1-3.247-3.138c-.818-1.31-1.227-2.982-1.227-5.02 0-2.073.554-3.973 1.664-5.701 1.109-1.728 2.8-3.11 5.075-4.147 2.273-1.037 5.156-1.555 8.648-1.555 2.292 0 4.564.29 6.82.873 2.256.582 4.22 1.419 5.893 2.51l-2.237 5.51a21.06 21.06 0 0 0-5.293-2.264c-1.82-.49-3.565-.736-5.238-.736-1.928 0-3.511.237-4.746.709-1.238.473-2.138 1.1-2.701 1.883a4.324 4.324 0 0 0-.846 2.59c0 1.166.409 2.102 1.227 2.81.819.71 1.89 1.266 3.219 1.666 1.328.4 2.81.782 4.447 1.145 1.637.364 3.255.79 4.857 1.282a21.136 21.136 0 0 1 4.419 1.91 9.341 9.341 0 0 1 3.247 3.11c.818 1.292 1.227 2.938 1.227 4.938 0 2.038-.554 3.92-1.664 5.647-1.11 1.728-2.81 3.11-5.101 4.147-2.292 1.037-5.184 1.555-8.676 1.555M704.632 618.073h7.094v38.194h-7.094zM733.06 656.266l-16.697-38.193h7.693l14.897 34.538h-4.475l15.17-34.538h7.037l-16.642 38.193zM778.238 650.592c1.928 0 3.7-.328 5.319-.982a12.598 12.598 0 0 0 4.23-2.783c1.2-1.2 2.136-2.619 2.809-4.256s1.01-3.437 1.01-5.402c0-1.964-.328-3.765-.982-5.4a12.336 12.336 0 0 0-2.811-4.257 12.89 12.89 0 0 0-4.256-2.783c-1.618-.655-3.391-.982-5.32-.982-1.928 0-3.72.327-5.374.982-1.655.655-3.082 1.592-4.283 2.81a13.627 13.627 0 0 0-2.837 4.256c-.692 1.62-1.036 3.41-1.036 5.374 0 1.93.344 3.711 1.036 5.347a13.526 13.526 0 0 0 2.837 4.284c1.2 1.22 2.628 2.155 4.283 2.81 1.655.654 3.446.982 5.375.982m0 6.22c-2.946 0-5.684-.49-8.212-1.473-2.528-.982-4.72-2.364-6.575-4.147a18.84 18.84 0 0 1-4.31-6.247c-1.02-2.382-1.528-4.974-1.528-7.776 0-2.837.509-5.447 1.528-7.829a18.564 18.564 0 0 1 4.31-6.22c1.855-1.764 4.038-3.138 6.548-4.12 2.51-.982 5.256-1.473 8.239-1.473 2.946 0 5.675.482 8.185 1.446 2.509.964 4.682 2.328 6.519 4.092a18.668 18.668 0 0 1 4.283 6.247c1.019 2.401 1.529 5.02 1.529 7.857 0 2.838-.51 5.448-1.53 7.83a19.014 19.014 0 0 1-4.282 6.247c-1.837 1.783-4.01 3.157-6.52 4.12-2.51.963-5.238 1.446-8.184 1.446" fill="#1d1d1b"/><path d="M217.284 656.812c-2.946 0-5.656-.482-8.13-1.446-2.474-.963-4.63-2.337-6.465-4.12a19.086 19.086 0 0 1-4.283-6.22c-1.02-2.363-1.528-4.983-1.528-7.857 0-2.873.509-5.491 1.528-7.857a18.925 18.925 0 0 1 4.31-6.22c1.855-1.781 4.019-3.155 6.493-4.12 2.473-.962 5.183-1.445 8.13-1.445 3.128 0 5.983.537 8.566 1.61a16.974 16.974 0 0 1 6.548 4.774l-4.583 4.31c-1.42-1.491-2.983-2.61-4.692-3.355-1.711-.745-3.547-1.12-5.512-1.12-2 0-3.828.329-5.484.983-1.655.655-3.091 1.582-4.31 2.783a12.973 12.973 0 0 0-2.864 4.256c-.692 1.637-1.037 3.438-1.037 5.4 0 1.966.345 3.767 1.037 5.403a12.973 12.973 0 0 0 2.864 4.256c1.219 1.2 2.655 2.128 4.31 2.783 1.656.655 3.484.982 5.484.982 1.965 0 3.8-.372 5.512-1.118 1.709-.745 3.273-1.883 4.692-3.411l4.583 4.31c-1.783 2.11-3.965 3.71-6.548 4.802-2.583 1.092-5.456 1.637-8.621 1.637M239.272 618.073h7.094v38.194h-7.094zM274.355 656.812c-2.946 0-5.656-.482-8.13-1.446-2.474-.963-4.629-2.337-6.465-4.12a19.086 19.086 0 0 1-4.283-6.22c-1.019-2.363-1.528-4.983-1.528-7.857 0-2.873.509-5.491 1.528-7.857a18.925 18.925 0 0 1 4.31-6.22c1.855-1.781 4.019-3.155 6.493-4.12 2.473-.962 5.183-1.445 8.13-1.445 3.128 0 5.983.537 8.566 1.61a16.974 16.974 0 0 1 6.548 4.774l-4.583 4.31c-1.419-1.491-2.983-2.61-4.692-3.355-1.711-.745-3.547-1.12-5.512-1.12-2 0-3.828.329-5.484.983-1.655.655-3.091 1.582-4.31 2.783a12.973 12.973 0 0 0-2.864 4.256c-.692 1.637-1.037 3.438-1.037 5.4 0 1.966.345 3.767 1.037 5.403a12.973 12.973 0 0 0 2.864 4.256c1.219 1.2 2.655 2.128 4.31 2.783 1.656.655 3.484.982 5.484.982 1.965 0 3.801-.372 5.512-1.118 1.709-.745 3.273-1.883 4.692-3.411l4.583 4.31c-1.783 2.11-3.965 3.71-6.548 4.802-2.583 1.092-5.456 1.637-8.621 1.637M296.343 656.266v-38.193h7.094v32.192h19.97v6.001zM329.027 618.073h7.093v38.194h-7.093zM358.272 656.812c-2.983 0-5.83-.428-8.539-1.282-2.711-.854-4.884-1.955-6.521-3.301l2.456-5.511c1.527 1.2 3.418 2.2 5.674 3 2.255.802 4.565 1.2 6.93 1.2 2 0 3.618-.217 4.855-.653 1.237-.437 2.147-1.028 2.729-1.774a4.018 4.018 0 0 0 .873-2.537c0-1.163-.419-2.1-1.255-2.81-.838-.71-1.919-1.272-3.247-1.691a48.689 48.689 0 0 0-4.419-1.146 52.648 52.648 0 0 1-4.856-1.282 21.838 21.838 0 0 1-4.448-1.937 9.257 9.257 0 0 1-3.246-3.138c-.818-1.31-1.227-2.982-1.227-5.02 0-2.073.553-3.973 1.664-5.701 1.109-1.728 2.801-3.11 5.074-4.147 2.274-1.037 5.156-1.555 8.649-1.555 2.292 0 4.564.29 6.82.873 2.255.582 4.219 1.419 5.892 2.51l-2.237 5.51a21.054 21.054 0 0 0-5.292-2.264c-1.819-.49-3.565-.736-5.238-.736-1.929 0-3.511.237-4.747.709-1.238.473-2.138 1.1-2.701 1.883a4.324 4.324 0 0 0-.846 2.59c0 1.166.409 2.102 1.228 2.81.819.71 1.891 1.266 3.219 1.666 1.327.4 2.81.782 4.447 1.145 1.637.364 3.255.79 4.856 1.282 1.6.492 3.073 1.128 4.42 1.91a9.347 9.347 0 0 1 3.246 3.11c.818 1.292 1.227 2.938 1.227 4.938 0 2.038-.554 3.92-1.664 5.647-1.109 1.728-2.809 3.11-5.101 4.147-2.291 1.037-5.184 1.555-8.675 1.555M380.752 656.266v-38.193h5.838l16.696 27.88h-3.055l16.423-27.88h5.838l.11 38.193h-6.821v-27.663h1.365l-13.86 23.352h-3.22l-14.185-23.353h1.637v27.664zM450.754 650.592c1.928 0 3.701-.328 5.32-.982a12.584 12.584 0 0 0 4.23-2.783c1.2-1.2 2.136-2.619 2.808-4.256.673-1.637 1.01-3.437 1.01-5.402 0-1.964-.327-3.765-.982-5.4a12.333 12.333 0 0 0-2.81-4.257 12.89 12.89 0 0 0-4.256-2.783c-1.619-.655-3.392-.982-5.32-.982-1.928 0-3.72.327-5.374.982-1.655.655-3.083 1.592-4.283 2.81a13.627 13.627 0 0 0-2.837 4.256c-.692 1.62-1.037 3.41-1.037 5.374 0 1.93.345 3.711 1.037 5.347a13.526 13.526 0 0 0 2.837 4.284c1.2 1.22 2.628 2.155 4.283 2.81 1.654.654 3.446.982 5.374.982m0 6.22c-2.946 0-5.684-.49-8.21-1.473-2.53-.982-4.72-2.364-6.576-4.147a18.828 18.828 0 0 1-4.31-6.247c-1.019-2.382-1.528-4.974-1.528-7.776 0-2.837.51-5.447 1.527-7.829a18.552 18.552 0 0 1 4.311-6.22c1.855-1.764 4.038-3.138 6.548-4.12 2.51-.982 5.256-1.473 8.238-1.473 2.946 0 5.675.482 8.185 1.446 2.51.964 4.683 2.328 6.52 4.092a18.682 18.682 0 0 1 4.283 6.247c1.018 2.401 1.528 5.02 1.528 7.857 0 2.838-.51 5.448-1.528 7.83a19.03 19.03 0 0 1-4.283 6.247c-1.837 1.783-4.01 3.157-6.52 4.12-2.51.963-5.239 1.446-8.185 1.446M493.858 618.073h7.094v38.194h-7.094zM511.263 656.266v-38.193h5.838l23.953 29.463h-2.892v-29.463h6.984v38.193h-5.838l-23.899-29.463h2.892v29.463zM573.137 656.812c-2.946 0-5.657-.482-8.13-1.446-2.474-.963-4.63-2.337-6.466-4.12a19.101 19.101 0 0 1-4.283-6.22c-1.018-2.363-1.527-4.983-1.527-7.857 0-2.873.51-5.491 1.527-7.857a18.913 18.913 0 0 1 4.311-6.22c1.855-1.781 4.018-3.155 6.493-4.12 2.472-.962 5.183-1.445 8.13-1.445 3.128 0 5.983.537 8.566 1.61 2.582 1.073 4.765 2.665 6.547 4.774l-4.583 4.31c-1.419-1.491-2.983-2.61-4.692-3.355-1.71-.745-3.547-1.12-5.51-1.12-2.002 0-3.83.329-5.485.983-1.656.655-3.092 1.582-4.31 2.783a12.973 12.973 0 0 0-2.864 4.256c-.692 1.637-1.037 3.438-1.037 5.4 0 1.966.345 3.767 1.037 5.403a12.973 12.973 0 0 0 2.864 4.256c1.218 1.2 2.654 2.128 4.31 2.783 1.655.655 3.483.982 5.484.982 1.964 0 3.801-.372 5.511-1.118 1.71-.745 3.273-1.883 4.692-3.411l4.583 4.31c-1.782 2.11-3.965 3.71-6.547 4.802-2.583 1.092-5.457 1.637-8.62 1.637M595.125 656.266v-38.193h7.093v32.192h19.97v6.001zM643.631 656.812c-5.202 0-9.284-1.473-12.249-4.42-2.965-2.946-4.446-7.22-4.446-12.822v-21.497h7.092v21.279c0 3.929.846 6.785 2.538 8.566 1.691 1.783 4.083 2.674 7.174 2.674 3.092 0 5.475-.891 7.148-2.674 1.673-1.781 2.511-4.637 2.511-8.566v-21.28h6.983v21.498c0 5.602-1.482 9.876-4.446 12.823-2.966 2.946-7.067 4.419-12.305 4.419M682.153 656.812c-2.983 0-5.83-.428-8.54-1.282-2.71-.854-4.883-1.955-6.52-3.301l2.456-5.511c1.528 1.2 3.418 2.2 5.674 3 2.255.802 4.565 1.2 6.93 1.2 2 0 3.619-.217 4.856-.653 1.237-.437 2.146-1.028 2.728-1.774a4.012 4.012 0 0 0 .873-2.537c0-1.163-.418-2.1-1.255-2.81s-1.92-1.272-3.246-1.691a48.715 48.715 0 0 0-4.42-1.146 52.648 52.648 0 0 1-4.856-1.282 21.853 21.853 0 0 1-4.447-1.937 9.26 9.26 0 0 1-3.247-3.138c-.818-1.31-1.227-2.982-1.227-5.02 0-2.073.554-3.973 1.664-5.701 1.109-1.728 2.8-3.11 5.075-4.147 2.273-1.037 5.156-1.555 8.648-1.555 2.292 0 4.564.29 6.82.873 2.256.582 4.22 1.419 5.893 2.51l-2.237 5.51a21.06 21.06 0 0 0-5.293-2.264c-1.82-.49-3.565-.736-5.238-.736-1.928 0-3.511.237-4.746.709-1.238.473-2.138 1.1-2.701 1.883a4.324 4.324 0 0 0-.846 2.59c0 1.166.409 2.102 1.227 2.81.819.71 1.89 1.266 3.219 1.666 1.328.4 2.81.782 4.447 1.145 1.637.364 3.255.79 4.857 1.282a21.136 21.136 0 0 1 4.419 1.91 9.341 9.341 0 0 1 3.247 3.11c.818 1.292 1.227 2.938 1.227 4.938 0 2.038-.554 3.92-1.664 5.647-1.11 1.728-2.81 3.11-5.101 4.147-2.292 1.037-5.184 1.555-8.676 1.555M704.632 618.073h7.094v38.194h-7.094zM733.06 656.266l-16.697-38.193h7.693l14.897 34.538h-4.475l15.17-34.538h7.037l-16.642 38.193zM778.238 650.592c1.928 0 3.7-.328 5.319-.982a12.598 12.598 0 0 0 4.23-2.783c1.2-1.2 2.136-2.619 2.809-4.256s1.01-3.437 1.01-5.402c0-1.964-.328-3.765-.982-5.4a12.336 12.336 0 0 0-2.811-4.257 12.89 12.89 0 0 0-4.256-2.783c-1.618-.655-3.391-.982-5.32-.982-1.928 0-3.72.327-5.374.982-1.655.655-3.082 1.592-4.283 2.81a13.627 13.627 0 0 0-2.837 4.256c-.692 1.62-1.036 3.41-1.036 5.374 0 1.93.344 3.711 1.036 5.347a13.526 13.526 0 0 0 2.837 4.284c1.2 1.22 2.628 2.155 4.283 2.81 1.655.654 3.446.982 5.375.982m0 6.22c-2.946 0-5.684-.49-8.212-1.473-2.528-.982-4.72-2.364-6.575-4.147a18.84 18.84 0 0 1-4.31-6.247c-1.02-2.382-1.528-4.974-1.528-7.776 0-2.837.509-5.447 1.528-7.829a18.564 18.564 0 0 1 4.31-6.22c1.855-1.764 4.038-3.138 6.548-4.12 2.51-.982 5.256-1.473 8.239-1.473 2.946 0 5.675.482 8.185 1.446 2.509.964 4.682 2.328 6.519 4.092a18.668 18.668 0 0 1 4.283 6.247c1.019 2.401 1.529 5.02 1.529 7.857 0 2.838-.51 5.448-1.53 7.83a19.014 19.014 0 0 1-4.282 6.247c-1.837 1.783-4.01 3.157-6.52 4.12-2.51.963-5.238 1.446-8.184 1.446" fill="#1d1d1b"/><path d="M319.828 787.627c-2.564-1.463-4.808-3.232-6.734-5.305-1.926-2.072-3.246-4.08-3.962-6.023l4.815-3.532c.724 1.781 1.858 3.57 3.404 5.364a20.363 20.363 0 0 0 5.368 4.431c1.719.981 3.217 1.588 4.495 1.82 1.277.231 2.348.17 3.215-.186a3.972 3.972 0 0 0 1.995-1.753c.57-1 .67-2.01.3-3.03-.372-1.02-1.025-2.036-1.961-3.047a54.368 54.368 0 0 0-3.223-3.177 67.185 67.185 0 0 1-3.545-3.484c-1.15-1.217-2.104-2.486-2.862-3.81a9.451 9.451 0 0 1-1.251-4.289c-.077-1.537.384-3.179 1.384-4.93 1.017-1.783 2.426-3.144 4.228-4.085 1.8-.94 3.933-1.299 6.396-1.075 2.462.224 5.194 1.193 8.196 2.906a26.951 26.951 0 0 1 5.434 4.097c1.653 1.607 2.93 3.29 3.834 5.048l-4.627 3.64a20.795 20.795 0 0 0-3.438-4.543c-1.323-1.315-2.703-2.383-4.141-3.204-1.688-.963-3.173-1.54-4.451-1.732-1.281-.19-2.35-.097-3.21.283-.86.38-1.53.992-2.011 1.836-.571 1.001-.678 2.007-.323 3.018.356 1.011 1.005 2.014 1.95 3.01a72.493 72.493 0 0 0 3.247 3.19 90.511 90.511 0 0 1 3.569 3.498c1.159 1.2 2.12 2.454 2.888 3.762a8.989 8.989 0 0 1 1.242 4.253c.06 1.527-.4 3.151-1.381 4.87a10.147 10.147 0 0 1-4.201 4.037c-1.802.941-3.941 1.295-6.42 1.061-2.478-.232-5.218-1.206-8.22-2.919M348.96 792.576l3.9-4.326 18.776 8.01-.423 5.808zm-10.634 4.974 30.478-28.094 6.358 2.712.863 41.464-6.754-2.882-.091-37.083 2.583 1.101-26.781 25.62zM384.83 816.469l10.133-36.416 5.567 1.549 15.034 34.396-2.756-.767 7.803-28.041 6.711 1.868-10.135 36.416-5.566-1.55-15.035-34.395 2.757.767-7.803 28.04zM459.88 832.04l-13.073-39.129 7.584.682 11.622 35.364-4.357-.39 17.905-32.71 6.992.627-19.789 36.174zM490.55 833.715l.338-37.798 7.02.062-.338 37.8zM528.38 833.197c-2.874.205-5.574-.083-8.1-.859-2.528-.776-4.76-1.97-6.697-3.584a18.456 18.456 0 0 1-4.667-5.867c-1.174-2.298-1.86-4.848-2.059-7.649-.199-2.8.12-5.422.957-7.864a18.3 18.3 0 0 1 3.816-6.47c1.708-1.87 3.75-3.37 6.124-4.495 2.374-1.125 5.015-1.79 7.924-1.998 3.088-.219 5.944.111 8.57.988 2.624.88 4.89 2.297 6.798 4.254l-4.222 4.577c-1.47-1.375-3.074-2.37-4.814-2.988-1.74-.615-3.598-.854-5.573-.713-1.975.14-3.757.591-5.344 1.354a12.61 12.61 0 0 0-4.06 3.05 12.54 12.54 0 0 0-2.503 4.4c-.549 1.663-.755 3.464-.617 5.403.137 1.94.595 3.693 1.375 5.262a12.504 12.504 0 0 0 3.1 4.002c1.286 1.1 2.77 1.915 4.45 2.445 1.68.53 3.507.725 5.482.585s3.78-.638 5.416-1.495c1.635-.855 3.082-2.087 4.34-3.692l4.83 3.988c-1.614 2.172-3.658 3.887-6.13 5.145-2.474 1.26-5.272 2-8.396 2.221M556.252 806.971l18.452-3.558 1.094 5.674-18.452 3.558zm3.597 15.805 20.945-4.037 1.114 5.779-27.838 5.366-7.155-37.116 27.094-5.224 1.115 5.78-20.202 3.894zM593.717 821.55l-11.774-35.92 5.49-1.8 31.593 20.274-2.72.892-9.065-27.658 6.62-2.17 11.773 35.92-5.491 1.8-31.592-20.276 2.72-.89 9.065 27.658zM645.773 802.267l-13.462-28.876-11.354 5.293-2.51-5.384 29.072-13.553 2.51 5.384-11.355 5.294 13.461 28.876zM665.601 767.315l16.09-9.708 2.985 4.946-16.09 9.71zm8.832 13.591 18.263-11.019 3.041 5.04-24.274 14.646-19.529-32.364 23.626-14.257 3.041 5.04-17.615 10.63z" fill="#fff"/><path d="M239.34 255.38c-10.082 3.075-20.715 6.697-29.992 11.904-.56.19-1.303.565-1.854 1.114 6.315 4.349 12.823 8.874 19.33 13.398 4.216 3.138 8.615 6.094 12.83 9.232a207.437 207.437 0 0 1 11.332-13.49c7.152-7.493 14.88-14.461 23.379-20.727a115.158 115.158 0 0 1 11.279-7.936c-4.704-.082-9.593.018-14.28.652-10.887.94-21.565 2.772-32.023 5.854m-42.6-41.587c-4.502.45-8.07.703-11.253 1.306-8.797 1.793-17.953 4.31-24.642 7.673-2.23 1.12-4.46 2.242-6.497 3.537-1.111.74-2.405 1.662-3.515 2.402l-.551.549c9.928 5.887 19.303 12.324 28.688 19.119a211.745 211.745 0 0 1 16.262-19.505 311.536 311.536 0 0 1 15.606-15.55c-4.704-.082-9.401.193-14.097.469m107.244 46.529c-7.52 7.859-16.394 14.133-24.114 21.458-11.227 10.085-20.74 21.03-29.674 32.502-.506 2.339-1.774 4.336-3.61 6.165-.734.732-1.47 1.464-2.212 1.837-2.002 2.729-4.004 5.458-5.63 8.178-2.911 4.002-7.756 5.893-12.33 3.478-.568-.167-.761-.342-1.146-.693a9.78 9.78 0 0 1-4.95-2.406c-4.234-3.855-4-9.593-.335-13.61.183-.183.367-.366.358-.724-11.913-10.146-24.377-19.745-36.841-29.343-5.011 2.79-10.835 3.089-15.646-1.291-3.848-3.504-4.531-8.327-2.95-12.84-.192-.174-.568-.166-.568-.166-10.356-8.03-20.713-16.058-31.252-23.904-2.798.953-5.614 1.19-8.238 1.602-7.328.33-18.635-.512-20.168-9.26-1.331-8.214 3.757-15.486 9.257-21.332 5.507-5.488 12.16-10.283 19.227-13.653 7.432-3.736 15.442-6.947 23.47-9.44 15.119-4.79 101.9-25.206 98.174 6.762-.27 4.305-1.292 8.626-4.8 11.386-4.606 3.857-8.856 6.99-14.207 11.22l-9.39 8.256c1.678-.572 3.174-.961 4.669-1.35 7.293-1.762 14.219-3.16 21.53-4.205 14.997-2.1 30.406-2.774 45.29-1.826 6.577-.314 13.18.446 16.705 6.107 5.695 9.736-4.018 20.149-10.62 27.092M300.79 106.292c.441 2.298.883 4.596.73 6.857 5.078 16.666 12.219 32.78 22.235 46.92 1.836 2.84 3.916 5.581 5.893 8.09.245-.1.49-.197.838-.062-13.028-18.982-22.587-39.903-28.019-61.927-.386.43-1.225.491-1.677.122m104.797 91.953c-.529.762-.812 1.425-1.095 2.088-1.17 3.22-3.925 8.721-7.262 12.258-12.353 17.046-38.97 17.53-57.223 8.891a80.472 80.472 0 0 1-17.018-11.059c-2.837 1.411-6.785 1.617-9.808-1.298-24.839-24.152-40.553-56.357-46.553-89.428-2.479-12.756-1.197-30.044 14.436-33.83 6.191-1.654 13.096.256 17.578 4.511 5.8 5.927 5.709 16.138 8.427 23.574 3.198 9.17 7.131 18.044 11.45 26.488 9.194 17.493 21.367 33.243 35.434 47.41 4.568 1.194 9.072 1.59 13.586.057 4.241-2.798 7.579-6.334 9.767-10.51 2.117-10.198-4.893-24.715-7.922-32.852-7.741-21.374-17.196-42.06-26.756-62.982-3.35-6.908 3.401-15.112 10.976-14.295l-1.035-2.335c-1.035-2.336.031-5.788 2.831-6.634 11.543-3.247 17.491 7.57 22.055 15.917 2.974 5.41 6.438 10.621 8.921 16.227l4.141 9.341c9.569 18.992 17.283 39.002 19.927 59.943 1.395 12.915.831 26.615-4.857 38.518M523.31 120.546c-8.348 2.193-16.684 4.134-25.032 6.327-5.38 1.3-10.495 2.612-15.599 3.67-.652 2.763-2.355 5.229-4.558 6.913 13.295-5.794 27.322-10.036 40.828-14.553a33.469 33.469 0 0 1 4.594-1.587zm-51.604 85.353c.266.01.532.022.808-.22 2.17-.925 4.34-1.851 6.243-2.787 4.34-1.85 8.414-3.712 12.488-5.573l.021-.506c-4.86 1.575-9.72 3.15-14.835 4.462-5.125 1.565-10.262 3.383-15.632 4.43 3.965.67 10.1.415 10.907.194m26.13-155.102c2.147-.42 4.03-.85 6.176-1.268 10.984-1.58 21.967-3.157 33.427-3.448 2.403-.155 4.795-.057 7.187.04-10.474 2.107-21.213 4.203-31.676 6.056-18.235 3.056-36.47 6.112-54.26 11.214-6.19 1.522-12.134 3.559-18.09 5.85-.52-.274-.488-1.033.065-1.518 17.922-8.14 37.828-12.901 57.17-16.926m84.704 128.458c-19.818 2.738-39.69 6.74-58.833 12.295-9.166 2.666-18.333 5.333-27.256 8.517l-.265-.011c-.543.232-1.35.452-1.893.683-2.978 1.146-5.946 2.039-8.924 3.184l-.276.243c-3.276 1.893-18.61 5.575-18.333 5.333 0 0-1.606.188-2.669.145-4.284.585-9.057.135-10.997-4.254-.477-1.287-.434-2.3-.113-3.554-6.535-2.803-10.725-10.58-8.049-17.062-1.223-8.671-1.362-17.803-1.777-26.693-.626-10.167-1.25-20.334-1.878-30.501l-1.944-28.981c-3.047-3.42-4.434-8.294-3.716-12.575.75-5.04 3.305-8.738 7.157-11.622.287-.496.852-1.233 1.15-1.982 5.68-2.05 11.613-3.834 17.27-5.377 17.792-5.102 36.027-8.158 54.251-10.961 14.216-2.46 28.188-5.437 42.16-8.414 1.85.329 3.698.658 5.271 1.23 1.573.57 2.88 1.132 4.186 1.692 1.285 1.067 2.826 2.398 4.111 3.464 1.63 5.39 2.198 10.739.917 15.757-4.307 1.09-8.879 2.17-13.452 3.252-5.923 1.532-12.11 3.053-18.289 4.32-.543.233-1.085.463-1.617.442-13.706 2.988-40.343 9.503-43.32 10.648-8.625 2.436-17.26 5.124-25.64 8.077-.278.242-.554.485-.554.485.156 2.54 1.358 11.717 1.303 12.983 15.144-5.465 30.023-10.94 45.4-15.634 8.592-1.677 17.46-3.595 26.062-5.524 1.074-.21 2.414-.41 3.488-.618 3.211-.376 6.145-.51 9.345-.631 6.655.019 13.022.533 16.48 6.759.5.78.732 1.55.976 2.068.488 1.034.976 2.068 1.197 3.092.255.264.255.264.521.275 2.337 1.363 3.822 3.959 4.245 6.512.855 4.852-2.574 10.289-7.456 12.37-5.69 2.303-11.525 1.81-17.693 2.825-6.42.75-13.12 1.745-19.564 3.002-12.897 2.767-25.552 6.052-38.26 10.602-7.839 2.72-15.167 5.97-22.76 9.209.291 5.589.592 10.926.884 16.515l-.044 1.012c.277-.242.543-.231.82-.473 5.955-2.292 11.9-4.33 17.845-6.368 7.561-2.48 15.122-4.958 22.95-7.426 4.051-1.356 8.103-2.71 12.144-3.813 6.476-2.016 12.953-4.033 19.418-5.796l10.495-2.613c2.956-.64 5.668-1.795 8.624-2.435 20.638-3.211 24.727 19.267 25.167 33.735.07 4.567-2.21 8.023-5.497 10.17-.32 1.255-1.162 2.234-2.768 2.422M694.214 255.376c19.797-44.643 37.34-90.09 49.89-136.812.121-.793.6-1.696 2.03-2.142 1.906-.783 4.755.592 4.032 3.08-12.3 43.437-28.283 85.948-49.728 125.825-.602 1.696-3 6.781-4.915 9.83-.475-.23-.832-.118-1.309.22m-62.558-64.792s-.238-.114-.595-.003l-7.426 13.442c-1.918 3.615-2.299 9.957-6.719 14.918 2.623-1.572 5.133-4.617 5.974-6.765 2.04-4.408 4.197-9.04 6.12-13.789 1.437-2.71 2.517-5.31 3.718-8.137l-1.072.334m-7.17-53.395c7.794-16.386 16.184-32.768 24.573-49.15 1.8-3.955 4.551-8.019 8.13-10.833-4.072 7.116-7.668 14.461-11.265 21.805-8.03 15.705-15.942 31.75-23.854 47.794-7.675 16.16-17.027 35.482-24.822 51.868 0 0-1.189-.007 3.013-10.18 7.082-16.729 16.31-34.693 24.225-51.304m48.556 117.621c-4.973-5.804-2.683-13.495-.756-19.942a555.667 555.667 0 0 0 2.65-8.37l-4.056-90.197c-.586-2.269-.815-4.649-1.164-6.803-7.91 15.478-16.295 30.728-24.442 46.091-4.318 9.267-8.873 18.42-13.428 27.571-3.477 7.12-7.815 21.483-18.27 18.142-5.245 3.145-11.666 2.318-16.05-1.783-2.49-2.053-3.79-4.666-4.373-7.5 8.877-19.552 18.23-38.875 27.581-58.197 7.435-15.708 15.465-31.412 23.138-47.005 5.034-10.056 9.832-20.226 15.696-29.598 1.667-.33 3.808-.433 5.59.143.96-1.807 2.63-3.27 4.655-4.28 12.275-5.713 18.741 14.146 20.257 21.971 2.682 14.062 3.58 28.114 4.12 42.278.79 11.446.983 22.89.82 34.443-.005 1.133-.364 1.811-.723 2.49.107 3.171.095 6.003.085 8.835 4.803-11.869 8.542-25.104 12.515-37.658 2.651-8.935 5.54-17.756 7.478-27.035 1.09-4.866 1.23-10.19 6.237-13.449 1.79-1.123 4.053-2.018 6.194-2.119.12-.226.357-.112.477-.338 5.485-3.596 12.37.292 14.97 4.951.592.57.827 1.25 1.062 1.931-1.326 4.751-2.178 9.732-3.268 14.597-3.149 14.937-8.084 29.865-13.135 44.452-9.869 29.855-22.114 59.132-34.952 87.838-4.409 2.13-9.647 3.008-14.158.832-1.904.216-3.684-.926-4.75-2.29M813.984 252.161c4.333-4.9 17.142-17.104 24.656-26.629-14.049 6.19-24.184 10.5-35.204 16.544 2.838 2.356 7.911 7.564 10.548 10.085M791.58 278.95l-13.773-14.803c-14.68 7.042-28.463 14.687-41.603 23.813-2.414 1.984-5.372-1.278-2.784-3.07 12.94-8.96 26.776-17.32 41.951-23.429l-1.566-1.727c-12.119 5.607-35.596 19.21-35.596 19.21l-10.096 6.288c-19.698 13.511-38.456-12.599-17.285-25.647 13.261-8.219 26.668-15.89 40.945-22.602-1.767-1.56-3.708-3.315-5.1-4.85.576-.139 1.555-.609 1.985-1.296-7.918-14.928 14.01-32.95 38.335-13.09 15.713-8.226 31.572-15.903 48.568-21.165 10.978-2.994 26.93-9.408 36.004.214 3.16 3.097 4.225 8.92 2.398 13.1 4.644 5.895 4.275 13.232-1.64 19.1-7.525 7.188-15.077 14.735-22.226 21.951-.028.357-.028.357.147.55 7.013-5.43 14.402-10.834 21.736-15.523 2.186-1.46-27.146 24.657-37.998 35.921 11.413 16.072-4.777 33.064-21.388 28.297-9.606 12.25-22.943 28.905-33.62 40.361-16.19 16.991-29.469 3.121-18.987-13.197-1.898-4.803 25.743-40.918 31.593-48.406M104.387 453.63h2.335c2.918 16.927 4.377 34.437 5.836 51.948.876 10.506-1.46 13.425-2.626 20.43-1.167-24.224-2.043-48.447-5.545-72.378m-14.592-56.909c1.459-1.459 4.378-1.459 4.669 1.168 1.459 6.128 2.919 12.257 4.086 18.385 1.459.292 3.21.292 4.669.584.293-1.459 1.168-3.21 2.627-4.378 8.755-5.545 18.386 2.335 25.099 7.88 9.339 1.167 18.969 2.335 28.308 3.502-22.472-15.467-45.82-28.016-70.918-33.853.293 1.46.584 3.21.876 4.67.292.583.292 1.458.584 2.042m117.028 48.738c-.583 5.544-6.128 10.506-10.798 9.922-13.717-.876-27.433-2.043-41.15-3.21 7.88 11.673 14.885 23.64 21.013 36.188 7.88 16.635 18.094 35.021 15.759 53.991-.875 6.421-7.587 7.88-12.55 5.837-2.625.292-5.252.292-7.878-.875-.292 0-.584 0-.584-.293-.875.876-2.627 1.46-3.794.876-5.253-13.717-11.09-27.433-16.927-40.858-3.21-7.588-11.09-26.849-16.635-37.648-1.46-3.209-2.918-6.128-4.67-9.047v-.29a122.735 122.735 0 0 1-4.96-8.173c-7.588-.292-15.468-.876-23.056-1.167 1.459 13.132 2.626 26.557 3.21 39.982.876 14.3 2.335 29.184 1.459 43.484.292 1.752.292 3.502.292 4.962-1.751 3.502-3.794 6.42-6.712 8.755-3.794 3.21-9.631 3.502-13.133-.583-.875-1.46-1.46-2.919-1.751-4.67-2.335.584-5.253-1.459-5.253-4.669-1.46-6.129-.876-13.134-1.46-19.554l-2.626-19.262-7.004-41.149c-.584-3.503-1.168-6.713-1.751-10.215h-1.751c0-.875-.584-1.75-1.752-2.043-3.21-.875-6.42-2.043-9.63-3.21 2.335-.292 4.378-.583 6.712-.876-2.918-1.167-6.128-2.918-8.755-4.669-8.171-5.253-4.67-19.845 4.086-19.845 1.75-.292 3.502-.292 5.253-.292-2.043-9.923-4.086-20.137-6.421-30.06 2.335-1.75 4.378-3.793 6.129-6.42-5.545-4.669-8.755-12.84-5.545-19.554 5.545-10.798 23.056-7.004 32.686-5.253 1.168 0 2.043.584 2.627 1.167 2.043.876 4.086 1.46 6.129 2.336.29 0 .583.291.875.291 32.102 10.215 60.995 30.06 89.595 49.322 2.335 1.751 3.502 4.085 4.086 6.42 4.086 2.92 8.172 6.13 11.966 9.047 4.669 3.502 6.42 8.755 5.545 15.176l-.876 6.13M281.82 395.553c-.875-2.043-1.751-4.377-2.918-6.42-.292-.291-.876-.584-1.168-.584h-1.46c-1.75 3.21-2.918 7.005-3.793 9.923-3.21 10.507-5.837 21.305-7.296 32.394-2.627 21.597-2.334 44.068 1.168 65.664.583 3.21.29 6.13-1.168 8.757-8.171-37.94-7.588-80.841 9.047-115.861-1.751 1.166-2.92 3.502-4.086 5.543-5.545 10.798-9.338 22.764-11.673 34.73-.292.584-.292.875-.584 1.167-1.167 6.714-1.751 13.425-2.335 20.137-.875 19.846 1.46 39.692 5.837 58.66-.876.584-2.043 1.168-3.21 1.46-3.502.875-7.588 0-10.506-2.043.29 0 .29 0 .29.293 4.67 9.63 14.886 21.595 27.434 17.801 3.503-1.168 6.129-3.793 7.88-7.004 1.752-3.21 3.21-6.42 4.086-9.922 4.962-13.718 6.712-28.309 6.712-42.61-1.167-14.591-2.043-29.476-4.377-43.775-.876-4.379-1.46-8.756-2.335-12.841-1.751-5.255-3.502-10.507-5.545-15.469m30.35 131.913c-3.21 4.377-6.711 8.463-10.797 11.965-5.544 5.545-12.257 9.34-20.428 10.506a53.064 53.064 0 0 1-9.632 0c-9.63 1.752-20.428-1.75-28.308-8.17-13.716-11.675-19.553-29.185-22.472-46.404-5.836-37.356-.583-75.879 18.97-108.565.292 0 .292-.292.584-.584 2.918-7.587 6.712-14.591 11.673-21.012.292-.584.876-.292.584.291-1.751 2.92-3.502 5.839-4.67 8.757-1.458 3.21-2.626 6.42-3.794 9.63.876-.291 1.752 0 2.336 0 4.96-10.798 11.965-19.846 21.304-21.887 3.793-1.46 7.588-2.627 11.382-2.337 4.086-.875 9.047-.875 12.549 1.168 3.794 2.335 6.712 7.296 8.755 11.09 2.335-.875 5.253-.291 6.712 2.336 4.086 7.88 8.172 16.05 11.09 24.514 2.627 8.755 4.378 17.802 5.837 26.558 2.919 18.094 4.086 36.188 2.043 54.575-1.46 16.05-4.085 33.853-13.717 47.57M460.13 473.183c-8.756-11.674-18.678-22.763-29.768-32.394-11.09-10.215-22.764-18.678-36.481-26.558-1.75-.875-3.502-1.75-5.544-2.918 4.96 24.223 9.339 48.737 13.424 72.96 1.459 8.755 3.21 17.511 4.67 26.266 9.047 3.21 18.386 6.13 28.017 8.172 7.587 1.75 11.382 2.334 18.969 2.626 7.005 0 11.382 0 17.51-1.75 4.962-1.169 9.048-2.628 12.258-5.546-.583-3.794-2.335-7.004-4.086-10.506-1.75-3.502-3.502-7.297-5.545-10.507-4.377-6.712-8.755-13.424-13.424-19.845m-112.943-70.626c4.96 20.138 9.047 40.275 14.3 60.412 2.627 10.506 5.254 20.721 7.88 31.227 1.75.875 3.502 2.042 5.253 2.918-1.751-4.96-3.502-9.922-4.67-14.884-3.793-13.716-16.343-65.664-20.136-78.213-.292-1.168-3.503-5.545-2.627-1.46m126.367 145.63c-15.175 3.502-30.351 2.918-45.82.583-7.295-1.167-14.591-2.626-21.595-4.378-1.167 2.627-3.21 4.67-5.545 5.254-1.46.291-2.918 0-4.086-.584-1.167 1.168-2.627 2.043-4.67 2.043-3.793.292-7.88-.292-10.797-2.335-6.421-4.378-8.464-9.047-9.923-16.05-9.34-3.795-18.386-7.88-27.433-12.55-8.463-4.67-11.09-16.052-6.13-24.223 4.67-8.172 15.76-11.09 23.932-6.42.292.291.876.583 1.168.875-.584-3.503-1.168-6.712-2.043-10.215-6.421-32.686-13.133-65.08-19.846-97.475-.291-1.167-.875-2.335-1.167-3.21-1.751-5.837 2.626-10.798 7.88-11.673 1.459-.293 2.918-.584 4.085-.584 2.627-7.588 16.052-9.923 22.764-9.339 19.553 1.46 33.562 14.3 47.279 27.433 15.175 14.592 30.35 29.476 44.36 45.527 4.96 5.253 9.922 10.798 14.3 16.635 7.296 9.631 14.3 19.845 19.845 30.936 7.004 13.716 13.425 30.351 7.004 45.527-5.545 12.841-20.428 21.012-33.562 24.223M589.7 440.205c-1.168-7.296-2.627-27.14-5.546-40.566-4.669 16.344-8.17 28.017-10.798 41.734 4.086-.584 12.258-.876 16.343-1.168m7.296 38.815-22.763.292c-4.378 17.51-7.588 34.73-9.048 52.532 0 3.502-4.96 3.502-4.669 0 1.46-17.51 4.086-35.313 9.631-52.532h-2.627c-3.794 14.3-8.755 44.068-8.755 44.068l-1.75 13.133c-2.336 26.557-38.524 22.472-34.73-4.96 2.335-17.22 5.253-34.147 9.631-51.074-2.627.292-5.546.584-7.88.584.292-.584.584-1.75.292-2.626-18.678-4.67-18.678-36.48 16.051-41.734 4.086-19.26 8.755-38.23 16.343-56.325 5.253-11.382 11.09-29.476 25.974-29.768 4.961-.292 10.798 3.21 13.133 7.88 8.464.584 14.592 6.42 15.467 15.76.876 11.673 2.043 23.64 3.211 35.02.291.292.291.292.584.292.291-9.923.875-20.137 2.043-29.768.291-2.919 2.042 41.15 4.085 58.66 22.18 2.627 25.391 28.892 9.34 39.107 3.793 17.218 8.754 40.858 11.09 58.37 3.21 26.264-18.387 26.848-25.099 5.835-5.545-2.043-17.219-52.24-19.554-62.746" fill="#1d1d1b"/><path d="M767.717 473.183c-8.756-11.674-18.678-22.763-29.768-32.394-11.09-10.215-22.764-18.678-36.48-26.558-1.75-.875-3.503-1.75-5.545-2.918 4.961 24.223 9.34 48.737 13.424 72.96 1.46 8.755 3.211 17.511 4.67 26.266 9.047 3.21 18.386 6.13 28.017 8.172 7.587 1.75 11.382 2.334 18.97 2.626 7.004 0 11.381 0 17.51-1.75 4.962-1.169 9.047-2.628 12.257-5.546-.583-3.794-2.335-7.004-4.086-10.506-1.75-3.502-3.502-7.297-5.545-10.507-4.377-6.712-8.755-13.424-13.424-19.845m-112.943-70.626c4.961 20.138 9.047 40.275 14.3 60.412 2.627 10.506 5.254 20.721 7.88 31.227 1.751.875 3.502 2.042 5.253 2.918-1.75-4.96-3.502-9.922-4.669-14.884-3.794-13.716-16.344-65.664-20.137-78.213-.292-1.168-3.503-5.545-2.627-1.46m126.367 145.63c-15.175 3.502-30.35 2.918-45.819.583-7.296-1.167-14.592-2.626-21.596-4.378-1.167 2.627-3.21 4.67-5.545 5.254-1.459.291-2.918 0-4.086-.584-1.167 1.168-2.627 2.043-4.669 2.043-3.794.292-7.88-.292-10.798-2.335-6.42-4.378-8.464-9.047-9.923-16.05-9.339-3.795-18.386-7.88-27.433-12.55-8.463-4.67-11.09-16.052-6.129-24.223 4.67-8.172 15.76-11.09 23.931-6.42.292.291.876.583 1.168.875-.584-3.503-1.168-6.712-2.043-10.215-6.42-32.686-13.133-65.08-19.846-97.475-.29-1.167-.875-2.335-1.167-3.21-1.75-5.837 2.626-10.798 7.88-11.673 1.46-.293 2.918-.584 4.085-.584 2.627-7.588 16.052-9.923 22.764-9.339 19.553 1.46 33.562 14.3 47.28 27.433 15.174 14.592 30.35 29.476 44.36 45.527 4.96 5.253 9.922 10.798 14.3 16.635 7.295 9.631 14.3 19.845 19.844 30.936 7.004 13.716 13.425 30.351 7.004 45.527-5.545 12.841-20.428 21.012-33.562 24.223M897.287 440.205c-1.167-7.296-2.626-27.14-5.545-40.566-4.67 16.344-8.171 28.017-10.798 41.734 4.086-.584 12.258-.876 16.343-1.168m7.296 38.815-22.763.292c-4.378 17.51-7.588 34.73-9.048 52.532 0 3.502-4.961 3.502-4.67 0 1.46-17.51 4.087-35.313 9.632-52.532h-2.627c-3.794 14.3-8.755 44.068-8.755 44.068l-1.751 13.133c-2.335 26.557-38.523 22.472-34.73-4.96 2.336-17.22 5.254-34.147 9.632-51.074-2.627.292-5.546.584-7.88.584.29-.584.584-1.75.29-2.626-18.676-4.67-18.676-36.48 16.053-41.734 4.086-19.26 8.755-38.23 16.343-56.325 5.253-11.382 11.09-29.476 25.974-29.768 4.96-.292 10.798 3.21 13.133 7.88 8.463.584 14.592 6.42 15.467 15.76.876 11.673 2.043 23.64 3.21 35.02.292.292.292.292.585.292.29-9.923.875-20.137 2.043-29.768.29-2.919 2.042 41.15 4.085 58.66 22.18 2.627 25.39 28.892 9.339 39.107 3.794 17.218 8.755 40.858 11.09 58.37 3.21 26.264-18.386 26.848-25.098 5.835-5.545-2.043-17.22-52.24-19.554-62.746" fill="#1d1d1b"/><path d="M505.014 883.722c1.998 0 3.997.006 5.995.025l.528.003c4.694 0 9.175-.627 13.318-1.864l.729-.218.762.009c1.2.016 2.368.006 3.5-.002l1.324-.01c2.642-.011 5.376-.024 7.883.025 6.9.139 13.345-.925 19.108-3.148l.882-.34.946.005a39.554 39.554 0 0 0 5.18-.292c5.299-.64 10.215-1.551 14.553-2.356l.13-.025c1.357-.25 2.703-.5 4.032-.734a35.999 35.999 0 0 0 8.568-2.637l.814-.368.893-.062a46.348 46.348 0 0 0 8.72-1.467c4.16-1.113 8.175-2.342 11.716-3.427 1.318-.403 2.63-.804 3.934-1.196a36.017 36.017 0 0 0 5.795-2.3l.697-.35.77-.121a36.052 36.052 0 0 0 6.898-1.793l17.762-6.554a36.134 36.134 0 0 0 6.588-3.227l.663-.414.758-.191a36.091 36.091 0 0 0 6.992-2.561l18.294-8.94a36.096 36.096 0 0 0 4.78-2.812l.567-.395.654-.227a36.055 36.055 0 0 0 6.536-3.033 279.99 279.99 0 0 0 4.339-2.635c2.3-1.416 4.472-2.754 6.057-3.533 4.432-2.183 8.357-4.85 11.666-7.927l.64-.594.802-.342a36.014 36.014 0 0 0 6.223-3.42 1467.12 1467.12 0 0 1 3.69-2.518c3.11-2.117 6.325-4.307 9.584-6.62a46.16 46.16 0 0 0 6.794-5.883l.604-.637.784-.394a36.023 36.023 0 0 0 7.657-5.171l3.986-3.518c3.06-2.705 6.215-5.491 9.377-8.251a39.566 39.566 0 0 0 4.986-5.246l.455-.574.6-.42a36.172 36.172 0 0 0 3.907-3.156 386.315 386.315 0 0 0 3.702-3.502c2.12-2.022 3.897-3.715 5.395-4.958 4.13-3.43 7.572-7.27 10.226-11.416l.457-.714.668-.523a36.26 36.26 0 0 0 4.407-4.097l2.738-3.02a539.684 539.684 0 0 1 5.272-5.774c3.353-3.597 6.122-7.412 8.235-11.343l.444-.827.715-.61a36.028 36.028 0 0 0 6.296-6.99l10.742-15.633a36.109 36.109 0 0 0 3-5.268l.324-.7.52-.57a36.059 36.059 0 0 0 4.51-6.14l9.752-16.735a36.089 36.089 0 0 0 3.047-6.734l.266-.796.51-.666a42.267 42.267 0 0 0 5.165-8.754c1.434-3.274 3.047-6.771 4.47-9.857.664-1.438 1.322-2.865 1.966-4.273a35.948 35.948 0 0 0 2.037-5.67l.204-.764.43-.663a36.035 36.035 0 0 0 3.532-7.037l6.744-18.152a36.11 36.11 0 0 0 1.766-6.636l.12-.726.324-.66a36.132 36.132 0 0 0 2.488-6.662c.103-.39.314-1.078.635-2.048 1.804-5.435 2.274-11.322 1.36-17.025l-3.154-19.707 12.074 15.892c9.93 13.072 24.198 20.569 39.143 20.568 3.266 0 6.564-.36 9.8-1.07 20.426-4.467 40.468-25.17 36.206-60.058l-.048-.38c-1.472-11.04-3.94-24.881-7.547-42.332l-.356-1.724.803-1.567c6.186-12.08 7.939-25.98 4.935-39.135-2.712-11.882-8.993-22.307-18.167-30.147l-1.606-1.373-.135-2.11c-.477-7.491-.911-15.315-1.23-21.03-.234-4.24-.435-7.845-.594-10.4-.1-1.577-.188-2.83-.261-3.688-.73-8.68-3.976-16.39-9.384-22.301l-.573-.627-.334-.781c-5.2-12.147-14.636-21.736-26.573-27.001l-.635-.28-.535-.443c-9.661-7.992-21.636-12.12-33.761-11.616a53.41 53.41 0 0 0-9.316 1.116l-3.956.834-1.644-3.694a316.695 316.695 0 0 0-1.77-3.892 36.907 36.907 0 0 0-1.566-3.004l-1.197-2.063.849-2.23a52.053 52.053 0 0 0 3.373-16.211l.092-2.041 1.496-1.392c4.294-3.997 8.604-7.958 11.967-11.048 2.77-2.546 5.143-4.727 6.813-6.284a165.75 165.75 0 0 0 2.452-2.322c6.16-5.994 10.028-13.301 11.188-21.128l.112-.746.325-.68c5.363-11.207 6.35-23.853 2.784-35.607l-.18-.591-.03-.616c-.581-11.847-5.47-23.278-13.411-31.363-10.786-11.164-25.943-16.791-42.678-15.868-9.81.539-18.62 3.134-25.05 5.028l-.347.102c-1.104.326-2.171.64-3.188.918-.39.107-.781.22-1.17.34-11.192 3.466-22.748 8.04-35.33 13.987l-1.825.863-1.913-.647a65.97 65.97 0 0 0-9.075-2.364l-5.676-1.053 1.853-5.467a793.301 793.301 0 0 0 11.839-38.152c3.9-13.68.242-27.79-9.783-37.754l-.49-.487-.34-.601a39.58 39.58 0 0 0-2.58-3.99l-.1-.142c-6.746-9.88-17.173-17.155-28.61-19.963-6.953-1.708-13.914-1.798-20.691-.27l-3.676.83-1.81-3.305c-5.698-10.41-13.214-18.047-22.338-22.704-12.395-6.325-26.881-6.517-39.75-.526-.286.133-.572.27-.857.412l-1.264.646-.803.124a36.036 36.036 0 0 0-16.757 7.278c-6.785 5.335-12.44 12.224-16.804 20.476L607.71 89.094l1.01-22.277c.34-7.478-.7-15.28-3.091-23.184a35.882 35.882 0 0 0-11.463-17.278c-.458-.38-.952-.8-1.454-1.224l-.301-.256c-.813-.69-1.623-1.375-2.358-1.986a36.023 36.023 0 0 0-8.817-5.39c-1.492-.64-3.533-1.517-6.06-2.434-4.504-1.637-8.573-2.361-11.267-2.84a36.01 36.01 0 0 0-7.781-.527l-.806.034-.777-.222a36.06 36.06 0 0 0-8.452-1.358c-2.601-.107-6.162-.252-10.123-.046l-.115.005c-13.32.386-25.87 2.19-36.942 3.78a35.19 35.19 0 0 0-1.792.304c-1.264.246-2.446.494-3.628.743l-.247.052c-.753.159-1.508.318-2.31.475l-.42.084c-21.121 4.395-43.57 9.783-64.737 19.396a35.997 35.997 0 0 0-8.83 5.693 37.428 37.428 0 0 0-5.717 6.304l-4.192 5.829-4.013-5.952c-2.85-4.225-5.833-7.806-9.124-10.948C380.64 23.208 363.05 18.75 345.65 23.646c-.223.062-.444.127-.664.193-10.034 3.03-18.401 9.78-23.558 19.003l-.375.67-.56.526a47.919 47.919 0 0 0-6.784 7.984l-2.318 3.448-3.814-1.65c-11.177-4.832-23.732-5.846-35.35-2.851-31.153 7.769-47.992 38.745-40.987 75.338a211.007 211.007 0 0 0 3.992 17.542l1.8 6.61-6.844-.3c-9.623-.424-20.392.138-32.928 1.717-21.51 2.71-42.508 7.852-51.374 10.647-9.886 3.075-19.485 6.93-28.55 11.462-10.486 5.06-20.426 12.134-28.81 20.488-.273.272-.544.55-.811.835-19.008 20.206-20.591 39.298-18.571 51.757l.076.452c3.273 18.676 18.745 38.754 52.357 39.1l1.664.017 7.872 6.04-2.092 3.767c-.33.594-.65 1.197-.95 1.816l-.084.176c-.127.265-.248.512-.341.688l-.068.124c-2.658 4.694-4.527 9.494-5.555 14.266l-.196.907-.507.777c-1.618 2.47-3.03 5.21-4.2 8.142l-1.753 4.4-4.49-1.515c-.35-.118-.696-.24-1.044-.36-.475-.165-.951-.331-1.433-.488l-.66-.237a90.368 90.368 0 0 0-1.546-.585l-.333-.122-.313-.17a39.064 39.064 0 0 0-13.582-4.363l-.268-.042c-5.711-1.054-15.271-2.817-25.445-2.278-19.808 1.046-35.878 10.816-44.087 26.804-.153.298-.304.6-.45.905-4.864 10.169-6.081 21.506-3.52 32.789l.23 1.015-.193 1.022a35.765 35.765 0 0 0 .33 14.932c.144.612.289 1.232.432 1.855l.488 2.115-1.212 1.8c-2.715 4.033-4.802 8.498-6.205 13.272-4.352 14.817-1.735 30.149 7.182 42.064l.339.452.229.516a36.037 36.037 0 0 0 12.162 14.842l1.698 1.199 5.364 31.534 2.412 17.794c.06 1.04.094 2.357.132 3.97.11 4.616.248 10.36 1.439 16.734l.042.26a40.593 40.593 0 0 0 13.59 25.294l.362.316.295.378c.346.442.7.877 1.066 1.304 8.45 9.857 20.862 15.509 34.052 15.508a46.2 46.2 0 0 0 7.139-.566l4.922-.773.79 4.919c.639 3.98 1.805 8.064 3.465 12.135l.07.173c.158.385.336.822.472 1.168l.135.34.084.355c1.149 4.88 3.013 9.449 5.542 13.574l.489.798.167.922c.796 4.376 2.262 8.718 4.358 12.904.994 1.984 1.636 3.418 1.907 4.26 1.438 4.576 3.474 8.778 6.064 12.522l.482.697.226.817a36.154 36.154 0 0 0 2.882 7.268c.732 1.384 1.47 2.748 2.204 4.104 1.415 2.613 2.636 4.869 3.6 6.909 1.828 3.866 4.01 7.37 6.485 10.415l.539.663.289.804a36.02 36.02 0 0 0 3.73 7.51l10.84 16.624a36.152 36.152 0 0 0 4.797 5.89l.602.599.372.763a41.578 41.578 0 0 0 5.772 8.825c1.195 1.403 2.622 3.33 4.134 5.372l1.393 1.877c2.667 3.578 5.657 6.694 8.879 9.253l.738.586.474.814a39.94 39.94 0 0 0 2.574 3.88c3.486 4.644 7.03 8.553 10.16 12.004l.227.249c.895.987 1.787 1.968 2.658 2.958a36.073 36.073 0 0 0 7.496 6.453l.795.512.552.768a40.364 40.364 0 0 0 3.342 4.055c3.898 4.143 7.888 7.62 11.095 10.416l.173.15c.949.826 1.89 1.647 2.807 2.474a36.267 36.267 0 0 0 5.935 4.334l.632.369.5.534c.327.35.664.695 1.008 1.033 6.902 6.798 14.732 12.823 23.275 17.908.743.442 1.509.862 2.279 1.249l.725.363.573.575a40.374 40.374 0 0 0 4.072 3.566c4.76 3.64 9.558 6.63 13.412 9.033l.148.09c1.177.736 2.345 1.463 3.485 2.198a36.1 36.1 0 0 0 6.745 3.405l.762.289.63.515c3.599 2.939 7.717 5.369 12.242 7.219l.475.196.427.287c4.47 3.015 9.257 5.225 14.225 6.569l.94.254.778.59a41.563 41.563 0 0 0 8.675 5.069c4.088 1.76 8.063 3.353 11.907 4.893l.477.19c1.334.536 2.672 1.073 4.014 1.617a36.009 36.009 0 0 0 6.816 2.009l.836.159.736.426a49.105 49.105 0 0 0 8.796 3.973l1.687.576c3.586 1.228 7.645 2.617 12.234 3.803a42.86 42.86 0 0 0 6.318 1.125l.9.092.81.4a36.032 36.032 0 0 0 7.582 2.744c1.603.384 3.22.733 4.839 1.078 2.034.435 3.527.759 4.345 1.012l.19.063c5.42 1.917 10.803 2.92 15.998 2.982l.826.01.778.275c1.506.53 3.062.966 4.623 1.292.737.153 1.47.317 2.2.482l.126.028c2.516.564 5.65 1.267 9.198 1.776 3.53.508 6.787.742 9.404.93l.233.017c.784.056 1.57.113 2.357.18 1.798.153 3.62.172 5.423.054l.752-.05.733.175c8.294 1.976 19.448 4.04 32.198 2.41l.786-.1.779.149c2.2.417 4.456.629 6.702.629l5.06-.008c1.352-.003 2.704-.005 4.057-.005m6.523 10.028-.628-.003c-3.31-.035-6.622-.027-9.932-.02l-5.072.008c-2.61 0-5.222-.223-7.785-.662-13.648 1.61-25.412-.45-34.29-2.53-2.05.1-4.117.062-6.158-.112-.74-.063-1.48-.115-2.218-.168l-.215-.016c-2.797-.201-6.25-.45-10.131-1.007-3.933-.565-7.278-1.315-9.965-1.917l-.127-.03c-.682-.152-1.364-.305-2.051-.45a45.972 45.972 0 0 1-5.127-1.382c-5.991-.163-12.131-1.337-18.265-3.493-.581-.162-2.474-.566-3.403-.766a211.706 211.706 0 0 1-5.092-1.133 46.134 46.134 0 0 1-8.871-3.113 52.568 52.568 0 0 1-6.908-1.292c-4.965-1.282-9.22-2.738-12.972-4.023l-1.674-.572a59.2 59.2 0 0 1-9.85-4.367 46.171 46.171 0 0 1-7.872-2.4c-1.328-.54-2.653-1.07-3.975-1.6l-.476-.191c-3.901-1.562-7.936-3.18-12.143-4.991a51.546 51.546 0 0 1-9.984-5.706c-5.535-1.603-10.858-4.083-15.841-7.384-4.998-2.093-9.593-4.79-13.677-8.027a46.021 46.021 0 0 1-7.857-4.055c-1.097-.706-2.222-1.406-3.356-2.113l-.15-.093c-4.035-2.516-9.056-5.646-14.196-9.576a50.76 50.76 0 0 1-4.503-3.881 47.187 47.187 0 0 1-2.188-1.223c-9.233-5.497-17.702-12.014-25.173-19.372a46.472 46.472 0 0 1-.796-.804 46.24 46.24 0 0 1-6.956-5.164c-.877-.791-1.778-1.575-2.684-2.365l-.174-.151c-3.374-2.94-7.572-6.6-11.81-11.104a49.994 49.994 0 0 1-3.616-4.304 46.054 46.054 0 0 1-8.788-7.724c-.838-.952-1.697-1.898-2.56-2.848l-.205-.226c-3.298-3.637-7.01-7.73-10.775-12.744a50.908 50.908 0 0 1-2.736-4.042c-3.618-2.978-6.964-6.515-9.955-10.526l-1.394-1.88c-1.42-1.915-2.747-3.71-3.717-4.846a51.641 51.641 0 0 1-6.782-10.187 46.081 46.081 0 0 1-5.53-6.921l-10.84-16.624a46.1 46.1 0 0 1-4.471-8.793c-2.762-3.508-5.194-7.47-7.234-11.785-.85-1.793-2.01-3.938-3.355-6.424a462.846 462.846 0 0 1-2.25-4.191 46.22 46.22 0 0 1-3.45-8.465c-2.935-4.391-5.253-9.258-6.893-14.48v.003c-.002 0-.273-.728-1.32-2.818-2.376-4.745-4.083-9.678-5.08-14.676-2.78-4.715-4.855-9.868-6.18-15.336-.098-.245-.206-.51-.305-.753l-.07-.172a68.038 68.038 0 0 1-3.131-9.631 55.157 55.157 0 0 1-3.925.142c-16.113 0-31.292-6.924-41.644-19a46.216 46.216 0 0 1-1.06-1.283 50.59 50.59 0 0 1-16.558-31.072c-1.315-7.114-1.47-13.517-1.581-18.198-.03-1.236-.058-2.5-.108-3.443l-2.336-17.131-4.64-27.258a46.071 46.071 0 0 1-13.595-17.176c-10.553-14.394-13.63-32.738-8.436-50.423a58.064 58.064 0 0 1 6.3-14.173 45.672 45.672 0 0 1-.548-17.812c-2.77-13.17-1.23-26.393 4.47-38.308.185-.387.378-.774.575-1.16 9.88-19.24 28.999-30.984 52.456-32.223 11.279-.594 21.499 1.27 27.659 2.406a49.047 49.047 0 0 1 16.429 5.206 54.36 54.36 0 0 1 2.638-4.702c1.099-4.711 2.858-9.407 5.242-14.001-37.184-1.924-54.66-26.354-58.323-47.256a37.008 37.008 0 0 1-.1-.596c-2.376-14.66-.637-37.02 21.162-60.192.339-.36.683-.714 1.032-1.063 9.168-9.136 20.047-16.875 31.463-22.383 9.483-4.742 19.588-8.8 29.97-12.031 9.195-2.898 30.946-8.231 53.113-11.025 10.266-1.293 19.44-1.932 27.833-1.932h.084a216.48 216.48 0 0 1-2.517-11.877c-8.044-42.022 11.838-77.762 48.36-86.87 12.436-3.206 25.803-2.526 38.03 1.884a57.989 57.989 0 0 1 5.279-5.866c6.456-11.153 16.733-19.316 29.017-23.027.284-.086.565-.168.848-.247 20.889-5.876 41.979-.547 57.866 14.62a71.44 71.44 0 0 1 6.624 7.274 46.6 46.6 0 0 1 2.93-2.8 45.939 45.939 0 0 1 11.28-7.273c22.057-10.016 45.15-15.57 66.82-20.078l.556-.112c.75-.147 1.459-.296 2.165-.445l.249-.052c1.23-.26 2.46-.517 3.772-.773a45.596 45.596 0 0 1 2.262-.383c11.345-1.63 24.174-3.474 38.039-3.88 4.4-.228 8.21-.072 10.995.043a46.23 46.23 0 0 1 10.019 1.52c3.06-.071 6.13.163 9.142.7 3.03.539 7.614 1.354 12.929 3.286 2.794 1.014 4.986 1.956 6.588 2.643a46.035 46.035 0 0 1 11.263 6.887c.762.634 1.6 1.343 2.437 2.053l.3.254c.475.403.943.8 1.375 1.159a45.85 45.85 0 0 1 14.647 22.077 85.679 85.679 0 0 1 2.583 11.107 70.03 70.03 0 0 1 10.976-10.802 46.072 46.072 0 0 1 20.609-9.17c.34-.167.685-.333 1.032-.494 15.677-7.298 33.36-7.048 48.515.685 9.976 5.09 18.283 13.033 24.735 23.637 7.132-1.104 14.388-.767 21.62 1.007 13.77 3.38 26.316 12.114 34.434 23.965A49.383 49.383 0 0 1 782.542 85c12.093 12.369 16.64 30.346 11.868 47.09a806.555 806.555 0 0 1-10.227 33.363c.982.26 1.96.54 2.929.84 12.322-5.743 23.739-10.216 34.846-13.655.494-.153.994-.298 1.497-.436.955-.26 1.955-.555 2.99-.861l.35-.103c6.904-2.034 16.356-4.818 27.328-5.421 19.68-1.081 37.584 5.62 50.39 18.875 9.612 9.785 15.362 22.997 16.203 37.236 4.017 13.747 2.887 28.45-3.191 41.56-1.613 9.729-6.438 18.732-13.99 26.08-.6.584-1.484 1.424-2.607 2.47a1685.98 1685.98 0 0 1-6.864 6.332c-2.97 2.728-6.68 6.138-10.462 9.649a61.99 61.99 0 0 1-3.094 15.037c.303.587.588 1.17.856 1.75.068.149.137.299.208.45a63.333 63.333 0 0 1 7.032-.618c14.319-.59 28.49 4.186 39.964 13.466 13.71 6.233 24.592 17.257 30.762 31.163 6.57 7.465 10.506 16.978 11.399 27.57.077.908.172 2.236.276 3.909.16 2.57.363 6.202.598 10.44.289 5.2.673 12.11 1.097 18.917 9.943 9.068 16.774 20.814 19.807 34.1 3.393 14.865 1.617 30.53-4.991 44.317 3.467 16.895 5.862 30.428 7.315 41.326l.065.503c5.023 41.1-19.284 65.64-43.994 71.047a55.994 55.994 0 0 1-11.938 1.299c-13.89 0-27.231-5.262-38.037-14.754a45.714 45.714 0 0 1-1.893 8.174c-.23.69-.387 1.18-.461 1.457a46.046 46.046 0 0 1-2.86 7.85 46.094 46.094 0 0 1-2.131 7.758l-6.743 18.153a46.052 46.052 0 0 1-4.09 8.325 45.977 45.977 0 0 1-2.394 6.486c-.65 1.419-1.31 2.853-1.98 4.303-1.403 3.045-2.996 6.496-4.391 9.682a52.423 52.423 0 0 1-5.887 10.163 46.227 46.227 0 0 1-3.62 7.808l-9.75 16.734a46.132 46.132 0 0 1-5.25 7.273 46.351 46.351 0 0 1-3.503 6.033l-10.743 15.635a46.066 46.066 0 0 1-7.337 8.315c-2.453 4.394-5.571 8.63-9.277 12.609-1.746 1.873-3.468 3.778-5.173 5.664l-2.76 3.043a46.367 46.367 0 0 1-4.965 4.702c-3.142 4.743-7.11 9.117-11.802 13.01-1.233 1.025-2.893 2.608-4.815 4.44a406.943 406.943 0 0 1-3.856 3.647 46.288 46.288 0 0 1-4.391 3.608 49.561 49.561 0 0 1-5.795 6.003 2010.5 2010.5 0 0 0-9.331 8.21l-3.99 3.522a45.987 45.987 0 0 1-9.004 6.208 56.415 56.415 0 0 1-7.663 6.534c-3.338 2.368-6.594 4.586-9.743 6.73-1.216.829-2.438 1.66-3.663 2.5a45.98 45.98 0 0 1-7.151 4.018c-3.882 3.493-8.392 6.514-13.42 8.99-1.161.57-3.23 1.844-5.23 3.077a308.434 308.434 0 0 1-4.488 2.724 46.044 46.044 0 0 1-7.701 3.644 46.185 46.185 0 0 1-5.538 3.202l-18.295 8.94a46.18 46.18 0 0 1-8.18 3.075 46.195 46.195 0 0 1-7.751 3.716l-17.762 6.553a46.082 46.082 0 0 1-8.044 2.166 46.238 46.238 0 0 1-6.707 2.597c-1.283.384-2.575.779-3.875 1.178-3.623 1.109-7.728 2.366-12.062 3.525a56.539 56.539 0 0 1-9.722 1.714 46.052 46.052 0 0 1-10.123 3.009c-1.298.228-2.616.472-3.945.719l-.128.023c-4.481.832-9.563 1.774-15.18 2.452a51.392 51.392 0 0 1-5.488.36c-6.743 2.465-14.145 3.634-22.017 3.485-2.384-.047-5.057-.034-7.644-.022l-1.296.008c-.958.008-1.938.018-2.944.009-4.86 1.372-10.05 2.067-15.438 2.067" fill="#1d1d1b"/></g></g></svg>