<svg xmlns="http://www.w3.org/2000/svg" width="1204.647" height="1069" viewBox="0 0 903.485 801.75"><g data-name="Capa 1"><clipPath id="a"><path transform="matrix(1 0 0 -1 0 801.75)" d="M0 801.75h903.485V0H0z"/></clipPath><g clip-path="url(#a)"><path d="M58.314 407.63h2.335c2.918 16.927 4.377 34.437 5.836 51.948.876 10.506-1.46 13.425-2.626 20.429-1.167-24.223-2.043-48.446-5.545-72.377m-14.592-56.91c1.459-1.458 4.378-1.458 4.669 1.169 1.459 6.128 2.919 12.257 4.086 18.385 1.459.292 3.21.292 4.669.584.293-1.46 1.168-3.211 2.627-4.378 8.755-5.545 18.386 2.335 25.099 7.88 9.339 1.167 18.969 2.335 28.308 3.502-22.472-15.467-45.82-28.016-70.918-33.853.293 1.459.584 3.21.876 4.669.292.584.292 1.459.584 2.043m117.028 48.738c-.583 5.544-6.128 10.506-10.798 9.922-13.717-.876-27.433-2.043-41.15-3.21 7.88 11.673 14.885 23.639 21.013 36.188 7.88 16.635 18.094 35.02 15.759 53.99-.875 6.422-7.587 7.88-12.55 5.838-2.625.292-5.252.292-7.878-.875-.292 0-.584 0-.584-.293-.875.876-2.627 1.46-3.794.876-5.253-13.717-11.09-27.433-16.927-40.858-3.21-7.588-11.09-26.85-16.635-37.648-1.46-3.21-2.918-6.128-4.67-9.047v-.291a122.735 122.735 0 0 1-4.96-8.172c-7.588-.292-15.468-.876-23.056-1.167 1.459 13.132 2.626 26.557 3.21 39.982.876 14.3 2.335 29.184 1.459 43.484.292 1.752.292 3.502.292 4.962-1.751 3.502-3.794 6.42-6.712 8.755-3.794 3.21-9.631 3.502-13.133-.583-.875-1.46-1.46-2.92-1.751-4.67-2.335.584-5.253-1.46-5.253-4.67-1.46-6.128-.876-13.133-1.46-19.553l-2.626-19.262-7.004-41.15c-.584-3.502-1.168-6.712-1.751-10.214H18.04c0-.875-.584-1.751-1.752-2.043-3.21-.875-6.42-2.043-9.63-3.21 2.335-.292 4.378-.584 6.712-.876-2.918-1.167-6.128-2.918-8.755-4.67-8.171-5.252-4.67-19.844 4.086-19.844 1.75-.292 3.502-.292 5.253-.292-2.043-9.923-4.086-20.137-6.421-30.06 2.335-1.751 4.378-3.793 6.129-6.42-5.545-4.67-8.755-12.841-5.545-19.554 5.545-10.798 23.056-7.004 32.686-5.253 1.168 0 2.043.584 2.627 1.167 2.043.876 4.086 1.46 6.129 2.336.29 0 .583.29.875.29 32.102 10.216 60.995 30.06 89.595 49.323 2.335 1.75 3.502 4.085 4.086 6.42 4.086 2.919 8.172 6.129 11.966 9.047 4.669 3.502 6.42 8.755 5.545 15.176l-.876 6.129M235.747 349.553c-.875-2.043-1.751-4.378-2.918-6.42-.292-.292-.876-.584-1.168-.584h-1.46c-1.75 3.21-2.918 7.004-3.793 9.922-3.21 10.507-5.837 21.305-7.296 32.395-2.627 21.597-2.334 44.068 1.168 65.664.583 3.21.29 6.13-1.168 8.756-8.171-37.94-7.588-80.84 9.047-115.86-1.751 1.166-2.92 3.501-4.086 5.543-5.545 10.798-9.338 22.764-11.673 34.73-.292.584-.292.875-.584 1.167-1.167 6.713-1.751 13.425-2.335 20.137-.875 19.845 1.46 39.691 5.837 58.66-.876.584-2.043 1.168-3.21 1.46-3.502.875-7.588 0-10.506-2.044.29 0 .29 0 .29.293 4.67 9.63 14.886 21.596 27.434 17.802 3.503-1.168 6.129-3.794 7.88-7.004 1.752-3.21 3.21-6.42 4.086-9.923 4.962-13.717 6.712-28.308 6.712-42.609-1.167-14.592-2.043-29.476-4.377-43.776-.876-4.378-1.46-8.755-2.335-12.84-1.751-5.255-3.502-10.508-5.545-15.469m30.35 131.913c-3.21 4.377-6.711 8.463-10.797 11.965-5.544 5.545-12.257 9.34-20.428 10.506a52.883 52.883 0 0 1-9.632 0c-9.63 1.752-20.428-1.75-28.308-8.17-13.716-11.675-19.553-29.185-22.472-46.404-5.836-37.356-.583-75.879 18.97-108.565.292 0 .292-.292.584-.584 2.918-7.587 6.712-14.592 11.673-21.012.292-.584.876-.292.584.291-1.751 2.92-3.502 5.838-4.67 8.756-1.458 3.21-2.626 6.421-3.794 9.631.876-.292 1.752 0 2.336 0 4.96-10.799 11.965-19.846 21.304-21.888 3.793-1.46 7.588-2.627 11.382-2.336 4.086-.875 9.047-.875 12.549 1.168 3.794 2.335 6.712 7.296 8.755 11.09 2.335-.876 5.253-.292 6.712 2.335 4.086 7.88 8.172 16.051 11.09 24.515 2.627 8.755 4.378 17.802 5.838 26.557 2.918 18.094 4.085 36.188 2.042 54.575-1.46 16.051-4.085 33.853-13.717 47.57M414.057 427.183c-8.756-11.674-18.678-22.763-29.768-32.394-11.09-10.215-22.764-18.678-36.481-26.558-1.75-.875-3.502-1.75-5.544-2.918 4.96 24.223 9.339 48.737 13.424 72.96 1.459 8.755 3.21 17.511 4.67 26.266 9.047 3.21 18.386 6.13 28.017 8.172 7.587 1.75 11.382 2.334 18.969 2.626 7.005 0 11.382 0 17.51-1.75 4.962-1.169 9.048-2.628 12.258-5.546-.583-3.794-2.335-7.004-4.086-10.506-1.75-3.502-3.502-7.297-5.545-10.507-4.377-6.712-8.755-13.424-13.424-19.845m-112.943-70.625c4.96 20.137 9.047 40.274 14.3 60.411 2.627 10.506 5.254 20.721 7.88 31.227 1.75.875 3.502 2.042 5.253 2.918-1.751-4.96-3.502-9.922-4.67-14.884-3.793-13.716-16.343-65.664-20.136-78.213-.292-1.168-3.503-5.545-2.627-1.459m126.367 145.63c-15.175 3.501-30.351 2.917-45.82.582-7.295-1.167-14.591-2.626-21.595-4.378-1.167 2.627-3.21 4.67-5.545 5.254-1.46.291-2.918 0-4.086-.584-1.167 1.168-2.627 2.043-4.67 2.043-3.793.292-7.88-.292-10.797-2.335-6.421-4.378-8.464-9.047-9.923-16.05-9.34-3.795-18.386-7.88-27.433-12.55-8.463-4.67-11.09-16.052-6.13-24.223 4.67-8.172 15.76-11.09 23.932-6.42.292.291.876.583 1.168.875-.584-3.503-1.168-6.712-2.043-10.215-6.421-32.686-13.133-65.08-19.846-97.475-.291-1.167-.875-2.335-1.167-3.21-1.751-5.837 2.626-10.798 7.88-11.673 1.459-.293 2.918-.584 4.085-.584 2.627-7.588 16.052-9.923 22.764-9.339 19.553 1.46 33.562 14.3 47.279 27.433 15.175 14.592 30.35 29.476 44.36 45.527 4.96 5.253 9.922 10.798 14.3 16.635 7.296 9.631 14.3 19.845 19.845 30.936 7.004 13.716 13.425 30.351 7.004 45.527-5.545 12.841-20.428 21.012-33.562 24.223M543.626 394.205c-1.167-7.296-2.626-27.141-5.545-40.566-4.669 16.344-8.17 28.017-10.798 41.734 4.086-.584 12.258-.876 16.343-1.168m7.296 38.815-22.763.292c-4.378 17.51-7.588 34.729-9.048 52.532 0 3.502-4.96 3.502-4.669 0 1.46-17.511 4.086-35.313 9.631-52.532h-2.627c-3.794 14.3-8.755 44.068-8.755 44.068l-1.75 13.133c-2.336 26.557-38.524 22.472-34.73-4.961 2.335-17.22 5.253-34.146 9.631-51.073-2.627.292-5.546.584-7.88.584.291-.584.584-1.751.291-2.626-18.677-4.67-18.677-36.481 16.052-41.734 4.086-19.261 8.755-38.231 16.343-56.325 5.253-11.382 11.09-29.476 25.974-29.768 4.961-.292 10.798 3.21 13.133 7.88 8.464.584 14.592 6.42 15.467 15.759.876 11.674 2.043 23.64 3.211 35.02.291.293.291.293.584.293.291-9.923.875-20.137 2.043-29.768.291-2.92 2.042 41.15 4.085 58.66 22.18 2.627 25.391 28.892 9.34 39.107 3.793 17.218 8.754 40.858 11.09 58.369 3.21 26.265-18.387 26.849-25.099 5.836-5.545-2.043-17.219-52.24-19.554-62.746" fill="#1d1d1b"/><path d="M721.644 427.183c-8.756-11.674-18.678-22.763-29.768-32.394-11.09-10.215-22.764-18.678-36.48-26.558-1.75-.875-3.503-1.75-5.545-2.918 4.961 24.223 9.34 48.737 13.424 72.96 1.46 8.755 3.211 17.511 4.67 26.266 9.047 3.21 18.386 6.13 28.017 8.172 7.587 1.75 11.382 2.334 18.97 2.626 7.004 0 11.381 0 17.51-1.75 4.962-1.169 9.047-2.628 12.257-5.546-.583-3.794-2.335-7.004-4.086-10.506-1.75-3.502-3.502-7.297-5.545-10.507-4.377-6.712-8.755-13.424-13.424-19.845m-112.943-70.625c4.961 20.137 9.047 40.274 14.3 60.411 2.627 10.506 5.254 20.721 7.88 31.227 1.751.875 3.502 2.042 5.253 2.918-1.75-4.96-3.502-9.922-4.669-14.884-3.794-13.716-16.344-65.664-20.137-78.213-.292-1.168-3.503-5.545-2.627-1.459m126.367 145.63c-15.175 3.501-30.35 2.917-45.819.582-7.296-1.167-14.592-2.626-21.596-4.378-1.167 2.627-3.21 4.67-5.545 5.254-1.459.291-2.918 0-4.086-.584-1.167 1.168-2.627 2.043-4.669 2.043-3.794.292-7.88-.292-10.798-2.335-6.42-4.378-8.464-9.047-9.923-16.05-9.339-3.795-18.386-7.88-27.433-12.55-8.463-4.67-11.09-16.052-6.129-24.223 4.67-8.172 15.76-11.09 23.931-6.42.292.291.876.583 1.168.875-.584-3.503-1.168-6.712-2.043-10.215-6.42-32.686-13.133-65.08-19.846-97.475-.29-1.167-.875-2.335-1.167-3.21-1.75-5.837 2.626-10.798 7.88-11.673 1.46-.293 2.918-.584 4.085-.584 2.627-7.588 16.052-9.923 22.764-9.339 19.553 1.46 33.562 14.3 47.28 27.433 15.174 14.592 30.35 29.476 44.36 45.527 4.96 5.253 9.922 10.798 14.3 16.635 7.295 9.631 14.3 19.845 19.844 30.936 7.004 13.716 13.425 30.351 7.004 45.527-5.545 12.841-20.428 21.012-33.562 24.223M851.214 394.205c-1.167-7.296-2.626-27.141-5.545-40.566-4.67 16.344-8.171 28.017-10.798 41.734 4.086-.584 12.258-.876 16.343-1.168m7.296 38.815-22.763.292c-4.378 17.51-7.588 34.729-9.048 52.532 0 3.502-4.961 3.502-4.67 0 1.46-17.511 4.087-35.313 9.632-52.532h-2.627c-3.794 14.3-8.755 44.068-8.755 44.068l-1.751 13.133c-2.335 26.557-38.523 22.472-34.73-4.961 2.336-17.22 5.254-34.146 9.632-51.073-2.627.292-5.546.584-7.88.584.29-.584.584-1.751.29-2.626-18.676-4.67-18.676-36.481 16.053-41.734 4.086-19.261 8.755-38.231 16.343-56.325 5.253-11.382 11.09-29.476 25.974-29.768 4.96-.292 10.798 3.21 13.133 7.88 8.463.584 14.592 6.42 15.467 15.759.876 11.674 2.043 23.64 3.21 35.02.292.293.292.293.585.293.29-9.923.875-20.137 2.043-29.768.29-2.92 2.042 41.15 4.085 58.66 22.18 2.627 25.39 28.892 9.339 39.107 3.794 17.218 8.755 40.858 11.09 58.369 3.21 26.265-18.386 26.849-25.098 5.836-5.545-2.043-17.22-52.24-19.554-62.746M155.056 339.082a307.893 307.893 0 0 1 9.664-27.332 37.695 37.695 0 0 1-9.31-6.23c-7.102-6.469-11.345-15.013-12.131-24.31a1033.93 1033.93 0 0 0-12.788-10.064 39.73 39.73 0 0 1-16.09-3.206 52.845 52.845 0 0 1-1.568 3.04c-1.94 3.424-2.933 6.713.209 9.993l-2.736 5.112c-3.288.18-4.987 2.12-6.021 5.072-1.524 4.351-3.228 8.643-4.907 13.014 18.736 10.037 36.327 21.871 53.56 33.484zM87.526 494.92l.413.182c-.07-.168-.138-.34-.207-.509-.068.11-.137.218-.206.327M753.362 313.624l-.212.225c-3.408 3.577-6.898 6.495-10.41 8.837a307.817 307.817 0 0 1 14.11 52.959 191.774 191.774 0 0 1 3.966 4.77c4.676-4.604 10.44-8.64 17.35-11.748 3.527-14.728 7.926-29.97 14.273-45.106.129-.304.261-.606.4-.906.565-1.225 1.136-2.54 1.731-3.902 2.094-4.8 4.571-10.444 7.968-16.073-.975-.741-2.235-1.14-3.822-1.205l-2.499-5.683c1.149-2.388 2.415-5.017 1.755-7.006-1.223-3.675-2.841-7.218-4.452-10.711a48.368 48.368 0 0 1-13.643 4.304c-10.706 13.365-19.433 23.648-26.514 31.245M731.2 592.215c.223.22.482.372.649.439.128.052.232.082.304.098.043-.012.098-.03.163-.054.225-.09.576-.297.887-.612a1.49 1.49 0 0 0 .284-.395c.109-.256.149-.45.163-.538a2.063 2.063 0 0 0-.142-.482 1.605 1.605 0 0 0-.3-.414 2.812 2.812 0 0 0-.892-.616 1.327 1.327 0 0 0-.163-.054 1.949 1.949 0 0 0-.304.098 2.446 2.446 0 0 0-.755.518 2.2 2.2 0 0 0-.461.649c-.05.12-.08.22-.099.293.015.053.037.12.068.199.091.228.295.573.598.87" fill="#1d1d1b"/><path d="M773.819 527.313a44.584 44.584 0 0 1-7.897-7.658c-6.412 3.752-13.55 6.775-21.211 8.914a307.966 307.966 0 0 1-11.162 27.965c4.276.144 8.369.95 12.184 2.415 4.378 1.681 8.259 4.13 11.54 7.28a33.703 33.703 0 0 1 7.708 11.216c1.806 4.257 2.722 8.874 2.722 13.724 0 4.865-.922 9.486-2.738 13.735a34.062 34.062 0 0 1-7.637 11.125c-3.291 3.194-7.193 5.671-11.595 7.361-4.224 1.621-8.79 2.444-13.568 2.444-4.802 0-9.395-.839-13.653-2.494-4.105-1.594-7.772-3.869-10.924-6.752a15.015 15.015 0 0 1-13.617 8.7h-3.47C633.238 694.7 546.69 738.742 451.226 737.874c-96.22.737-184.073-44.607-241.365-116.068-2.6 2.161-5.922 3.482-9.567 3.482h-7.094c-2.845 0-5.496-.806-7.765-2.18-4.365 1.805-9.147 2.726-14.223 2.726-4.804 0-9.373-.832-13.581-2.471-4.342-1.69-8.204-4.16-11.478-7.34a34.084 34.084 0 0 1-7.617-11.059c-1.825-4.231-2.752-8.875-2.752-13.795 0-4.918.927-9.562 2.755-13.803a33.947 33.947 0 0 1 7.694-11.104c3.287-3.156 7.138-5.606 11.45-7.286 3.727-1.452 7.737-2.267 11.939-2.436a307.124 307.124 0 0 1-12.253-31.3c-.47.301-.93.614-1.416.895-7.731 4.45-17.002 5.883-25.918 4.193-1.6-.016-3.41-.121-5.37-.388-5.59.504-11.293-.469-16.413-3.031a27.972 27.972 0 0 1-13.604-15.01 682.129 682.129 0 0 0-5.851-14.692c.036 1.881.165 3.87-.688 5.253-1.405 2.275-1.63 4.403-1.144 6.587 1.077 4.846 2.529 9.61 3.867 14.397.126.452.53.826.763 1.171l3.778 1.825 1.665 4.76c-3.375 3.5-2.62 7.272-1.031 11.167.938 2.299 1.893 4.641 2.397 7.056.758 3.636 2.658 5.989 6.365 6.678l2.249 5.343c-3.044 2.681-2.388 5.539-.838 8.634 1.559 3.113 3.034 6.317 4.074 9.628 1.034 3.292 2.754 5.2 5.707 4.714 3.385 3.462 3.673 6.858 1.419 10.519 2.23 4.223 4.542 8.259 6.523 12.451 1.536 3.248 3.405 5.674 7.552 5.012l3.199 5.99-2.097 4.115 10.838 16.622c4.104-.25 6.975.925 8.13 5.144-.573 2.26-1.452 4.776.64 7.229 2.479 2.904 4.71 6.023 6.996 9.087 2.005 2.688 4.322 4.605 7.796 3.462l3.27 3.606c.574 3.042.323 5.763 1.539 7.383 3.462 4.613 7.522 8.777 11.262 13.02 4.648-1.058 7.707.291 9.175 4.278.476 2.339.738 5.067 2.222 6.645 3.735 3.97 8.02 7.422 11.943 10.953l5.357-.883 3.893 3.476v4.786c5.084 5.007 10.598 9.151 16.425 12.62l3.835-1.943 4.508 3.476c.525 2.456 1.065 5.26 2.758 6.555 4.716 3.606 9.91 6.585 14.684 9.661l4.337-1.929 4.643 2.753c-.138 4.056 2.166 6.242 5.796 7.652 2.457.954 4.832 2.268 7.008 3.765 3.342 2.297 6.683 2.664 10.082.705l4.742 1.972c.549 2.821 1.28 5.487 4.025 6.669 5.163 2.224 10.407 4.261 15.692 6.406 3.193-2.17 6.403-2.988 9.96-.135-.198 3.4 2.27 4.955 5.259 5.969 3.758 1.276 7.506 2.62 11.343 3.609 1.452.375 3.36.291 4.672-.364 2.997-1.499 5.688-1.37 8.412.226l1.917 4.35c4.338 1.038 8.794 1.731 12.97 3.214 3.843 1.364 7.077 1.67 9.804-1.975l5.725 1.371 2.072 3.871c3.122.651 6.182 1.447 9.292 1.894 3.272.47 6.593.606 9.937.891 4.488-3.287 4.488-3.287 10.072-2.211l1.94 3.198c6.78 1.624 13.456 2.659 20.182 1.665l2.616-3.349h6.066l3.433 3.833c5.156 0 10.31-.036 15.466.015 2.872.028 5.418-.342 5.906-3.796l6.439-1.1 2.973 2.825c4.772 0 8.922-.063 13.069.018 4.488.087 8.262-.966 9.796-5.79h6.207c1.607 1.242 3.44 2.469 5.1 2.268 5.724-.691 11.388-1.88 16.805-2.832l2.572-4.861c2.51-.623 5.029-1.751 7.228.089 1.98 1.657 4.067 1.466 6.118.918 4.953-1.325 9.839-2.897 14.62-4.331l2.29-4.65c3.393-2.092 6.608-2.204 9.74.797l17.763-6.553c.57-1.745 1.074-3.283 1.599-4.885l5.308-2.518 4.75 2.44 18.29-8.939c.32-1.769.583-3.212.855-4.711l4.706-2.67 4.445 2.279c4.252-2.517 8.396-5.303 12.836-7.489 3.232-1.591 5.26-3.397 4.23-6.918 3.013-3.73 6.606-4.054 10.642-2.754 4.322-2.965 8.598-5.827 12.793-8.804 2.266-1.609 4.07-3.539 2.186-6.692l5.349-3.955 5.336.913c4.316-3.805 8.895-7.869 13.507-11.895 1.898-1.656 1.019-3.503.126-5.221l5.15-4.346 3.812.946c3.777-3.515 7.055-6.84 10.629-9.807 3.049-2.531 5-5.249 3.536-9.315l3.683-4.349 4.905.387c2.722-2.991 5.479-6.08 8.3-9.108 2.844-3.051 4.983-6.301 3.366-10.722l3.16-4.446 5.832-.451 10.74-15.632a9089.6 9089.6 0 0 1-1.57-5.272l3.305-4.566 5.187-.576 9.75-16.734-2.236-4.036 2.94-5.512c2.716-.186 5.16-.866 6.416-3.729 2.185-4.987 4.506-9.914 6.668-14.646-2.137-4.295-1.721-8.85.957-10.742.45-.053 1.113-.078 1.75-.221.775-.174 1.528-.448 2.492-.74l6.74-18.148-2.947-4.021 1.822-5.262 4.767-2.069a70.487 70.487 0 0 1 1.273-4.186 45.307 45.307 0 0 1-35.482-8.316M492.766 170.38l-35.038 206.075a58.318 58.318 0 0 1 5.3-3.753l32.277-202.983c-.85.22-1.697.438-2.54.661" fill="#1d1d1b"/><path d="m255.888 557.05 56.485-36.656a49.341 49.341 0 0 1-2.417-2.462L251.07 557.05zM453.991 557.05l.108-35.093a87.907 87.907 0 0 1-4.154 2.001l.254 33.092zM713.856 557.413c1.534.342 3 .915 4.344 1.702.084-.033.165-.07.25-.104a35.44 35.44 0 0 1 3.18-1.07 295.892 295.892 0 0 0 11.466-26.902 124.08 124.08 0 0 1-8.048 1.023 291.19 291.19 0 0 1-11.192 25.351M498.798 557.05l-7.03-20.684a45.028 45.028 0 0 1-4.308-.377l7.411 21.061zM734.53 351.102a530.416 530.416 0 0 1 9.983 10.81 296.953 296.953 0 0 0-9.93-34.822 42.564 42.564 0 0 1-6.83 2.23 290.315 290.315 0 0 1 6.778 21.782M555.798 557.05l-28.17-36.423a44.463 44.463 0 0 1-2.675 2.898l26.51 33.525zM409.475 556.797l8.6-24.8c-1.437.142-2.883.26-4.343.355l-8.092 24.174c1.295.03 2.575.119 3.835.27M350.27 560.647l24.08-30.743c-1.417-.24-2.824-.49-4.223-.748l-22.676 29.6a15.066 15.066 0 0 1 2.818 1.891M584.189 302.177c.318.428.652.843.956 1.284a38.191 38.191 0 0 1 8.616-5.8l44.373-41.48a42.96 42.96 0 0 1-1.582-1.911zM410.652 191.568l28.255 172.587c.565.638 1.14 1.265 1.7 1.906a336.541 336.541 0 0 1 3.951 4.267L413.353 191.76a42.517 42.517 0 0 1-2.7-.193M655.133 557.453l-44.194-29.067a37.343 37.343 0 0 1-2.479 2.17l43.572 27.992a14.937 14.937 0 0 1 3.101-1.095M667.085 625.215a295.034 295.034 0 0 1-34.094 31.643L607.887 624.4c-.845.25-1.733.466-2.652.657l26.144 33.063c-24.752 19.293-52.672 34.693-82.834 45.298l-26.476-77.899a37.674 37.674 0 0 1-3.305-.57l27.85 79.15c-29.241 10.051-60.56 15.588-93.122 15.79l.29-94.6h-3.06l.724 94.621c-32.582-.022-63.935-5.393-93.23-15.278l28.828-83.143c-.117-.063-.24-.117-.356-.18a15.18 15.18 0 0 1-3.547 2.427l-26.857 80.225c-30.244-10.443-58.254-25.71-83.117-44.877l27.29-34.84c-.441-.124-.88-.25-1.316-.388a44.085 44.085 0 0 1-1.242-.419l-26.355 34.402a295.155 295.155 0 0 1-35.481-32.778c-2.5.51-5.098.773-7.781.773-.403 0-.802-.014-1.202-.026a305.842 305.842 0 0 0 12.488 13.284c56.648 56.647 131.964 87.845 212.077 87.845 80.112 0 155.429-31.198 212.077-87.845a305.606 305.606 0 0 0 15.097-16.233 14.991 14.991 0 0 1-2.5-2.018 14.975 14.975 0 0 1-9.234 4.375M391.557 443.804a215.365 215.365 0 0 0-2.507-3.263l-4.366 1.14.248 1.382c2.143.599 4.197 1.118 6.212 1.594l.87-.218-.457-.635M331.262 207.932l55.779 103.831c2.78 2.533 5.387 5.026 7.837 7.371l1.139 1.1-62.136-112.748c-.87.165-1.744.311-2.62.446M174.677 315.618a37.112 37.112 0 0 1-1.473-.444 295.9 295.9 0 0 0-4.998 13.369c.392-.676.773-1.357 1.174-2.028a113.168 113.168 0 0 1 5.297-10.897M258.454 251.273l41.467 38.409a53.528 53.528 0 0 1 2.999-1.323l-42.628-38.643c-.624.524-1.234 1.042-1.838 1.557M571.405 203.784c-.373.102-.749.179-1.123.27l-39.82 73.043a46.093 46.093 0 0 1 4.033-.394l38.792-73.014c-.625.047-1.252.08-1.882.095M189.491 557.527a290.592 290.592 0 0 1-18.864-47.897 35.164 35.164 0 0 1-4.961 8.188 295.996 295.996 0 0 0 15.977 40.088c1.302.367 2.579.797 3.82 1.307a15.075 15.075 0 0 1 4.028-1.686M171.21 610.812c-2.945 0-5.655-.482-8.13-1.446-2.473-.963-4.628-2.337-6.464-4.12a19.086 19.086 0 0 1-4.283-6.22c-1.02-2.363-1.528-4.983-1.528-7.857 0-2.873.509-5.491 1.528-7.857a18.925 18.925 0 0 1 4.31-6.22c1.855-1.781 4.019-3.155 6.493-4.12 2.473-.962 5.183-1.445 8.13-1.445 3.128 0 5.983.537 8.566 1.61a16.974 16.974 0 0 1 6.548 4.774l-4.583 4.31c-1.42-1.491-2.983-2.61-4.692-3.355-1.711-.745-3.547-1.12-5.512-1.12-2 0-3.828.329-5.484.983a12.765 12.765 0 0 0-4.31 2.783 12.973 12.973 0 0 0-2.864 4.256c-.692 1.637-1.037 3.438-1.037 5.4 0 1.966.345 3.767 1.037 5.403a12.973 12.973 0 0 0 2.864 4.256c1.219 1.2 2.655 2.128 4.31 2.783 1.656.655 3.484.982 5.484.982 1.965 0 3.8-.372 5.512-1.118 1.709-.745 3.273-1.883 4.692-3.411l4.583 4.31c-1.783 2.11-3.965 3.71-6.548 4.802-2.583 1.092-5.456 1.637-8.621 1.637M193.199 572.072h7.094v38.194h-7.094zM228.282 610.812c-2.946 0-5.656-.482-8.13-1.446-2.474-.963-4.629-2.337-6.465-4.12a19.086 19.086 0 0 1-4.283-6.22c-1.019-2.363-1.528-4.983-1.528-7.857 0-2.873.509-5.491 1.528-7.857a18.925 18.925 0 0 1 4.31-6.22c1.855-1.781 4.019-3.155 6.493-4.12 2.473-.962 5.183-1.445 8.13-1.445 3.128 0 5.983.537 8.566 1.61a16.974 16.974 0 0 1 6.548 4.774l-4.583 4.31c-1.419-1.491-2.983-2.61-4.692-3.355-1.711-.745-3.547-1.12-5.512-1.12-2 0-3.828.329-5.484.983a12.765 12.765 0 0 0-4.31 2.783 12.973 12.973 0 0 0-2.864 4.256c-.692 1.637-1.037 3.438-1.037 5.4 0 1.966.345 3.767 1.037 5.403a12.973 12.973 0 0 0 2.864 4.256c1.219 1.2 2.655 2.128 4.31 2.783 1.656.655 3.484.982 5.484.982 1.965 0 3.801-.372 5.512-1.118 1.709-.745 3.273-1.883 4.692-3.411l4.583 4.31c-1.783 2.11-3.965 3.71-6.548 4.802-2.583 1.092-5.456 1.637-8.621 1.637M250.27 610.266v-38.194h7.094v32.192h19.97v6.002zM282.954 572.072h7.093v38.194h-7.093zM312.199 610.812c-2.983 0-5.83-.428-8.539-1.282-2.711-.854-4.884-1.955-6.521-3.301l2.456-5.511c1.527 1.2 3.418 2.2 5.674 3 2.255.802 4.565 1.2 6.93 1.2 2 0 3.618-.217 4.855-.653 1.237-.437 2.147-1.028 2.729-1.774a4.018 4.018 0 0 0 .873-2.537c0-1.163-.419-2.1-1.255-2.81-.838-.71-1.919-1.272-3.247-1.691a48.689 48.689 0 0 0-4.419-1.146 52.648 52.648 0 0 1-4.856-1.282 21.838 21.838 0 0 1-4.448-1.937 9.257 9.257 0 0 1-3.246-3.138c-.818-1.31-1.227-2.982-1.227-5.02 0-2.073.553-3.973 1.664-5.701 1.109-1.728 2.801-3.11 5.074-4.147 2.274-1.037 5.156-1.555 8.649-1.555 2.292 0 4.564.29 6.82.873 2.255.582 4.219 1.419 5.892 2.51l-2.237 5.51a21.054 21.054 0 0 0-5.292-2.264c-1.819-.49-3.565-.736-5.238-.736-1.929 0-3.511.237-4.747.709-1.238.473-2.138 1.1-2.701 1.883a4.324 4.324 0 0 0-.846 2.59c0 1.166.409 2.102 1.228 2.81.819.71 1.891 1.266 3.219 1.666 1.327.4 2.81.782 4.447 1.145 1.637.364 3.255.79 4.856 1.282 1.6.492 3.073 1.128 4.42 1.91a9.347 9.347 0 0 1 3.246 3.11c.818 1.292 1.227 2.938 1.227 4.938 0 2.038-.554 3.92-1.664 5.647-1.109 1.728-2.809 3.11-5.101 4.147-2.291 1.037-5.184 1.555-8.675 1.555M334.678 610.266v-38.194h5.839l16.695 27.881h-3.055l16.423-27.88h5.839l.11 38.193h-6.822v-27.664h1.365l-13.86 23.353h-3.219l-14.185-23.353h1.637v27.664zM404.681 604.592c1.928 0 3.701-.328 5.32-.982a12.584 12.584 0 0 0 4.23-2.783c1.2-1.2 2.136-2.62 2.808-4.256.673-1.637 1.01-3.437 1.01-5.402 0-1.964-.327-3.764-.982-5.401a12.333 12.333 0 0 0-2.81-4.256 12.89 12.89 0 0 0-4.256-2.783c-1.619-.655-3.392-.982-5.32-.982-1.928 0-3.72.327-5.374.982-1.655.655-3.083 1.592-4.283 2.81a13.627 13.627 0 0 0-2.837 4.256c-.692 1.619-1.037 3.41-1.037 5.374 0 1.929.345 3.71 1.037 5.347a13.526 13.526 0 0 0 2.837 4.284c1.2 1.219 2.628 2.155 4.283 2.81 1.654.654 3.446.982 5.374.982m0 6.22c-2.946 0-5.684-.491-8.21-1.473-2.53-.982-4.72-2.364-6.576-4.147a18.828 18.828 0 0 1-4.31-6.247c-1.019-2.382-1.528-4.974-1.528-7.776 0-2.837.51-5.447 1.527-7.83a18.552 18.552 0 0 1 4.311-6.22c1.855-1.763 4.038-3.137 6.548-4.12 2.51-.981 5.256-1.472 8.238-1.472 2.946 0 5.675.482 8.185 1.446 2.51.964 4.683 2.328 6.52 4.092a18.682 18.682 0 0 1 4.283 6.247c1.018 2.4 1.528 5.02 1.528 7.857 0 2.838-.51 5.448-1.528 7.83a19.03 19.03 0 0 1-4.283 6.247c-1.837 1.783-4.01 3.157-6.52 4.12-2.51.963-5.239 1.446-8.185 1.446M447.785 572.072h7.094v38.194h-7.094zM465.19 610.266v-38.194h5.838l23.953 29.464h-2.892v-29.464h6.984v38.194h-5.838l-23.899-29.464h2.892v29.464zM527.064 610.812c-2.946 0-5.657-.482-8.13-1.446-2.474-.963-4.63-2.337-6.466-4.12a19.101 19.101 0 0 1-4.283-6.22c-1.018-2.363-1.527-4.983-1.527-7.857 0-2.873.51-5.491 1.527-7.857a18.913 18.913 0 0 1 4.311-6.22c1.855-1.781 4.018-3.155 6.493-4.12 2.472-.962 5.183-1.445 8.13-1.445 3.128 0 5.983.537 8.566 1.61 2.582 1.073 4.765 2.665 6.547 4.774l-4.583 4.31c-1.419-1.491-2.983-2.61-4.692-3.355-1.71-.745-3.547-1.12-5.51-1.12-2.002 0-3.83.329-5.485.983a12.745 12.745 0 0 0-4.31 2.783 12.973 12.973 0 0 0-2.864 4.256c-.692 1.637-1.037 3.438-1.037 5.4 0 1.966.345 3.767 1.037 5.403a12.973 12.973 0 0 0 2.864 4.256c1.218 1.2 2.654 2.128 4.31 2.783 1.655.655 3.483.982 5.484.982 1.964 0 3.801-.372 5.511-1.118 1.71-.745 3.273-1.883 4.692-3.411l4.583 4.31c-1.782 2.11-3.965 3.71-6.547 4.802-2.583 1.092-5.457 1.637-8.62 1.637M549.053 610.266v-38.194h7.092v32.192h19.97v6.002zM597.558 610.812c-5.202 0-9.284-1.473-12.249-4.42-2.965-2.946-4.446-7.22-4.446-12.822v-21.497h7.092v21.279c0 3.929.846 6.785 2.538 8.566 1.691 1.783 4.083 2.674 7.174 2.674 3.092 0 5.475-.891 7.148-2.674 1.673-1.781 2.511-4.637 2.511-8.566v-21.28h6.983v21.498c0 5.602-1.482 9.876-4.446 12.823-2.966 2.946-7.067 4.419-12.305 4.419M636.08 610.812c-2.983 0-5.83-.428-8.54-1.282-2.71-.854-4.883-1.955-6.52-3.301l2.456-5.511c1.528 1.2 3.418 2.2 5.674 3 2.255.802 4.565 1.2 6.93 1.2 2 0 3.619-.217 4.856-.653 1.237-.437 2.146-1.028 2.728-1.774a4.012 4.012 0 0 0 .873-2.537c0-1.163-.418-2.1-1.255-2.81s-1.92-1.272-3.246-1.691a48.715 48.715 0 0 0-4.42-1.146 52.648 52.648 0 0 1-4.856-1.282 21.853 21.853 0 0 1-4.447-1.937 9.26 9.26 0 0 1-3.247-3.138c-.818-1.31-1.227-2.982-1.227-5.02 0-2.073.554-3.973 1.664-5.701 1.109-1.728 2.8-3.11 5.075-4.147 2.273-1.037 5.156-1.555 8.648-1.555 2.292 0 4.564.29 6.82.873 2.256.582 4.22 1.419 5.893 2.51l-2.237 5.51a21.06 21.06 0 0 0-5.293-2.264c-1.82-.49-3.565-.736-5.238-.736-1.928 0-3.511.237-4.746.709-1.238.473-2.138 1.1-2.701 1.883a4.324 4.324 0 0 0-.846 2.59c0 1.166.409 2.102 1.227 2.81.819.71 1.89 1.266 3.219 1.666 1.328.4 2.81.782 4.447 1.145 1.637.364 3.255.79 4.857 1.282a21.136 21.136 0 0 1 4.419 1.91 9.341 9.341 0 0 1 3.247 3.11c.818 1.292 1.227 2.938 1.227 4.938 0 2.038-.554 3.92-1.664 5.647-1.11 1.728-2.81 3.11-5.101 4.147-2.292 1.037-5.184 1.555-8.676 1.555M658.559 572.072h7.094v38.194h-7.094zM686.986 610.266l-16.696-38.194h7.693l14.897 34.538h-4.475l15.17-34.538h7.037l-16.642 38.194zM732.165 604.592c1.928 0 3.7-.328 5.319-.982a12.598 12.598 0 0 0 4.23-2.783c1.2-1.2 2.136-2.62 2.809-4.256.673-1.637 1.01-3.437 1.01-5.402 0-1.964-.328-3.764-.982-5.401a12.336 12.336 0 0 0-2.811-4.256 12.89 12.89 0 0 0-4.256-2.783c-1.618-.655-3.391-.982-5.32-.982-1.928 0-3.72.327-5.374.982-1.655.655-3.082 1.592-4.283 2.81a13.627 13.627 0 0 0-2.837 4.256c-.692 1.619-1.036 3.41-1.036 5.374 0 1.929.344 3.71 1.036 5.347a13.526 13.526 0 0 0 2.837 4.284c1.2 1.219 2.628 2.155 4.283 2.81 1.655.654 3.446.982 5.375.982m0 6.22c-2.946 0-5.684-.491-8.212-1.473-2.528-.982-4.72-2.364-6.575-4.147a18.84 18.84 0 0 1-4.31-6.247c-1.02-2.382-1.528-4.974-1.528-7.776 0-2.837.509-5.447 1.528-7.83a18.564 18.564 0 0 1 4.31-6.22c1.855-1.763 4.038-3.137 6.548-4.12 2.51-.981 5.256-1.472 8.239-1.472 2.946 0 5.675.482 8.185 1.446 2.509.964 4.682 2.328 6.519 4.092a18.668 18.668 0 0 1 4.283 6.247c1.019 2.4 1.529 5.02 1.529 7.857 0 2.838-.51 5.448-1.53 7.83a19.014 19.014 0 0 1-4.282 6.247c-1.837 1.783-4.01 3.157-6.52 4.12-2.51.963-5.238 1.446-8.184 1.446" fill="#1d1d1b"/><path d="M171.21 610.812c-2.945 0-5.655-.482-8.13-1.446-2.473-.963-4.628-2.337-6.464-4.12a19.086 19.086 0 0 1-4.283-6.22c-1.02-2.363-1.528-4.983-1.528-7.857 0-2.873.509-5.491 1.528-7.857a18.925 18.925 0 0 1 4.31-6.22c1.855-1.781 4.019-3.155 6.493-4.12 2.473-.962 5.183-1.445 8.13-1.445 3.128 0 5.983.537 8.566 1.61a16.974 16.974 0 0 1 6.548 4.774l-4.583 4.31c-1.42-1.491-2.983-2.61-4.692-3.355-1.711-.745-3.547-1.12-5.512-1.12-2 0-3.828.329-5.484.983a12.765 12.765 0 0 0-4.31 2.783 12.973 12.973 0 0 0-2.864 4.256c-.692 1.637-1.037 3.438-1.037 5.4 0 1.966.345 3.767 1.037 5.403a12.973 12.973 0 0 0 2.864 4.256c1.219 1.2 2.655 2.128 4.31 2.783 1.656.655 3.484.982 5.484.982 1.965 0 3.8-.372 5.512-1.118 1.709-.745 3.273-1.883 4.692-3.411l4.583 4.31c-1.783 2.11-3.965 3.71-6.548 4.802-2.583 1.092-5.456 1.637-8.621 1.637M193.199 572.072h7.094v38.194h-7.094zM228.282 610.812c-2.946 0-5.656-.482-8.13-1.446-2.474-.963-4.629-2.337-6.465-4.12a19.086 19.086 0 0 1-4.283-6.22c-1.019-2.363-1.528-4.983-1.528-7.857 0-2.873.509-5.491 1.528-7.857a18.925 18.925 0 0 1 4.31-6.22c1.855-1.781 4.019-3.155 6.493-4.12 2.473-.962 5.183-1.445 8.13-1.445 3.128 0 5.983.537 8.566 1.61a16.974 16.974 0 0 1 6.548 4.774l-4.583 4.31c-1.419-1.491-2.983-2.61-4.692-3.355-1.711-.745-3.547-1.12-5.512-1.12-2 0-3.828.329-5.484.983a12.765 12.765 0 0 0-4.31 2.783 12.973 12.973 0 0 0-2.864 4.256c-.692 1.637-1.037 3.438-1.037 5.4 0 1.966.345 3.767 1.037 5.403a12.973 12.973 0 0 0 2.864 4.256c1.219 1.2 2.655 2.128 4.31 2.783 1.656.655 3.484.982 5.484.982 1.965 0 3.801-.372 5.512-1.118 1.709-.745 3.273-1.883 4.692-3.411l4.583 4.31c-1.783 2.11-3.965 3.71-6.548 4.802-2.583 1.092-5.456 1.637-8.621 1.637M250.27 610.266v-38.194h7.094v32.192h19.97v6.002zM282.954 572.072h7.093v38.194h-7.093zM312.199 610.812c-2.983 0-5.83-.428-8.539-1.282-2.711-.854-4.884-1.955-6.521-3.301l2.456-5.511c1.527 1.2 3.418 2.2 5.674 3 2.255.802 4.565 1.2 6.93 1.2 2 0 3.618-.217 4.855-.653 1.237-.437 2.147-1.028 2.729-1.774a4.018 4.018 0 0 0 .873-2.537c0-1.163-.419-2.1-1.255-2.81-.838-.71-1.919-1.272-3.247-1.691a48.689 48.689 0 0 0-4.419-1.146 52.648 52.648 0 0 1-4.856-1.282 21.838 21.838 0 0 1-4.448-1.937 9.257 9.257 0 0 1-3.246-3.138c-.818-1.31-1.227-2.982-1.227-5.02 0-2.073.553-3.973 1.664-5.701 1.109-1.728 2.801-3.11 5.074-4.147 2.274-1.037 5.156-1.555 8.649-1.555 2.292 0 4.564.29 6.82.873 2.255.582 4.219 1.419 5.892 2.51l-2.237 5.51a21.054 21.054 0 0 0-5.292-2.264c-1.819-.49-3.565-.736-5.238-.736-1.929 0-3.511.237-4.747.709-1.238.473-2.138 1.1-2.701 1.883a4.324 4.324 0 0 0-.846 2.59c0 1.166.409 2.102 1.228 2.81.819.71 1.891 1.266 3.219 1.666 1.327.4 2.81.782 4.447 1.145 1.637.364 3.255.79 4.856 1.282 1.6.492 3.073 1.128 4.42 1.91a9.347 9.347 0 0 1 3.246 3.11c.818 1.292 1.227 2.938 1.227 4.938 0 2.038-.554 3.92-1.664 5.647-1.109 1.728-2.809 3.11-5.101 4.147-2.291 1.037-5.184 1.555-8.675 1.555M334.678 610.266v-38.194h5.839l16.695 27.881h-3.055l16.423-27.88h5.839l.11 38.193h-6.822v-27.664h1.365l-13.86 23.353h-3.219l-14.185-23.353h1.637v27.664zM404.681 604.592c1.928 0 3.701-.328 5.32-.982a12.584 12.584 0 0 0 4.23-2.783c1.2-1.2 2.136-2.62 2.808-4.256.673-1.637 1.01-3.437 1.01-5.402 0-1.964-.327-3.764-.982-5.401a12.333 12.333 0 0 0-2.81-4.256 12.89 12.89 0 0 0-4.256-2.783c-1.619-.655-3.392-.982-5.32-.982-1.928 0-3.72.327-5.374.982-1.655.655-3.083 1.592-4.283 2.81a13.627 13.627 0 0 0-2.837 4.256c-.692 1.619-1.037 3.41-1.037 5.374 0 1.929.345 3.71 1.037 5.347a13.526 13.526 0 0 0 2.837 4.284c1.2 1.219 2.628 2.155 4.283 2.81 1.654.654 3.446.982 5.374.982m0 6.22c-2.946 0-5.684-.491-8.21-1.473-2.53-.982-4.72-2.364-6.576-4.147a18.828 18.828 0 0 1-4.31-6.247c-1.019-2.382-1.528-4.974-1.528-7.776 0-2.837.51-5.447 1.527-7.83a18.552 18.552 0 0 1 4.311-6.22c1.855-1.763 4.038-3.137 6.548-4.12 2.51-.981 5.256-1.472 8.238-1.472 2.946 0 5.675.482 8.185 1.446 2.51.964 4.683 2.328 6.52 4.092a18.682 18.682 0 0 1 4.283 6.247c1.018 2.4 1.528 5.02 1.528 7.857 0 2.838-.51 5.448-1.528 7.83a19.03 19.03 0 0 1-4.283 6.247c-1.837 1.783-4.01 3.157-6.52 4.12-2.51.963-5.239 1.446-8.185 1.446M447.785 572.072h7.094v38.194h-7.094zM465.19 610.266v-38.194h5.838l23.953 29.464h-2.892v-29.464h6.984v38.194h-5.838l-23.899-29.464h2.892v29.464zM527.064 610.812c-2.946 0-5.657-.482-8.13-1.446-2.474-.963-4.63-2.337-6.466-4.12a19.101 19.101 0 0 1-4.283-6.22c-1.018-2.363-1.527-4.983-1.527-7.857 0-2.873.51-5.491 1.527-7.857a18.913 18.913 0 0 1 4.311-6.22c1.855-1.781 4.018-3.155 6.493-4.12 2.472-.962 5.183-1.445 8.13-1.445 3.128 0 5.983.537 8.566 1.61 2.582 1.073 4.765 2.665 6.547 4.774l-4.583 4.31c-1.419-1.491-2.983-2.61-4.692-3.355-1.71-.745-3.547-1.12-5.51-1.12-2.002 0-3.83.329-5.485.983a12.745 12.745 0 0 0-4.31 2.783 12.973 12.973 0 0 0-2.864 4.256c-.692 1.637-1.037 3.438-1.037 5.4 0 1.966.345 3.767 1.037 5.403a12.973 12.973 0 0 0 2.864 4.256c1.218 1.2 2.654 2.128 4.31 2.783 1.655.655 3.483.982 5.484.982 1.964 0 3.801-.372 5.511-1.118 1.71-.745 3.273-1.883 4.692-3.411l4.583 4.31c-1.782 2.11-3.965 3.71-6.547 4.802-2.583 1.092-5.457 1.637-8.62 1.637M549.053 610.266v-38.194h7.092v32.192h19.97v6.002zM597.558 610.812c-5.202 0-9.284-1.473-12.249-4.42-2.965-2.946-4.446-7.22-4.446-12.822v-21.497h7.092v21.279c0 3.929.846 6.785 2.538 8.566 1.691 1.783 4.083 2.674 7.174 2.674 3.092 0 5.475-.891 7.148-2.674 1.673-1.781 2.511-4.637 2.511-8.566v-21.28h6.983v21.498c0 5.602-1.482 9.876-4.446 12.823-2.966 2.946-7.067 4.419-12.305 4.419M636.08 610.812c-2.983 0-5.83-.428-8.54-1.282-2.71-.854-4.883-1.955-6.52-3.301l2.456-5.511c1.528 1.2 3.418 2.2 5.674 3 2.255.802 4.565 1.2 6.93 1.2 2 0 3.619-.217 4.856-.653 1.237-.437 2.146-1.028 2.728-1.774a4.012 4.012 0 0 0 .873-2.537c0-1.163-.418-2.1-1.255-2.81s-1.92-1.272-3.246-1.691a48.715 48.715 0 0 0-4.42-1.146 52.648 52.648 0 0 1-4.856-1.282 21.853 21.853 0 0 1-4.447-1.937 9.26 9.26 0 0 1-3.247-3.138c-.818-1.31-1.227-2.982-1.227-5.02 0-2.073.554-3.973 1.664-5.701 1.109-1.728 2.8-3.11 5.075-4.147 2.273-1.037 5.156-1.555 8.648-1.555 2.292 0 4.564.29 6.82.873 2.256.582 4.22 1.419 5.893 2.51l-2.237 5.51a21.06 21.06 0 0 0-5.293-2.264c-1.82-.49-3.565-.736-5.238-.736-1.928 0-3.511.237-4.746.709-1.238.473-2.138 1.1-2.701 1.883a4.324 4.324 0 0 0-.846 2.59c0 1.166.409 2.102 1.227 2.81.819.71 1.89 1.266 3.219 1.666 1.328.4 2.81.782 4.447 1.145 1.637.364 3.255.79 4.857 1.282a21.136 21.136 0 0 1 4.419 1.91 9.341 9.341 0 0 1 3.247 3.11c.818 1.292 1.227 2.938 1.227 4.938 0 2.038-.554 3.92-1.664 5.647-1.11 1.728-2.81 3.11-5.101 4.147-2.292 1.037-5.184 1.555-8.676 1.555M658.559 572.072h7.094v38.194h-7.094zM686.986 610.266l-16.696-38.194h7.693l14.897 34.538h-4.475l15.17-34.538h7.037l-16.642 38.194zM732.165 604.592c1.928 0 3.7-.328 5.319-.982a12.598 12.598 0 0 0 4.23-2.783c1.2-1.2 2.136-2.62 2.809-4.256.673-1.637 1.01-3.437 1.01-5.402 0-1.964-.328-3.764-.982-5.401a12.336 12.336 0 0 0-2.811-4.256 12.89 12.89 0 0 0-4.256-2.783c-1.618-.655-3.391-.982-5.32-.982-1.928 0-3.72.327-5.374.982-1.655.655-3.082 1.592-4.283 2.81a13.627 13.627 0 0 0-2.837 4.256c-.692 1.619-1.036 3.41-1.036 5.374 0 1.929.344 3.71 1.036 5.347a13.526 13.526 0 0 0 2.837 4.284c1.2 1.219 2.628 2.155 4.283 2.81 1.655.654 3.446.982 5.375.982m0 6.22c-2.946 0-5.684-.491-8.212-1.473-2.528-.982-4.72-2.364-6.575-4.147a18.84 18.84 0 0 1-4.31-6.247c-1.02-2.382-1.528-4.974-1.528-7.776 0-2.837.509-5.447 1.528-7.83a18.564 18.564 0 0 1 4.31-6.22c1.855-1.763 4.038-3.137 6.548-4.12 2.51-.981 5.256-1.472 8.239-1.472 2.946 0 5.675.482 8.185 1.446 2.509.964 4.682 2.328 6.519 4.092a18.668 18.668 0 0 1 4.283 6.247c1.019 2.4 1.529 5.02 1.529 7.857 0 2.838-.51 5.448-1.53 7.83a19.014 19.014 0 0 1-4.282 6.247c-1.837 1.783-4.01 3.157-6.52 4.12-2.51.963-5.238 1.446-8.184 1.446" fill="#1d1d1b"/><path d="M273.755 741.627c-2.564-1.463-4.808-3.232-6.734-5.305-1.926-2.072-3.246-4.08-3.962-6.023l4.815-3.532c.724 1.781 1.858 3.569 3.404 5.364a20.363 20.363 0 0 0 5.368 4.431c1.719.981 3.217 1.588 4.495 1.819 1.277.232 2.348.17 3.215-.185a3.972 3.972 0 0 0 1.995-1.753c.57-1 .67-2.01.3-3.03-.372-1.021-1.025-2.036-1.961-3.047a54.368 54.368 0 0 0-3.223-3.177 67.185 67.185 0 0 1-3.545-3.484c-1.15-1.217-2.104-2.486-2.862-3.81a9.451 9.451 0 0 1-1.251-4.289c-.077-1.537.384-3.179 1.384-4.931 1.017-1.782 2.426-3.143 4.228-4.084 1.8-.941 3.933-1.299 6.396-1.075 2.462.224 5.194 1.193 8.196 2.906a26.951 26.951 0 0 1 5.434 4.097c1.653 1.607 2.93 3.289 3.834 5.048l-4.627 3.64a20.795 20.795 0 0 0-3.438-4.543c-1.323-1.315-2.703-2.383-4.141-3.204-1.688-.963-3.173-1.54-4.451-1.732-1.281-.191-2.35-.097-3.21.283-.86.38-1.53.992-2.011 1.836-.571 1.001-.678 2.007-.323 3.018.356 1.011 1.005 2.014 1.95 3.01a72.493 72.493 0 0 0 3.247 3.19 90.511 90.511 0 0 1 3.569 3.498c1.159 1.2 2.12 2.454 2.888 3.762a8.989 8.989 0 0 1 1.242 4.253c.06 1.527-.4 3.151-1.381 4.87a10.147 10.147 0 0 1-4.201 4.037c-1.802.941-3.941 1.295-6.42 1.061-2.478-.232-5.218-1.206-8.22-2.919M302.888 746.575l3.899-4.325 18.776 8.01-.423 5.807zm-10.635 4.974 30.478-28.094 6.358 2.712.863 41.464-6.754-2.882-.091-37.083 2.583 1.102-26.781 25.62zM338.756 770.468l10.134-36.416 5.567 1.55 15.034 34.395-2.756-.767 7.803-28.04 6.711 1.867-10.135 36.416-5.566-1.549-15.035-34.396 2.757.767-7.803 28.041zM413.807 786.04l-13.073-39.129 7.584.682 11.622 35.364-4.357-.39 17.905-32.71 6.992.627-19.789 36.174zM444.477 787.715l.338-37.798 7.02.062-.338 37.799zM482.307 787.197c-2.874.205-5.574-.083-8.1-.86-2.528-.775-4.76-1.97-6.697-3.583a18.456 18.456 0 0 1-4.667-5.867c-1.174-2.298-1.86-4.848-2.059-7.65-.199-2.8.12-5.421.957-7.863a18.3 18.3 0 0 1 3.816-6.47c1.708-1.871 3.75-3.37 6.124-4.495 2.374-1.125 5.015-1.791 7.924-1.998 3.088-.22 5.944.11 8.57.988 2.624.879 4.89 2.297 6.798 4.254l-4.222 4.577c-1.47-1.375-3.074-2.371-4.814-2.988-1.74-.615-3.598-.854-5.573-.713-1.975.14-3.757.59-5.344 1.354a12.61 12.61 0 0 0-4.06 3.049 12.54 12.54 0 0 0-2.503 4.4c-.549 1.664-.755 3.465-.617 5.404.137 1.94.595 3.693 1.375 5.262a12.504 12.504 0 0 0 3.1 4.002c1.286 1.1 2.77 1.915 4.45 2.445 1.68.53 3.507.725 5.482.585 1.975-.141 3.78-.638 5.416-1.495 1.635-.855 3.082-2.087 4.34-3.692l4.83 3.988c-1.614 2.172-3.658 3.887-6.13 5.145-2.474 1.259-5.272 1.999-8.396 2.22M510.179 760.971l18.452-3.558 1.094 5.674-18.452 3.557zm3.597 15.805 20.945-4.038 1.114 5.78-27.838 5.366-7.155-37.117 27.094-5.223 1.115 5.78-20.202 3.894zM547.644 775.549l-11.774-35.92 5.49-1.8 31.593 20.275-2.72.892-9.065-27.658 6.62-2.17 11.773 35.92-5.491 1.799-31.592-20.275 2.72-.891 9.065 27.659zM599.7 756.267l-13.462-28.876-11.354 5.293-2.51-5.384 29.072-13.553 2.51 5.384-11.355 5.294 13.461 28.876zM619.528 721.315l16.09-9.708 2.985 4.946-16.09 9.709zm8.832 13.591 18.263-11.019 3.041 5.039-24.274 14.647-19.529-32.364 23.626-14.257 3.041 5.04-17.615 10.629z" fill="#fff"/><path d="M193.268 209.38c-10.083 3.074-20.716 6.696-29.993 11.903-.56.191-1.303.565-1.854 1.114 6.315 4.35 12.823 8.874 19.33 13.398 4.216 3.138 8.615 6.094 12.83 9.232a207.727 207.727 0 0 1 11.332-13.49c7.152-7.493 14.88-14.46 23.379-20.727a115.158 115.158 0 0 1 11.279-7.936c-4.704-.082-9.593.018-14.28.652-10.887.94-21.565 2.772-32.023 5.854m-42.6-41.587c-4.502.451-8.07.703-11.253 1.306-8.797 1.793-17.953 4.311-24.642 7.673-2.23 1.121-4.46 2.242-6.497 3.537-1.111.74-2.405 1.662-3.515 2.402l-.551.548c9.928 5.888 19.303 12.325 28.688 19.12a211.745 211.745 0 0 1 16.262-19.505 311.536 311.536 0 0 1 15.606-15.55c-4.704-.082-9.401.193-14.097.47m107.244 46.528c-7.52 7.86-16.394 14.133-24.114 21.458-11.227 10.085-20.74 21.03-29.674 32.502-.506 2.34-1.774 4.336-3.61 6.165-.734.732-1.47 1.464-2.212 1.837-2.002 2.73-4.004 5.458-5.63 8.178-2.911 4.002-7.756 5.893-12.33 3.478-.568-.167-.761-.342-1.146-.693a9.788 9.788 0 0 1-4.95-2.406c-4.234-3.855-4-9.593-.335-13.61.183-.183.367-.366.358-.724-11.913-10.147-24.377-19.745-36.841-29.343-5.011 2.791-10.835 3.09-15.646-1.29-3.848-3.505-4.531-8.328-2.95-12.84-.192-.175-.568-.167-.568-.167-10.356-8.03-20.713-16.058-31.252-23.904-2.798.953-5.614 1.19-8.238 1.602-7.328.33-18.635-.512-20.168-9.26-1.331-8.214 3.757-15.486 9.257-21.332 5.507-5.488 12.16-10.283 19.227-13.653 7.432-3.736 15.442-6.947 23.47-9.44 15.119-4.79 101.9-25.206 98.174 6.762-.27 4.305-1.292 8.626-4.8 11.385-4.606 3.858-8.856 6.991-14.207 11.222l-9.39 8.255c1.678-.572 3.174-.96 4.669-1.35 7.293-1.762 14.219-3.159 21.53-4.205 14.997-2.1 30.406-2.774 45.29-1.826 6.577-.314 13.18.446 16.705 6.107 5.695 9.736-4.018 20.15-10.62 27.092M254.717 60.292c.441 2.298.883 4.596.73 6.857 5.078 16.666 12.219 32.78 22.235 46.919 1.835 2.84 3.916 5.582 5.893 8.09.245-.1.49-.196.838-.061-13.028-18.982-22.587-39.903-28.019-61.927-.386.43-1.225.49-1.677.122m104.797 91.953c-.529.762-.812 1.425-1.095 2.088-1.17 3.219-3.925 8.72-7.262 12.258-12.353 17.046-38.97 17.53-57.223 8.89a80.446 80.446 0 0 1-17.018-11.058c-2.837 1.41-6.785 1.617-9.808-1.298-24.839-24.152-40.553-56.357-46.553-89.428-2.48-12.756-1.197-30.044 14.436-33.83 6.191-1.654 13.096.256 17.578 4.51 5.8 5.928 5.709 16.139 8.427 23.575 3.198 9.169 7.131 18.044 11.45 26.488 9.194 17.493 21.367 33.243 35.434 47.409 4.568 1.195 9.072 1.59 13.586.058 4.241-2.798 7.579-6.334 9.767-10.511 2.117-10.197-4.893-24.714-7.922-32.851-7.741-21.374-17.196-42.061-26.756-62.982-3.35-6.908 3.401-15.112 10.976-14.295l-1.035-2.335c-1.035-2.336.031-5.788 2.831-6.634 11.543-3.247 17.491 7.57 22.055 15.917 2.974 5.409 6.438 10.62 8.921 16.227l4.141 9.34c9.569 18.993 17.283 39.003 19.927 59.944 1.395 12.915.831 26.615-4.857 38.518M477.237 74.545c-8.348 2.193-16.684 4.134-25.032 6.327-5.38 1.301-10.495 2.612-15.599 3.671-.652 2.762-2.355 5.228-4.558 6.912 13.295-5.794 27.322-10.036 40.828-14.554a33.596 33.596 0 0 1 4.594-1.586zm-51.604 85.353c.266.011.532.022.808-.22 2.17-.926 4.34-1.85 6.244-2.787 4.34-1.85 8.413-3.712 12.487-5.573l.021-.506c-4.86 1.575-9.72 3.151-14.835 4.462-5.125 1.565-10.262 3.383-15.632 4.431 3.965.67 10.1.413 10.907.193m26.13-155.102c2.147-.419 4.03-.849 6.176-1.268C468.923 1.95 479.906.371 491.366.08c2.403-.155 4.795-.057 7.187.041-10.474 2.106-21.213 4.202-31.676 6.055-18.235 3.056-36.47 6.112-54.26 11.214-6.19 1.521-12.134 3.56-18.09 5.851-.52-.275-.488-1.034.065-1.519 17.922-8.139 37.828-12.9 57.17-16.926m84.705 128.458c-19.819 2.738-39.692 6.741-58.834 12.295-9.166 2.666-18.333 5.333-27.256 8.517l-.265-.01c-.543.231-1.35.451-1.893.682-2.978 1.146-5.946 2.04-8.924 3.184l-.276.243c-3.276 1.893-18.61 5.575-18.333 5.333 0 0-1.606.188-2.668.145-4.285.585-9.058.135-10.998-4.254-.477-1.287-.434-2.3-.113-3.554-6.535-2.803-10.725-10.58-8.049-17.062-1.223-8.67-1.362-17.803-1.777-26.693-.626-10.167-1.25-20.334-1.878-30.5l-1.944-28.982c-3.047-3.42-4.434-8.295-3.716-12.575.75-5.04 3.305-8.738 7.157-11.622.287-.496.852-1.234 1.15-1.982 5.68-2.049 11.614-3.834 17.27-5.377 17.792-5.102 36.027-8.158 54.251-10.96 14.216-2.46 28.188-5.438 42.16-8.415 1.85.33 3.698.658 5.271 1.23 1.573.571 2.88 1.132 4.186 1.692 1.285 1.067 2.826 2.398 4.111 3.464 1.63 5.391 2.198 10.74.917 15.757-4.306 1.091-8.879 2.171-13.452 3.252-5.923 1.532-12.11 3.053-18.289 4.321-.543.231-1.085.462-1.617.441-13.706 2.988-40.343 9.503-43.32 10.648-8.625 2.436-17.26 5.124-25.64 8.077l-.554.485c.156 2.541 1.358 11.717 1.303 12.983 15.144-5.465 30.023-10.94 45.4-15.635 8.592-1.676 17.46-3.594 26.062-5.523 1.074-.21 2.414-.409 3.488-.618 3.211-.376 6.145-.509 9.345-.63 6.655.018 13.022.532 16.48 6.758.5.781.732 1.551.976 2.068.488 1.034.976 2.068 1.197 3.092.255.264.255.264.521.275 2.337 1.363 3.822 3.96 4.245 6.512.855 4.852-2.574 10.29-7.456 12.37-5.69 2.303-11.525 1.81-17.693 2.825-6.42.751-13.12 1.745-19.564 3.001-12.897 2.768-25.552 6.053-38.26 10.603-7.839 2.721-15.167 5.97-22.76 9.21.291 5.588.592 10.925.884 16.514l-.044 1.012c.277-.242.543-.23.82-.473 5.955-2.292 11.9-4.329 17.845-6.368 7.561-2.479 15.122-4.958 22.95-7.426 4.051-1.356 8.103-2.71 12.144-3.813 6.476-2.016 12.953-4.033 19.418-5.796l10.495-2.613c2.956-.639 5.668-1.795 8.624-2.435 20.638-3.21 24.727 19.267 25.167 33.735.07 4.567-2.21 8.023-5.497 10.17-.32 1.255-1.162 2.234-2.767 2.422M648.141 209.376c19.797-44.643 37.34-90.091 49.89-136.812.121-.793.6-1.696 2.03-2.142 1.906-.783 4.755.592 4.032 3.08-12.3 43.437-28.283 85.948-49.728 125.825-.602 1.696-3 6.781-4.915 9.829-.475-.229-.832-.117-1.309.22m-62.558-64.791s-.238-.114-.595-.003l-7.426 13.442c-1.918 3.615-2.299 9.957-6.719 14.918 2.623-1.572 5.133-4.617 5.974-6.765 2.04-4.408 4.197-9.041 6.12-13.789 1.437-2.711 2.517-5.311 3.718-8.137l-1.072.334m-7.17-53.395c7.794-16.386 16.184-32.768 24.573-49.15 1.8-3.955 4.551-8.019 8.13-10.833-4.072 7.116-7.668 14.461-11.265 21.805-8.03 15.705-15.942 31.749-23.854 47.794-7.675 16.16-17.027 35.482-24.822 51.868 0 0-1.189-.007 3.013-10.181 7.082-16.728 16.31-34.692 24.225-51.303m48.556 117.621c-4.973-5.804-2.683-13.495-.756-19.942a555.667 555.667 0 0 0 2.65-8.37l-4.056-90.197c-.586-2.269-.815-4.649-1.164-6.803-7.91 15.478-16.294 30.728-24.442 46.091-4.318 9.267-8.873 18.419-13.428 27.571-3.477 7.119-7.815 21.483-18.27 18.142-5.245 3.145-11.666 2.318-16.05-1.783-2.49-2.053-3.79-4.666-4.373-7.5 8.877-19.552 18.23-38.875 27.581-58.197 7.435-15.708 15.465-31.412 23.138-47.005 5.034-10.056 9.832-20.226 15.696-29.598 1.667-.331 3.808-.433 5.59.143.96-1.807 2.63-3.271 4.655-4.28 12.275-5.713 18.741 14.146 20.257 21.971 2.682 14.062 3.58 28.114 4.12 42.278.79 11.446.983 22.889.82 34.443-.005 1.133-.364 1.811-.723 2.489.107 3.172.095 6.004.085 8.836 4.803-11.869 8.542-25.104 12.515-37.658 2.651-8.935 5.54-17.756 7.478-27.035 1.09-4.866 1.23-10.19 6.237-13.449 1.79-1.123 4.053-2.018 6.194-2.119.12-.226.357-.112.477-.338 5.485-3.596 12.37.292 14.97 4.951.592.569.827 1.25 1.062 1.931-1.326 4.751-2.178 9.732-3.268 14.597-3.149 14.937-8.084 29.865-13.135 44.452-9.869 29.855-22.114 59.132-34.952 87.838-4.409 2.13-9.647 3.008-14.158.832-1.904.216-3.684-.926-4.75-2.291M767.911 206.161c4.333-4.901 17.142-17.104 24.656-26.629-14.049 6.189-24.184 10.5-35.204 16.544 2.838 2.356 7.911 7.564 10.548 10.085m-22.404 26.788-13.773-14.803c-14.68 7.042-28.463 14.687-41.603 23.813-2.414 1.984-5.372-1.278-2.784-3.07 12.94-8.961 26.776-17.32 41.951-23.429l-1.566-1.727c-12.119 5.607-35.596 19.209-35.596 19.209l-10.096 6.289c-19.698 13.511-38.456-12.599-17.285-25.647 13.261-8.219 26.668-15.891 40.945-22.602-1.767-1.561-3.708-3.315-5.1-4.85.576-.139 1.555-.609 1.985-1.296-7.918-14.928 14.01-32.95 38.335-13.09 15.713-8.226 31.572-15.903 48.568-21.165 10.978-2.994 26.93-9.408 36.004.214 3.16 3.097 4.225 8.919 2.398 13.1 4.644 5.895 4.275 13.232-1.64 19.099-7.525 7.189-15.077 14.736-22.226 21.952-.028.357-.028.357.147.549 7.013-5.43 14.402-10.833 21.736-15.522 2.186-1.461-27.146 24.657-37.998 35.921 11.413 16.072-4.777 33.064-21.388 28.297-9.606 12.25-22.943 28.905-33.62 40.361-16.19 16.991-29.469 3.121-18.987-13.197-1.898-4.803 25.743-40.918 31.593-48.406M58.314 407.63h2.335c2.918 16.927 4.377 34.437 5.836 51.948.876 10.506-1.46 13.425-2.626 20.429-1.167-24.223-2.043-48.446-5.545-72.377m-14.592-56.91c1.459-1.458 4.378-1.458 4.669 1.169 1.459 6.128 2.919 12.257 4.086 18.385 1.459.292 3.21.292 4.669.584.293-1.46 1.168-3.211 2.627-4.378 8.755-5.545 18.386 2.335 25.099 7.88 9.339 1.167 18.969 2.335 28.308 3.502-22.472-15.467-45.82-28.016-70.918-33.853.293 1.459.584 3.21.876 4.669.292.584.292 1.459.584 2.043m117.028 48.738c-.583 5.544-6.128 10.506-10.798 9.922-13.717-.876-27.433-2.043-41.15-3.21 7.88 11.673 14.885 23.639 21.013 36.188 7.88 16.635 18.094 35.02 15.759 53.99-.875 6.422-7.587 7.88-12.55 5.838-2.625.292-5.252.292-7.878-.875-.292 0-.584 0-.584-.293-.875.876-2.627 1.46-3.794.876-5.253-13.717-11.09-27.433-16.927-40.858-3.21-7.588-11.09-26.85-16.635-37.648-1.46-3.21-2.918-6.128-4.67-9.047v-.291a122.735 122.735 0 0 1-4.96-8.172c-7.588-.292-15.468-.876-23.056-1.167 1.459 13.132 2.626 26.557 3.21 39.982.876 14.3 2.335 29.184 1.459 43.484.292 1.752.292 3.502.292 4.962-1.751 3.502-3.794 6.42-6.712 8.755-3.794 3.21-9.631 3.502-13.133-.583-.875-1.46-1.46-2.92-1.751-4.67-2.335.584-5.253-1.46-5.253-4.67-1.46-6.128-.876-13.133-1.46-19.553l-2.626-19.262-7.004-41.15c-.584-3.502-1.168-6.712-1.751-10.214H18.04c0-.875-.584-1.751-1.752-2.043-3.21-.875-6.42-2.043-9.63-3.21 2.335-.292 4.378-.584 6.712-.876-2.918-1.167-6.128-2.918-8.755-4.67-8.171-5.252-4.67-19.844 4.086-19.844 1.75-.292 3.502-.292 5.253-.292-2.043-9.923-4.086-20.137-6.421-30.06 2.335-1.751 4.378-3.793 6.129-6.42-5.545-4.67-8.755-12.841-5.545-19.554 5.545-10.798 23.056-7.004 32.686-5.253 1.168 0 2.043.584 2.627 1.167 2.043.876 4.086 1.46 6.129 2.336.29 0 .583.29.875.29 32.102 10.216 60.995 30.06 89.595 49.323 2.335 1.75 3.502 4.085 4.086 6.42 4.086 2.919 8.172 6.129 11.966 9.047 4.669 3.502 6.42 8.755 5.545 15.176l-.876 6.129M235.747 349.553c-.875-2.043-1.751-4.378-2.918-6.42-.292-.292-.876-.584-1.168-.584h-1.46c-1.75 3.21-2.918 7.004-3.793 9.922-3.21 10.507-5.837 21.305-7.296 32.395-2.627 21.597-2.334 44.068 1.168 65.664.583 3.21.29 6.13-1.168 8.756-8.171-37.94-7.588-80.84 9.047-115.86-1.751 1.166-2.92 3.501-4.086 5.543-5.545 10.798-9.338 22.764-11.673 34.73-.292.584-.292.875-.584 1.167-1.167 6.713-1.751 13.425-2.335 20.137-.875 19.845 1.46 39.691 5.837 58.66-.876.584-2.043 1.168-3.21 1.46-3.502.875-7.588 0-10.506-2.044.29 0 .29 0 .29.293 4.67 9.63 14.886 21.596 27.434 17.802 3.503-1.168 6.129-3.794 7.88-7.004 1.752-3.21 3.21-6.42 4.086-9.923 4.962-13.717 6.712-28.308 6.712-42.609-1.167-14.592-2.043-29.476-4.377-43.776-.876-4.378-1.46-8.755-2.335-12.84-1.751-5.255-3.502-10.508-5.545-15.469m30.35 131.913c-3.21 4.377-6.711 8.463-10.797 11.965-5.544 5.545-12.257 9.34-20.428 10.506a52.883 52.883 0 0 1-9.632 0c-9.63 1.752-20.428-1.75-28.308-8.17-13.716-11.675-19.553-29.185-22.472-46.404-5.836-37.356-.583-75.879 18.97-108.565.292 0 .292-.292.584-.584 2.918-7.587 6.712-14.592 11.673-21.012.292-.584.876-.292.584.291-1.751 2.92-3.502 5.838-4.67 8.756-1.458 3.21-2.626 6.421-3.794 9.631.876-.292 1.752 0 2.336 0 4.96-10.799 11.965-19.846 21.304-21.888 3.793-1.46 7.588-2.627 11.382-2.336 4.086-.875 9.047-.875 12.549 1.168 3.794 2.335 6.712 7.296 8.755 11.09 2.335-.876 5.253-.292 6.712 2.335 4.086 7.88 8.172 16.051 11.09 24.515 2.627 8.755 4.378 17.802 5.838 26.557 2.918 18.094 4.085 36.188 2.042 54.575-1.46 16.051-4.085 33.853-13.717 47.57M414.057 427.183c-8.756-11.674-18.678-22.763-29.768-32.394-11.09-10.215-22.764-18.678-36.481-26.558-1.75-.875-3.502-1.75-5.544-2.918 4.96 24.223 9.339 48.737 13.424 72.96 1.459 8.755 3.21 17.511 4.67 26.266 9.047 3.21 18.386 6.13 28.017 8.172 7.587 1.75 11.382 2.334 18.969 2.626 7.005 0 11.382 0 17.51-1.75 4.962-1.169 9.048-2.628 12.258-5.546-.583-3.794-2.335-7.004-4.086-10.506-1.75-3.502-3.502-7.297-5.545-10.507-4.377-6.712-8.755-13.424-13.424-19.845m-112.943-70.625c4.96 20.137 9.047 40.274 14.3 60.411 2.627 10.506 5.254 20.721 7.88 31.227 1.75.875 3.502 2.042 5.253 2.918-1.751-4.96-3.502-9.922-4.67-14.884-3.793-13.716-16.343-65.664-20.136-78.213-.292-1.168-3.503-5.545-2.627-1.459m126.367 145.63c-15.175 3.501-30.351 2.917-45.82.582-7.295-1.167-14.591-2.626-21.595-4.378-1.167 2.627-3.21 4.67-5.545 5.254-1.46.291-2.918 0-4.086-.584-1.167 1.168-2.627 2.043-4.67 2.043-3.793.292-7.88-.292-10.797-2.335-6.421-4.378-8.464-9.047-9.923-16.05-9.34-3.795-18.386-7.88-27.433-12.55-8.463-4.67-11.09-16.052-6.13-24.223 4.67-8.172 15.76-11.09 23.932-6.42.292.291.876.583 1.168.875-.584-3.503-1.168-6.712-2.043-10.215-6.421-32.686-13.133-65.08-19.846-97.475-.291-1.167-.875-2.335-1.167-3.21-1.751-5.837 2.626-10.798 7.88-11.673 1.459-.293 2.918-.584 4.085-.584 2.627-7.588 16.052-9.923 22.764-9.339 19.553 1.46 33.562 14.3 47.279 27.433 15.175 14.592 30.35 29.476 44.36 45.527 4.96 5.253 9.922 10.798 14.3 16.635 7.296 9.631 14.3 19.845 19.845 30.936 7.004 13.716 13.425 30.351 7.004 45.527-5.545 12.841-20.428 21.012-33.562 24.223M543.626 394.205c-1.167-7.296-2.626-27.141-5.545-40.566-4.669 16.344-8.17 28.017-10.798 41.734 4.086-.584 12.258-.876 16.343-1.168m7.296 38.815-22.763.292c-4.378 17.51-7.588 34.729-9.048 52.532 0 3.502-4.96 3.502-4.669 0 1.46-17.511 4.086-35.313 9.631-52.532h-2.627c-3.794 14.3-8.755 44.068-8.755 44.068l-1.75 13.133c-2.336 26.557-38.524 22.472-34.73-4.961 2.335-17.22 5.253-34.146 9.631-51.073-2.627.292-5.546.584-7.88.584.291-.584.584-1.751.291-2.626-18.677-4.67-18.677-36.481 16.052-41.734 4.086-19.261 8.755-38.231 16.343-56.325 5.253-11.382 11.09-29.476 25.974-29.768 4.961-.292 10.798 3.21 13.133 7.88 8.464.584 14.592 6.42 15.467 15.759.876 11.674 2.043 23.64 3.211 35.02.291.293.291.293.584.293.291-9.923.875-20.137 2.043-29.768.291-2.92 2.042 41.15 4.085 58.66 22.18 2.627 25.391 28.892 9.34 39.107 3.793 17.218 8.754 40.858 11.09 58.369 3.21 26.265-18.387 26.849-25.099 5.836-5.545-2.043-17.219-52.24-19.554-62.746" fill="#1d1d1b"/><path d="M721.644 427.183c-8.756-11.674-18.678-22.763-29.768-32.394-11.09-10.215-22.764-18.678-36.48-26.558-1.75-.875-3.503-1.75-5.545-2.918 4.961 24.223 9.34 48.737 13.424 72.96 1.46 8.755 3.211 17.511 4.67 26.266 9.047 3.21 18.386 6.13 28.017 8.172 7.587 1.75 11.382 2.334 18.97 2.626 7.004 0 11.381 0 17.51-1.75 4.962-1.169 9.047-2.628 12.257-5.546-.583-3.794-2.335-7.004-4.086-10.506-1.75-3.502-3.502-7.297-5.545-10.507-4.377-6.712-8.755-13.424-13.424-19.845m-112.943-70.625c4.961 20.137 9.047 40.274 14.3 60.411 2.627 10.506 5.254 20.721 7.88 31.227 1.751.875 3.502 2.042 5.253 2.918-1.75-4.96-3.502-9.922-4.669-14.884-3.794-13.716-16.344-65.664-20.137-78.213-.292-1.168-3.503-5.545-2.627-1.459m126.367 145.63c-15.175 3.501-30.35 2.917-45.819.582-7.296-1.167-14.592-2.626-21.596-4.378-1.167 2.627-3.21 4.67-5.545 5.254-1.459.291-2.918 0-4.086-.584-1.167 1.168-2.627 2.043-4.669 2.043-3.794.292-7.88-.292-10.798-2.335-6.42-4.378-8.464-9.047-9.923-16.05-9.339-3.795-18.386-7.88-27.433-12.55-8.463-4.67-11.09-16.052-6.129-24.223 4.67-8.172 15.76-11.09 23.931-6.42.292.291.876.583 1.168.875-.584-3.503-1.168-6.712-2.043-10.215-6.42-32.686-13.133-65.08-19.846-97.475-.29-1.167-.875-2.335-1.167-3.21-1.75-5.837 2.626-10.798 7.88-11.673 1.46-.293 2.918-.584 4.085-.584 2.627-7.588 16.052-9.923 22.764-9.339 19.553 1.46 33.562 14.3 47.28 27.433 15.174 14.592 30.35 29.476 44.36 45.527 4.96 5.253 9.922 10.798 14.3 16.635 7.295 9.631 14.3 19.845 19.844 30.936 7.004 13.716 13.425 30.351 7.004 45.527-5.545 12.841-20.428 21.012-33.562 24.223M851.214 394.205c-1.167-7.296-2.626-27.141-5.545-40.566-4.67 16.344-8.171 28.017-10.798 41.734 4.086-.584 12.258-.876 16.343-1.168m7.296 38.815-22.763.292c-4.378 17.51-7.588 34.729-9.048 52.532 0 3.502-4.961 3.502-4.67 0 1.46-17.511 4.087-35.313 9.632-52.532h-2.627c-3.794 14.3-8.755 44.068-8.755 44.068l-1.751 13.133c-2.335 26.557-38.523 22.472-34.73-4.961 2.336-17.22 5.254-34.146 9.632-51.073-2.627.292-5.546.584-7.88.584.29-.584.584-1.751.29-2.626-18.676-4.67-18.676-36.481 16.053-41.734 4.086-19.261 8.755-38.231 16.343-56.325 5.253-11.382 11.09-29.476 25.974-29.768 4.96-.292 10.798 3.21 13.133 7.88 8.463.584 14.592 6.42 15.467 15.759.876 11.674 2.043 23.64 3.21 35.02.292.293.292.293.585.293.29-9.923.875-20.137 2.043-29.768.29-2.92 2.042 41.15 4.085 58.66 22.18 2.627 25.39 28.892 9.339 39.107 3.794 17.218 8.755 40.858 11.09 58.369 3.21 26.265-18.386 26.849-25.098 5.836-5.545-2.043-17.22-52.24-19.554-62.746" fill="#1d1d1b"/></g></g></svg>