<svg xmlns="http://www.w3.org/2000/svg" width="995.56pt" height="1191.665" viewBox="0 0 995.56 893.749"><g data-name="Capa 1"><path d="M0 893.749h995.56V-.001H0z" fill="#13100d"/><clipPath id="a"><path transform="matrix(1 0 0 -1 0 893.749)" d="M0 893.749h995.56V0H0z"/></clipPath><g clip-path="url(#a)"><path d="M104.386 453.63h2.335c2.918 16.926 4.377 34.436 5.836 51.947.876 10.506-1.459 13.425-2.626 20.43-1.167-24.224-2.043-48.447-5.545-72.378M89.794 396.72c1.46-1.459 4.378-1.459 4.67 1.168 1.458 6.128 2.918 12.257 4.085 18.385 1.46.292 3.21.292 4.67.584.292-1.459 1.167-3.21 2.626-4.378 8.755-5.545 18.386 2.335 25.1 7.88 9.338 1.167 18.968 2.335 28.307 3.502-22.472-15.467-45.819-28.016-70.918-33.853.293 1.46.584 3.21.876 4.67.292.583.292 1.458.584 2.042m117.028 48.738c-.583 5.544-6.128 10.506-10.798 9.922-13.717-.876-27.433-2.043-41.15-3.21 7.88 11.673 14.885 23.64 21.013 36.188 7.88 16.635 18.094 35.021 15.76 53.991-.876 6.421-7.588 7.88-12.55 5.837-2.626.292-5.253.292-7.879-.875-.292 0-.584 0-.584-.293-.875.876-2.627 1.46-3.794.876-5.253-13.717-11.09-27.433-16.927-40.858-3.21-7.588-11.09-26.849-16.635-37.648-1.459-3.209-2.918-6.128-4.67-9.047v-.29a122.735 122.735 0 0 1-4.96-8.173c-7.588-.292-15.468-.876-23.056-1.167 1.46 13.132 2.626 26.557 3.21 39.982.876 14.3 2.335 29.184 1.46 43.484.291 1.752.291 3.502.291 4.962-1.75 3.502-3.794 6.42-6.712 8.755-3.794 3.21-9.63 3.502-13.133-.583-.875-1.46-1.459-2.919-1.75-4.67-2.336.584-5.254-1.459-5.254-4.669-1.459-6.129-.876-13.134-1.459-19.554-.876-6.42-1.75-12.84-2.627-19.262l-7.004-41.149c-.584-3.503-1.168-6.713-1.75-10.215h-1.752c0-.875-.584-1.75-1.75-2.043-3.21-.875-6.422-2.043-9.632-3.21 2.335-.292 4.378-.583 6.712-.876-2.918-1.167-6.128-2.918-8.755-4.669-8.17-5.253-4.669-19.845 4.086-19.845 1.751-.292 3.502-.292 5.253-.292-2.043-9.923-4.086-20.137-6.42-30.06 2.334-1.75 4.377-3.793 6.128-6.42-5.545-4.669-8.755-12.84-5.545-19.554 5.545-10.798 23.056-7.004 32.686-5.253 1.168 0 2.043.584 2.627 1.167 2.043.876 4.086 1.46 6.13 2.336.29 0 .582.291.874.291 32.102 10.215 60.995 30.06 89.595 49.322 2.335 1.751 3.502 4.085 4.086 6.42 4.086 2.92 8.172 6.13 11.966 9.047 4.67 3.502 6.42 8.755 5.545 15.176l-.876 6.13M281.82 395.553c-.875-2.043-1.751-4.378-2.918-6.421-.292-.291-.876-.583-1.168-.583h-1.46c-1.75 3.21-2.918 7.004-3.793 9.922-3.21 10.507-5.837 21.305-7.296 32.395-2.627 21.597-2.334 44.068 1.168 65.664.582 3.21.29 6.129-1.168 8.756-8.171-37.94-7.589-80.841 9.046-115.861-1.75 1.167-2.918 3.502-4.085 5.544-5.546 10.798-9.339 22.764-11.673 34.73-.293.584-.293.875-.584 1.167-1.168 6.713-1.752 13.425-2.335 20.137-.875 19.845 1.46 39.69 5.837 58.66-.877.584-2.043 1.168-3.21 1.459-3.502.876-7.588 0-10.506-2.043.29 0 .29 0 .29.293 4.67 9.63 14.886 21.596 27.434 17.802 3.502-1.168 6.129-3.794 7.88-7.004 1.752-3.211 3.21-6.421 4.086-9.923 4.962-13.717 6.712-28.308 6.712-42.61-1.168-14.591-2.043-29.475-4.377-43.775-.876-4.378-1.46-8.755-2.335-12.841-1.752-5.254-3.502-10.507-5.546-15.468m30.351 131.913c-3.21 4.377-6.712 8.463-10.798 11.965-5.543 5.545-12.257 9.339-20.428 10.506a53.064 53.064 0 0 1-9.632 0c-9.63 1.752-20.428-1.75-28.308-8.171-13.715-11.674-19.552-29.184-22.471-46.403-5.836-37.356-.583-75.88 18.97-108.565.292 0 .292-.292.584-.584 2.918-7.587 6.712-14.592 11.673-21.012.292-.584.876-.292.584.29-1.751 2.92-3.502 5.839-4.67 8.757-1.458 3.21-2.626 6.42-3.794 9.63.876-.291 1.752 0 2.336 0 4.96-10.798 11.964-19.845 21.303-21.887 3.793-1.46 7.589-2.627 11.382-2.336 4.087-.875 9.048-.875 12.55 1.168 3.793 2.335 6.712 7.296 8.755 11.09 2.334-.876 5.252-.292 6.712 2.335 4.086 7.88 8.171 16.05 11.09 24.515 2.627 8.755 4.377 17.802 5.838 26.557 2.918 18.094 4.084 36.188 2.041 54.575-1.459 16.05-4.084 33.853-13.716 47.57M460.13 473.182c-8.757-11.674-18.679-22.763-29.769-32.394-11.09-10.215-22.764-18.678-36.48-26.558-1.75-.875-3.503-1.75-5.545-2.918 4.961 24.223 9.34 48.737 13.424 72.96 1.46 8.755 3.211 17.511 4.67 26.266 9.047 3.21 18.386 6.13 28.017 8.172 7.587 1.75 11.382 2.334 18.97 2.626 7.004 0 11.381 0 17.51-1.75 4.961-1.169 9.047-2.628 12.257-5.546-.583-3.794-2.335-7.004-4.086-10.506-1.75-3.502-3.502-7.297-5.545-10.507-4.377-6.712-8.755-13.424-13.424-19.845m-112.943-70.626c4.961 20.138 9.047 40.275 14.3 60.412 2.627 10.506 5.254 20.721 7.88 31.227 1.751.875 3.502 2.042 5.253 2.918-1.75-4.96-3.502-9.922-4.669-14.884-3.794-13.716-16.344-65.664-20.137-78.213-.292-1.168-3.503-5.545-2.627-1.46m126.367 145.63c-15.175 3.502-30.35 2.918-45.819.583-7.296-1.167-14.592-2.626-21.596-4.378-1.167 2.627-3.21 4.67-5.545 5.254-1.459.291-2.918 0-4.086-.584-1.167 1.168-2.627 2.043-4.669 2.043-3.794.292-7.88-.292-10.798-2.335-6.42-4.378-8.464-9.047-9.923-16.05-9.339-3.795-18.386-7.88-27.433-12.55-8.463-4.67-11.09-16.052-6.129-24.223 4.67-8.172 15.76-11.09 23.931-6.42.292.291.876.583 1.168.875-.584-3.503-1.168-6.712-2.043-10.215-6.42-32.686-13.133-65.08-19.846-97.475-.29-1.167-.875-2.335-1.167-3.21-1.75-5.837 2.626-10.798 7.88-11.673 1.46-.293 2.918-.584 4.085-.584 2.627-7.588 16.052-9.923 22.764-9.339 19.553 1.46 33.562 14.3 47.28 27.433 15.174 14.592 30.35 29.476 44.36 45.527 4.96 5.253 9.921 10.798 14.3 16.635 7.295 9.631 14.3 19.845 19.844 30.936 7.004 13.716 13.425 30.351 7.004 45.527-5.545 12.841-20.428 21.012-33.562 24.223M589.699 440.204c-1.167-7.296-2.626-27.14-5.545-40.566-4.67 16.344-8.171 28.017-10.798 41.734 4.086-.584 12.258-.876 16.343-1.168m7.296 38.815-22.763.292c-4.378 17.51-7.588 34.73-9.048 52.532 0 3.502-4.961 3.502-4.67 0 1.46-17.51 4.087-35.313 9.632-52.532h-2.627c-3.794 14.3-8.755 44.068-8.755 44.068l-1.751 13.133c-2.335 26.557-38.523 22.472-34.73-4.96 2.336-17.22 5.254-34.147 9.632-51.074-2.627.292-5.546.584-7.88.584.292-.584.584-1.75.292-2.626-18.678-4.67-18.678-36.48 16.05-41.734 4.087-19.26 8.756-38.23 16.344-56.325 5.253-11.382 11.09-29.476 25.974-29.768 4.96-.292 10.798 3.21 13.133 7.88 8.464.584 14.592 6.42 15.467 15.76.876 11.673 2.043 23.64 3.21 35.02.292.292.292.292.585.292.29-9.923.875-20.137 2.043-29.768.29-2.919 2.042 41.15 4.085 58.66 22.18 2.627 25.39 28.892 9.339 39.107 3.794 17.218 8.755 40.858 11.09 58.37 3.21 26.264-18.386 26.848-25.098 5.835-5.545-2.043-17.22-52.24-19.554-62.746" fill="#fff"/><path d="M767.717 473.182c-8.756-11.674-18.678-22.763-29.768-32.394-11.09-10.215-22.764-18.678-36.481-26.558-1.75-.875-3.502-1.75-5.544-2.918 4.96 24.223 9.339 48.737 13.424 72.96 1.459 8.755 3.21 17.511 4.67 26.266 9.047 3.21 18.386 6.13 28.017 8.172 7.587 1.75 11.382 2.334 18.969 2.626 7.005 0 11.382 0 17.51-1.75 4.963-1.169 9.048-2.628 12.258-5.546-.583-3.794-2.335-7.004-4.086-10.506-1.75-3.502-3.502-7.297-5.545-10.507-4.377-6.712-8.755-13.424-13.424-19.845m-112.943-70.626c4.96 20.138 9.047 40.275 14.3 60.412 2.627 10.506 5.254 20.721 7.88 31.227 1.75.875 3.502 2.042 5.253 2.918-1.751-4.96-3.502-9.922-4.67-14.884-3.793-13.716-16.343-65.664-20.136-78.213-.292-1.168-3.503-5.545-2.627-1.46m126.367 145.63c-15.175 3.502-30.351 2.918-45.82.583-7.295-1.167-14.591-2.626-21.595-4.378-1.167 2.627-3.21 4.67-5.545 5.254-1.46.291-2.918 0-4.086-.584-1.167 1.168-2.627 2.043-4.67 2.043-3.793.292-7.88-.292-10.797-2.335-6.421-4.378-8.464-9.047-9.923-16.05-9.34-3.795-18.386-7.88-27.433-12.55-8.463-4.67-11.09-16.052-6.13-24.223 4.67-8.172 15.76-11.09 23.932-6.42.292.291.876.583 1.168.875-.584-3.503-1.168-6.712-2.043-10.215-6.421-32.686-13.133-65.08-19.846-97.475-.291-1.167-.875-2.335-1.167-3.21-1.751-5.837 2.626-10.798 7.88-11.673 1.459-.293 2.918-.584 4.085-.584 2.627-7.588 16.052-9.923 22.764-9.339 19.553 1.46 33.562 14.3 47.279 27.433 15.175 14.592 30.35 29.476 44.36 45.527 4.96 5.253 9.923 10.798 14.3 16.635 7.296 9.631 14.3 19.845 19.845 30.936 7.004 13.716 13.425 30.351 7.004 45.527-5.545 12.841-20.428 21.012-33.562 24.223M897.287 440.204c-1.168-7.296-2.626-27.14-5.545-40.566-4.67 16.344-8.171 28.017-10.798 41.734 4.086-.584 12.258-.876 16.343-1.168m7.296 38.815-22.763.292c-4.379 17.51-7.588 34.73-9.048 52.532 0 3.502-4.962 3.502-4.67 0 1.46-17.51 4.087-35.313 9.632-52.532h-2.627c-3.794 14.3-8.755 44.068-8.755 44.068l-1.751 13.133c-2.335 26.557-38.523 22.472-34.73-4.96 2.336-17.22 5.254-34.147 9.632-51.074-2.627.292-5.547.584-7.88.584.29-.584.583-1.75.29-2.626-18.676-4.67-18.676-36.48 16.053-41.734 4.086-19.26 8.755-38.23 16.343-56.325 5.253-11.382 11.09-29.476 25.974-29.768 4.96-.292 10.798 3.21 13.133 7.88 8.462.584 14.591 6.42 15.466 15.76.877 11.673 2.044 23.64 3.212 35.02.29.292.29.292.583.292.292-9.923.875-20.137 2.043-29.768.292-2.919 2.043 41.15 4.086 58.66 22.18 2.627 25.39 28.892 9.338 39.107 3.795 17.218 8.755 40.858 11.09 58.37 3.21 26.264-18.385 26.848-25.097 5.835-5.545-2.043-17.22-52.24-19.554-62.746M201.128 385.082a307.893 307.893 0 0 1 9.664-27.332 37.695 37.695 0 0 1-9.309-6.23c-7.103-6.468-11.346-15.013-12.132-24.31a1033.93 1033.93 0 0 0-12.788-10.064 39.73 39.73 0 0 1-16.089-3.206 52.519 52.519 0 0 1-1.569 3.04c-1.939 3.424-2.933 6.713.21 9.993l-2.737 5.112c-3.288.179-4.987 2.119-6.02 5.072-1.525 4.35-3.229 8.643-4.908 13.014 18.736 10.037 36.327 21.87 53.561 33.484zM133.598 540.92l.413.182c-.07-.168-.138-.341-.207-.51l-.206.328M799.435 359.623l-.212.225c-3.408 3.577-6.898 6.495-10.41 8.837a307.817 307.817 0 0 1 14.11 52.959 191.774 191.774 0 0 1 3.966 4.77c4.676-4.604 10.44-8.64 17.35-11.748 3.527-14.728 7.926-29.97 14.273-45.106.128-.304.261-.606.4-.906.565-1.225 1.136-2.54 1.731-3.902 2.094-4.8 4.571-10.444 7.968-16.073-.975-.741-2.235-1.14-3.822-1.205l-2.499-5.683c1.148-2.388 2.415-5.017 1.754-7.006-1.222-3.675-2.84-7.218-4.452-10.711a48.368 48.368 0 0 1-13.642 4.304c-10.706 13.365-19.434 23.648-26.515 31.245M777.273 638.214c.222.22.481.372.649.44.128.051.231.081.303.097.043-.012.099-.029.163-.054.226-.089.577-.297.888-.612a1.49 1.49 0 0 0 .284-.395c.109-.256.149-.45.163-.538a2.063 2.063 0 0 0-.142-.482 1.605 1.605 0 0 0-.3-.414 2.812 2.812 0 0 0-.892-.616 1.327 1.327 0 0 0-.163-.054 1.949 1.949 0 0 0-.304.098 2.446 2.446 0 0 0-.755.518 2.2 2.2 0 0 0-.462.65c-.05.12-.08.22-.099.292.016.053.038.12.069.2.09.227.295.572.598.87" fill="#fff"/><path d="M819.891 573.312a44.584 44.584 0 0 1-7.897-7.658c-6.412 3.752-13.549 6.775-21.21 8.914a307.966 307.966 0 0 1-11.163 27.965c4.276.144 8.37.95 12.184 2.415 4.378 1.681 8.26 4.13 11.54 7.28a33.703 33.703 0 0 1 7.708 11.216c1.806 4.257 2.722 8.874 2.722 13.724 0 4.865-.922 9.486-2.738 13.735a34.062 34.062 0 0 1-7.637 11.125c-3.29 3.194-7.193 5.671-11.595 7.361-4.224 1.621-8.789 2.444-13.568 2.444-4.802 0-9.395-.839-13.653-2.494-4.105-1.594-7.772-3.869-10.924-6.752a15.015 15.015 0 0 1-13.617 8.7h-3.469C679.31 740.7 592.762 784.741 497.297 783.873c-96.219.737-184.073-44.607-241.365-116.068-2.6 2.161-5.922 3.482-9.567 3.482h-7.094c-2.845 0-5.496-.806-7.765-2.18-4.365 1.805-9.147 2.726-14.223 2.726-4.804 0-9.373-.832-13.58-2.47-4.343-1.69-8.205-4.16-11.479-7.34a34.084 34.084 0 0 1-7.617-11.06c-1.825-4.23-2.752-8.875-2.752-13.795 0-4.918.927-9.562 2.755-13.803a33.947 33.947 0 0 1 7.694-11.104c3.287-3.156 7.138-5.606 11.45-7.286 3.727-1.452 7.737-2.267 11.94-2.436a307.124 307.124 0 0 1-12.254-31.3c-.47.301-.929.614-1.416.895-7.73 4.45-17.002 5.883-25.918 4.193-1.6-.016-3.41-.12-5.37-.388-5.589.504-11.293-.469-16.413-3.03a27.972 27.972 0 0 1-13.604-15.01 682.129 682.129 0 0 0-5.85-14.693c.035 1.881.164 3.87-.689 5.253-1.405 2.275-1.63 4.403-1.144 6.587 1.077 4.846 2.53 9.61 3.867 14.397.126.452.531.826.763 1.171l3.778 1.825 1.665 4.76c-3.375 3.5-2.619 7.272-1.03 11.167.937 2.3 1.892 4.641 2.396 7.056.758 3.636 2.658 5.99 6.365 6.678l2.25 5.343c-3.045 2.681-2.389 5.54-.839 8.634 1.56 3.113 3.034 6.317 4.074 9.628 1.034 3.292 2.754 5.2 5.707 4.714 3.385 3.462 3.673 6.858 1.42 10.52 2.23 4.222 4.541 8.258 6.522 12.45 1.536 3.248 3.405 5.674 7.552 5.012l3.2 5.99-2.098 4.115 10.838 16.622c4.104-.25 6.975.925 8.131 5.144-.574 2.26-1.453 4.776.64 7.23 2.478 2.903 4.71 6.022 6.995 9.087 2.005 2.687 4.322 4.604 7.796 3.461l3.27 3.606c.574 3.042.323 5.763 1.54 7.383 3.461 4.613 7.521 8.777 11.261 13.02 4.648-1.058 7.707.291 9.175 4.278.476 2.34.738 5.067 2.222 6.645 3.735 3.97 8.021 7.422 11.943 10.953l5.357-.883 3.893 3.476v4.786c5.084 5.007 10.598 9.151 16.425 12.62l3.835-1.943 4.508 3.476c.525 2.456 1.065 5.26 2.758 6.555 4.716 3.606 9.911 6.585 14.684 9.661l4.337-1.929 4.643 2.753c-.138 4.056 2.166 6.242 5.796 7.652 2.457.954 4.832 2.268 7.008 3.765 3.342 2.297 6.683 2.664 10.082.705 1.758.731 3.267 1.36 4.742 1.972.55 2.821 1.28 5.487 4.025 6.67 5.163 2.223 10.407 4.26 15.692 6.405 3.193-2.17 6.403-2.988 9.961-.135-.199 3.4 2.27 4.955 5.258 5.97 3.758 1.275 7.506 2.62 11.343 3.608 1.452.375 3.361.291 4.672-.364 2.997-1.499 5.688-1.37 8.412.226l1.917 4.35c4.338 1.038 8.794 1.731 12.97 3.214 3.843 1.364 7.077 1.67 9.804-1.975 2.083.5 3.995.957 5.725 1.371l2.072 3.871c3.122.651 6.182 1.447 9.292 1.894 3.272.47 6.593.606 9.937.891 4.488-3.287 4.488-3.287 10.072-2.21l1.941 3.197c6.78 1.624 13.455 2.66 20.181 1.665l2.616-3.349h6.066l3.433 3.833c5.156 0 10.311-.036 15.466.015 2.872.028 5.418-.342 5.906-3.796l6.44-1.1 2.972 2.825c4.772 0 8.922-.063 13.07.018 4.487.087 8.261-.966 9.795-5.79h6.207c1.607 1.242 3.44 2.47 5.1 2.268 5.724-.69 11.388-1.88 16.805-2.832l2.572-4.86c2.511-.624 5.03-1.752 7.228.088 1.98 1.657 4.067 1.466 6.118.918 4.953-1.325 9.84-2.897 14.62-4.33l2.291-4.65c3.392-2.093 6.607-2.205 9.74.796l17.762-6.553c.571-1.745 1.074-3.283 1.6-4.885l5.307-2.518 4.751 2.44 18.29-8.939.854-4.71 4.706-2.67c1.566.802 2.866 1.47 4.445 2.278 4.252-2.517 8.396-5.303 12.836-7.489 3.232-1.59 5.26-3.397 4.23-6.918 3.013-3.73 6.606-4.054 10.642-2.754 4.322-2.965 8.598-5.827 12.793-8.804 2.266-1.609 4.07-3.539 2.186-6.692l5.35-3.955 5.335.913c4.316-3.805 8.895-7.869 13.507-11.895 1.898-1.656 1.02-3.503.126-5.22l5.151-4.347 3.811.946c3.777-3.515 7.055-6.84 10.63-9.807 3.048-2.53 5-5.249 3.535-9.315l3.683-4.349 4.905.387c2.722-2.99 5.48-6.08 8.301-9.108 2.843-3.05 4.982-6.3 3.365-10.722l3.16-4.446 5.832-.45 10.741-15.633a9089.6 9089.6 0 0 1-1.57-5.272l3.304-4.566 5.187-.576c3.27-5.609 6.507-11.167 9.751-16.734l-2.237-4.036 2.941-5.512c2.715-.186 5.16-.866 6.415-3.729 2.185-4.987 4.506-9.914 6.668-14.646-2.137-4.295-1.72-8.85.957-10.742.451-.053 1.113-.078 1.75-.22.775-.175 1.528-.449 2.492-.74l6.741-18.149-2.948-4.02 1.822-5.263 4.767-2.069a70.487 70.487 0 0 1 1.273-4.186 45.307 45.307 0 0 1-35.482-8.316M538.838 216.38 503.8 422.455a58.318 58.318 0 0 1 5.301-3.753l32.276-202.983c-.849.219-1.697.438-2.539.66" fill="#fff"/><path d="m301.96 603.05 56.486-36.656a49.341 49.341 0 0 1-2.417-2.462l-58.886 39.118zM500.064 603.05l.108-35.093a87.907 87.907 0 0 1-4.154 2l.254 33.093zM759.929 603.413c1.534.342 3 .915 4.344 1.702.084-.033.165-.071.25-.104a35.44 35.44 0 0 1 3.18-1.071 295.892 295.892 0 0 0 11.466-26.901 124.08 124.08 0 0 1-8.048 1.022 291.19 291.19 0 0 1-11.192 25.352M544.87 603.05l-7.03-20.684a45.028 45.028 0 0 1-4.307-.377l7.41 21.06zM780.603 397.101a530.416 530.416 0 0 1 9.982 10.81 296.953 296.953 0 0 0-9.929-34.822 42.564 42.564 0 0 1-6.83 2.23 290.315 290.315 0 0 1 6.777 21.782M601.87 603.05l-28.17-36.423a44.463 44.463 0 0 1-2.674 2.898l26.509 33.525zM455.548 602.796l8.599-24.8c-1.436.142-2.882.26-4.342.355l-8.092 24.174c1.295.03 2.575.119 3.835.27M396.342 606.646l24.08-30.743c-1.416-.24-2.823-.49-4.222-.748l-22.676 29.6a15.066 15.066 0 0 1 2.818 1.891M630.261 348.176c.318.428.652.843.956 1.284a38.191 38.191 0 0 1 8.616-5.799l44.373-41.48a42.96 42.96 0 0 1-1.582-1.912zM456.725 237.567l28.255 172.587c.565.638 1.139 1.265 1.7 1.906a336.541 336.541 0 0 1 3.951 4.267L459.426 237.76a42.517 42.517 0 0 1-2.701-.193M701.206 603.452l-44.194-29.067a37.343 37.343 0 0 1-2.479 2.17l43.572 27.993a14.937 14.937 0 0 1 3.101-1.096M713.157 671.215a295.034 295.034 0 0 1-34.094 31.643l-25.104-32.46c-.845.25-1.733.467-2.652.658l26.144 33.063c-24.752 19.293-52.672 34.693-82.834 45.298l-26.476-77.9a37.674 37.674 0 0 1-3.305-.57l27.851 79.15c-29.242 10.052-60.56 15.589-93.123 15.79l.29-94.6h-3.06l.724 94.622c-32.582-.022-63.935-5.393-93.23-15.278l28.828-83.143c-.117-.063-.24-.117-.356-.181a15.18 15.18 0 0 1-3.547 2.428l-26.857 80.225c-30.244-10.443-58.254-25.711-83.117-44.877l27.29-34.841c-.44-.123-.88-.25-1.316-.387a44.085 44.085 0 0 1-1.242-.42l-26.355 34.403a295.155 295.155 0 0 1-35.48-32.778c-2.5.509-5.099.773-7.782.773-.403 0-.802-.014-1.202-.026a305.842 305.842 0 0 0 12.488 13.284c56.648 56.647 131.964 87.845 212.077 87.845 80.112 0 155.43-31.198 212.077-87.845a305.606 305.606 0 0 0 15.097-16.233 14.991 14.991 0 0 1-2.5-2.018 14.975 14.975 0 0 1-9.234 4.375M437.63 489.803a215.365 215.365 0 0 0-2.507-3.263l-4.366 1.141c.084.462.163.915.248 1.381 2.142.599 4.197 1.118 6.212 1.594l.87-.218-.457-.635M377.334 253.932l55.78 103.83c2.78 2.534 5.386 5.027 7.836 7.372l1.14 1.099-62.137-112.747c-.87.165-1.744.31-2.619.446M220.75 361.617a37.112 37.112 0 0 1-1.474-.444 295.9 295.9 0 0 0-4.998 13.369c.392-.676.773-1.357 1.174-2.028a113.168 113.168 0 0 1 5.297-10.897M304.526 297.272l41.467 38.41a53.528 53.528 0 0 1 3-1.324l-42.629-38.643c-.624.524-1.234 1.042-1.838 1.557M617.478 249.783c-.373.102-.749.18-1.123.27l-39.82 73.043a46.093 46.093 0 0 1 4.032-.394l38.793-73.014c-.625.047-1.252.081-1.882.095M235.564 603.526A290.592 290.592 0 0 1 216.7 555.63a35.164 35.164 0 0 1-4.961 8.188 295.996 295.996 0 0 0 15.977 40.088c1.302.367 2.579.797 3.82 1.307a15.075 15.075 0 0 1 4.028-1.686M217.283 656.81c-2.946 0-5.656-.481-8.13-1.445-2.474-.963-4.629-2.337-6.465-4.12a19.086 19.086 0 0 1-4.283-6.22c-1.019-2.363-1.528-4.983-1.528-7.857 0-2.873.51-5.491 1.528-7.857a18.925 18.925 0 0 1 4.31-6.22c1.855-1.781 4.02-3.155 6.493-4.12 2.473-.962 5.183-1.445 8.13-1.445 3.128 0 5.983.537 8.566 1.61a16.974 16.974 0 0 1 6.548 4.774l-4.583 4.31c-1.419-1.491-2.983-2.61-4.692-3.355-1.71-.745-3.547-1.12-5.512-1.12-2 0-3.828.329-5.484.983-1.655.655-3.09 1.582-4.31 2.783a12.973 12.973 0 0 0-2.864 4.256c-.692 1.637-1.037 3.438-1.037 5.4 0 1.966.345 3.767 1.037 5.403a12.973 12.973 0 0 0 2.864 4.256c1.22 1.2 2.655 2.128 4.31 2.783 1.656.655 3.484.982 5.484.982 1.965 0 3.801-.372 5.512-1.118 1.71-.745 3.273-1.883 4.692-3.411l4.583 4.31c-1.783 2.11-3.965 3.71-6.548 4.802-2.583 1.092-5.456 1.637-8.62 1.637M239.272 618.072h7.094v38.194h-7.094zM274.355 656.81c-2.946 0-5.656-.481-8.13-1.445-2.474-.963-4.63-2.337-6.465-4.12a19.086 19.086 0 0 1-4.283-6.22c-1.02-2.363-1.528-4.983-1.528-7.857 0-2.873.509-5.491 1.528-7.857a18.925 18.925 0 0 1 4.31-6.22c1.855-1.781 4.019-3.155 6.493-4.12 2.473-.962 5.183-1.445 8.13-1.445 3.128 0 5.983.537 8.566 1.61a16.974 16.974 0 0 1 6.548 4.774l-4.583 4.31c-1.42-1.491-2.983-2.61-4.692-3.355-1.711-.745-3.547-1.12-5.512-1.12-2 0-3.828.329-5.484.983-1.655.655-3.091 1.582-4.31 2.783a12.973 12.973 0 0 0-2.864 4.256c-.692 1.637-1.037 3.438-1.037 5.4 0 1.966.345 3.767 1.037 5.403a12.973 12.973 0 0 0 2.864 4.256c1.219 1.2 2.655 2.128 4.31 2.783 1.656.655 3.484.982 5.484.982 1.965 0 3.8-.372 5.512-1.118 1.709-.745 3.273-1.883 4.692-3.411l4.583 4.31c-1.783 2.11-3.965 3.71-6.548 4.802-2.583 1.092-5.456 1.637-8.621 1.637M296.343 656.265v-38.193h7.094v32.192h19.969v6.001zM329.026 618.072h7.093v38.194h-7.093zM358.272 656.81c-2.983 0-5.83-.427-8.54-1.281-2.71-.854-4.884-1.955-6.52-3.301l2.456-5.511c1.526 1.2 3.418 2.2 5.673 3 2.255.802 4.565 1.2 6.93 1.2 2 0 3.618-.217 4.856-.653 1.236-.437 2.147-1.028 2.728-1.774a4.018 4.018 0 0 0 .873-2.537c0-1.163-.418-2.1-1.255-2.81-.838-.71-1.918-1.272-3.247-1.691a48.689 48.689 0 0 0-4.418-1.146 52.648 52.648 0 0 1-4.856-1.282 21.838 21.838 0 0 1-4.448-1.937 9.257 9.257 0 0 1-3.247-3.138c-.817-1.31-1.226-2.982-1.226-5.02 0-2.073.553-3.973 1.663-5.701 1.11-1.728 2.801-3.11 5.075-4.147 2.274-1.037 5.156-1.555 8.649-1.555 2.291 0 4.563.29 6.82.873 2.255.582 4.219 1.419 5.892 2.51l-2.238 5.51a21.054 21.054 0 0 0-5.291-2.264c-1.82-.49-3.565-.736-5.238-.736-1.93 0-3.512.237-4.748.709-1.238.473-2.137 1.1-2.7 1.883a4.324 4.324 0 0 0-.846 2.59c0 1.166.409 2.102 1.227 2.81.82.71 1.892 1.266 3.22 1.666 1.327.4 2.81.782 4.446 1.145 1.637.364 3.256.79 4.857 1.282 1.6.492 3.072 1.128 4.42 1.91a9.347 9.347 0 0 1 3.246 3.11c.817 1.292 1.226 2.938 1.226 4.938 0 2.038-.553 3.92-1.663 5.647-1.11 1.728-2.81 3.11-5.101 4.147-2.291 1.037-5.185 1.555-8.675 1.555M380.751 656.265v-38.193h5.838l16.696 27.88h-3.055l16.423-27.88h5.838l.11 38.193h-6.821v-27.663h1.365l-13.86 23.352h-3.219l-14.186-23.352h1.637v27.663zM450.754 650.591c1.928 0 3.701-.328 5.32-.982a12.584 12.584 0 0 0 4.229-2.783c1.2-1.2 2.137-2.619 2.809-4.256.673-1.637 1.01-3.437 1.01-5.402 0-1.964-.327-3.765-.982-5.4a12.333 12.333 0 0 0-2.81-4.257 12.89 12.89 0 0 0-4.256-2.783c-1.619-.655-3.392-.982-5.32-.982-1.928 0-3.72.327-5.374.982-1.655.655-3.083 1.592-4.283 2.81a13.627 13.627 0 0 0-2.837 4.256c-.692 1.62-1.037 3.41-1.037 5.374 0 1.93.345 3.711 1.037 5.347a13.526 13.526 0 0 0 2.837 4.284c1.2 1.22 2.628 2.155 4.283 2.81 1.654.654 3.446.982 5.374.982m0 6.22c-2.946 0-5.684-.49-8.211-1.473-2.529-.982-4.72-2.364-6.575-4.147a18.828 18.828 0 0 1-4.311-6.247c-1.018-2.382-1.527-4.974-1.527-7.776 0-2.837.509-5.447 1.527-7.829a18.552 18.552 0 0 1 4.311-6.22c1.855-1.764 4.038-3.138 6.548-4.12 2.509-.982 5.256-1.473 8.238-1.473 2.946 0 5.675.482 8.185 1.446 2.509.964 4.683 2.328 6.52 4.092a18.682 18.682 0 0 1 4.283 6.247c1.018 2.401 1.528 5.02 1.528 7.857 0 2.838-.51 5.448-1.528 7.83a19.03 19.03 0 0 1-4.283 6.247c-1.837 1.783-4.011 3.157-6.52 4.12-2.51.963-5.239 1.446-8.185 1.446M493.857 618.072h7.094v38.194h-7.094zM511.263 656.265v-38.193h5.838l23.953 29.463h-2.892v-29.463h6.984v38.193h-5.838l-23.9-29.463h2.893v29.463zM573.137 656.81c-2.946 0-5.657-.481-8.13-1.445-2.474-.963-4.63-2.337-6.466-4.12a19.101 19.101 0 0 1-4.283-6.22c-1.018-2.363-1.527-4.983-1.527-7.857 0-2.873.509-5.491 1.527-7.857a18.913 18.913 0 0 1 4.31-6.22c1.856-1.781 4.019-3.155 6.494-4.12 2.472-.962 5.183-1.445 8.13-1.445 3.128 0 5.983.537 8.566 1.61 2.582 1.073 4.765 2.665 6.547 4.774l-4.583 4.31c-1.42-1.491-2.983-2.61-4.692-3.355-1.71-.745-3.547-1.12-5.511-1.12-2.001 0-3.83.329-5.484.983-1.656.655-3.092 1.582-4.31 2.783a12.973 12.973 0 0 0-2.864 4.256c-.692 1.637-1.037 3.438-1.037 5.4 0 1.966.345 3.767 1.037 5.403a12.973 12.973 0 0 0 2.864 4.256c1.218 1.2 2.654 2.128 4.31 2.783 1.655.655 3.483.982 5.484.982 1.964 0 3.8-.372 5.51-1.118 1.71-.745 3.274-1.883 4.693-3.411l4.583 4.31c-1.782 2.11-3.965 3.71-6.547 4.802-2.583 1.092-5.457 1.637-8.621 1.637M595.125 656.265v-38.193h7.093v32.192h19.97v6.001zM643.63 656.81c-5.201 0-9.283-1.472-12.248-4.418-2.965-2.947-4.446-7.221-4.446-12.823v-21.497h7.092v21.279c0 3.929.846 6.785 2.538 8.566 1.69 1.783 4.083 2.674 7.174 2.674 3.092 0 5.475-.891 7.148-2.674 1.673-1.781 2.51-4.637 2.51-8.566v-21.28h6.984v21.498c0 5.602-1.482 9.876-4.446 12.823-2.966 2.946-7.067 4.419-12.305 4.419M682.152 656.81c-2.983 0-5.83-.427-8.539-1.281-2.71-.854-4.884-1.955-6.52-3.301l2.455-5.511c1.528 1.2 3.418 2.2 5.674 3 2.255.802 4.565 1.2 6.93 1.2 2 0 3.62-.217 4.856-.653 1.237-.437 2.146-1.028 2.728-1.774a4.012 4.012 0 0 0 .873-2.537c0-1.163-.418-2.1-1.255-2.81s-1.919-1.272-3.246-1.691a48.715 48.715 0 0 0-4.42-1.146 52.648 52.648 0 0 1-4.856-1.282 21.853 21.853 0 0 1-4.447-1.937 9.26 9.26 0 0 1-3.247-3.138c-.818-1.31-1.227-2.982-1.227-5.02 0-2.073.554-3.973 1.664-5.701 1.11-1.728 2.801-3.11 5.075-4.147 2.273-1.037 5.156-1.555 8.648-1.555 2.292 0 4.564.29 6.82.873 2.256.582 4.22 1.419 5.893 2.51l-2.237 5.51a21.06 21.06 0 0 0-5.293-2.264c-1.819-.49-3.565-.736-5.238-.736-1.928 0-3.51.237-4.746.709-1.238.473-2.138 1.1-2.7 1.883a4.324 4.324 0 0 0-.847 2.59c0 1.166.41 2.102 1.227 2.81.82.71 1.891 1.266 3.22 1.666 1.327.4 2.81.782 4.446 1.145 1.637.364 3.255.79 4.857 1.282a21.136 21.136 0 0 1 4.42 1.91 9.341 9.341 0 0 1 3.246 3.11c.818 1.292 1.227 2.938 1.227 4.938 0 2.038-.554 3.92-1.664 5.647-1.11 1.728-2.81 3.11-5.1 4.147-2.293 1.037-5.185 1.555-8.677 1.555M704.632 618.072h7.094v38.194h-7.094zM733.059 656.265l-16.696-38.193h7.693l14.897 34.538h-4.475l15.169-34.538h7.038l-16.642 38.193zM778.237 650.591c1.928 0 3.701-.328 5.32-.982a12.598 12.598 0 0 0 4.23-2.783c1.2-1.2 2.135-2.619 2.808-4.256s1.01-3.437 1.01-5.402c0-1.964-.328-3.765-.982-5.4a12.336 12.336 0 0 0-2.81-4.257 12.89 12.89 0 0 0-4.257-2.783c-1.618-.655-3.39-.982-5.319-.982-1.929 0-3.72.327-5.375.982-1.655.655-3.082 1.592-4.283 2.81a13.627 13.627 0 0 0-2.837 4.256c-.692 1.62-1.036 3.41-1.036 5.374 0 1.93.344 3.711 1.036 5.347a13.526 13.526 0 0 0 2.837 4.284c1.201 1.22 2.628 2.155 4.283 2.81 1.655.654 3.446.982 5.375.982m0 6.22c-2.946 0-5.684-.49-8.212-1.473-2.528-.982-4.72-2.364-6.575-4.147a18.84 18.84 0 0 1-4.31-6.247c-1.019-2.382-1.528-4.974-1.528-7.776 0-2.837.51-5.447 1.528-7.829a18.564 18.564 0 0 1 4.31-6.22c1.855-1.764 4.038-3.138 6.548-4.12 2.51-.982 5.256-1.473 8.24-1.473 2.945 0 5.674.482 8.184 1.446 2.51.964 4.682 2.328 6.52 4.092a18.668 18.668 0 0 1 4.282 6.247c1.02 2.401 1.53 5.02 1.53 7.857 0 2.838-.51 5.448-1.53 7.83a19.014 19.014 0 0 1-4.283 6.247c-1.837 1.783-4.01 3.157-6.519 4.12-2.51.963-5.239 1.446-8.185 1.446" fill="#fff"/><path d="M217.283 656.81c-2.946 0-5.656-.481-8.13-1.445-2.474-.963-4.629-2.337-6.465-4.12a19.086 19.086 0 0 1-4.283-6.22c-1.019-2.363-1.528-4.983-1.528-7.857 0-2.873.51-5.491 1.528-7.857a18.925 18.925 0 0 1 4.31-6.22c1.855-1.781 4.02-3.155 6.493-4.12 2.473-.962 5.183-1.445 8.13-1.445 3.128 0 5.983.537 8.566 1.61a16.974 16.974 0 0 1 6.548 4.774l-4.583 4.31c-1.419-1.491-2.983-2.61-4.692-3.355-1.71-.745-3.547-1.12-5.512-1.12-2 0-3.828.329-5.484.983-1.655.655-3.09 1.582-4.31 2.783a12.973 12.973 0 0 0-2.864 4.256c-.692 1.637-1.037 3.438-1.037 5.4 0 1.966.345 3.767 1.037 5.403a12.973 12.973 0 0 0 2.864 4.256c1.22 1.2 2.655 2.128 4.31 2.783 1.656.655 3.484.982 5.484.982 1.965 0 3.801-.372 5.512-1.118 1.71-.745 3.273-1.883 4.692-3.411l4.583 4.31c-1.783 2.11-3.965 3.71-6.548 4.802-2.583 1.092-5.456 1.637-8.62 1.637M239.272 618.072h7.094v38.194h-7.094zM274.355 656.81c-2.946 0-5.656-.481-8.13-1.445-2.474-.963-4.63-2.337-6.465-4.12a19.086 19.086 0 0 1-4.283-6.22c-1.02-2.363-1.528-4.983-1.528-7.857 0-2.873.509-5.491 1.528-7.857a18.925 18.925 0 0 1 4.31-6.22c1.855-1.781 4.019-3.155 6.493-4.12 2.473-.962 5.183-1.445 8.13-1.445 3.128 0 5.983.537 8.566 1.61a16.974 16.974 0 0 1 6.548 4.774l-4.583 4.31c-1.42-1.491-2.983-2.61-4.692-3.355-1.711-.745-3.547-1.12-5.512-1.12-2 0-3.828.329-5.484.983-1.655.655-3.091 1.582-4.31 2.783a12.973 12.973 0 0 0-2.864 4.256c-.692 1.637-1.037 3.438-1.037 5.4 0 1.966.345 3.767 1.037 5.403a12.973 12.973 0 0 0 2.864 4.256c1.219 1.2 2.655 2.128 4.31 2.783 1.656.655 3.484.982 5.484.982 1.965 0 3.8-.372 5.512-1.118 1.709-.745 3.273-1.883 4.692-3.411l4.583 4.31c-1.783 2.11-3.965 3.71-6.548 4.802-2.583 1.092-5.456 1.637-8.621 1.637M296.343 656.265v-38.193h7.094v32.192h19.969v6.001zM329.026 618.072h7.093v38.194h-7.093zM358.272 656.81c-2.983 0-5.83-.427-8.54-1.281-2.71-.854-4.884-1.955-6.52-3.301l2.456-5.511c1.526 1.2 3.418 2.2 5.673 3 2.255.802 4.565 1.2 6.93 1.2 2 0 3.618-.217 4.856-.653 1.236-.437 2.147-1.028 2.728-1.774a4.018 4.018 0 0 0 .873-2.537c0-1.163-.418-2.1-1.255-2.81-.838-.71-1.918-1.272-3.247-1.691a48.689 48.689 0 0 0-4.418-1.146 52.648 52.648 0 0 1-4.856-1.282 21.838 21.838 0 0 1-4.448-1.937 9.257 9.257 0 0 1-3.247-3.138c-.817-1.31-1.226-2.982-1.226-5.02 0-2.073.553-3.973 1.663-5.701 1.11-1.728 2.801-3.11 5.075-4.147 2.274-1.037 5.156-1.555 8.649-1.555 2.291 0 4.563.29 6.82.873 2.255.582 4.219 1.419 5.892 2.51l-2.238 5.51a21.054 21.054 0 0 0-5.291-2.264c-1.82-.49-3.565-.736-5.238-.736-1.93 0-3.512.237-4.748.709-1.238.473-2.137 1.1-2.7 1.883a4.324 4.324 0 0 0-.846 2.59c0 1.166.409 2.102 1.227 2.81.82.71 1.892 1.266 3.22 1.666 1.327.4 2.81.782 4.446 1.145 1.637.364 3.256.79 4.857 1.282 1.6.492 3.072 1.128 4.42 1.91a9.347 9.347 0 0 1 3.246 3.11c.817 1.292 1.226 2.938 1.226 4.938 0 2.038-.553 3.92-1.663 5.647-1.11 1.728-2.81 3.11-5.101 4.147-2.291 1.037-5.185 1.555-8.675 1.555M380.751 656.265v-38.193h5.838l16.696 27.88h-3.055l16.423-27.88h5.838l.11 38.193h-6.821v-27.663h1.365l-13.86 23.352h-3.219l-14.186-23.352h1.637v27.663zM450.754 650.591c1.928 0 3.701-.328 5.32-.982a12.584 12.584 0 0 0 4.229-2.783c1.2-1.2 2.137-2.619 2.809-4.256.673-1.637 1.01-3.437 1.01-5.402 0-1.964-.327-3.765-.982-5.4a12.333 12.333 0 0 0-2.81-4.257 12.89 12.89 0 0 0-4.256-2.783c-1.619-.655-3.392-.982-5.32-.982-1.928 0-3.72.327-5.374.982-1.655.655-3.083 1.592-4.283 2.81a13.627 13.627 0 0 0-2.837 4.256c-.692 1.62-1.037 3.41-1.037 5.374 0 1.93.345 3.711 1.037 5.347a13.526 13.526 0 0 0 2.837 4.284c1.2 1.22 2.628 2.155 4.283 2.81 1.654.654 3.446.982 5.374.982m0 6.22c-2.946 0-5.684-.49-8.211-1.473-2.529-.982-4.72-2.364-6.575-4.147a18.828 18.828 0 0 1-4.311-6.247c-1.018-2.382-1.527-4.974-1.527-7.776 0-2.837.509-5.447 1.527-7.829a18.552 18.552 0 0 1 4.311-6.22c1.855-1.764 4.038-3.138 6.548-4.12 2.509-.982 5.256-1.473 8.238-1.473 2.946 0 5.675.482 8.185 1.446 2.509.964 4.683 2.328 6.52 4.092a18.682 18.682 0 0 1 4.283 6.247c1.018 2.401 1.528 5.02 1.528 7.857 0 2.838-.51 5.448-1.528 7.83a19.03 19.03 0 0 1-4.283 6.247c-1.837 1.783-4.011 3.157-6.52 4.12-2.51.963-5.239 1.446-8.185 1.446M493.857 618.072h7.094v38.194h-7.094zM511.263 656.265v-38.193h5.838l23.953 29.463h-2.892v-29.463h6.984v38.193h-5.838l-23.9-29.463h2.893v29.463zM573.137 656.81c-2.946 0-5.657-.481-8.13-1.445-2.474-.963-4.63-2.337-6.466-4.12a19.101 19.101 0 0 1-4.283-6.22c-1.018-2.363-1.527-4.983-1.527-7.857 0-2.873.509-5.491 1.527-7.857a18.913 18.913 0 0 1 4.31-6.22c1.856-1.781 4.019-3.155 6.494-4.12 2.472-.962 5.183-1.445 8.13-1.445 3.128 0 5.983.537 8.566 1.61 2.582 1.073 4.765 2.665 6.547 4.774l-4.583 4.31c-1.42-1.491-2.983-2.61-4.692-3.355-1.71-.745-3.547-1.12-5.511-1.12-2.001 0-3.83.329-5.484.983-1.656.655-3.092 1.582-4.31 2.783a12.973 12.973 0 0 0-2.864 4.256c-.692 1.637-1.037 3.438-1.037 5.4 0 1.966.345 3.767 1.037 5.403a12.973 12.973 0 0 0 2.864 4.256c1.218 1.2 2.654 2.128 4.31 2.783 1.655.655 3.483.982 5.484.982 1.964 0 3.8-.372 5.51-1.118 1.71-.745 3.274-1.883 4.693-3.411l4.583 4.31c-1.782 2.11-3.965 3.71-6.547 4.802-2.583 1.092-5.457 1.637-8.621 1.637M595.125 656.265v-38.193h7.093v32.192h19.97v6.001zM643.63 656.81c-5.201 0-9.283-1.472-12.248-4.418-2.965-2.947-4.446-7.221-4.446-12.823v-21.497h7.092v21.279c0 3.929.846 6.785 2.538 8.566 1.69 1.783 4.083 2.674 7.174 2.674 3.092 0 5.475-.891 7.148-2.674 1.673-1.781 2.51-4.637 2.51-8.566v-21.28h6.984v21.498c0 5.602-1.482 9.876-4.446 12.823-2.966 2.946-7.067 4.419-12.305 4.419M682.152 656.81c-2.983 0-5.83-.427-8.539-1.281-2.71-.854-4.884-1.955-6.52-3.301l2.455-5.511c1.528 1.2 3.418 2.2 5.674 3 2.255.802 4.565 1.2 6.93 1.2 2 0 3.62-.217 4.856-.653 1.237-.437 2.146-1.028 2.728-1.774a4.012 4.012 0 0 0 .873-2.537c0-1.163-.418-2.1-1.255-2.81s-1.919-1.272-3.246-1.691a48.715 48.715 0 0 0-4.42-1.146 52.648 52.648 0 0 1-4.856-1.282 21.853 21.853 0 0 1-4.447-1.937 9.26 9.26 0 0 1-3.247-3.138c-.818-1.31-1.227-2.982-1.227-5.02 0-2.073.554-3.973 1.664-5.701 1.11-1.728 2.801-3.11 5.075-4.147 2.273-1.037 5.156-1.555 8.648-1.555 2.292 0 4.564.29 6.82.873 2.256.582 4.22 1.419 5.893 2.51l-2.237 5.51a21.06 21.06 0 0 0-5.293-2.264c-1.819-.49-3.565-.736-5.238-.736-1.928 0-3.51.237-4.746.709-1.238.473-2.138 1.1-2.7 1.883a4.324 4.324 0 0 0-.847 2.59c0 1.166.41 2.102 1.227 2.81.82.71 1.891 1.266 3.22 1.666 1.327.4 2.81.782 4.446 1.145 1.637.364 3.255.79 4.857 1.282a21.136 21.136 0 0 1 4.42 1.91 9.341 9.341 0 0 1 3.246 3.11c.818 1.292 1.227 2.938 1.227 4.938 0 2.038-.554 3.92-1.664 5.647-1.11 1.728-2.81 3.11-5.1 4.147-2.293 1.037-5.185 1.555-8.677 1.555M704.632 618.072h7.094v38.194h-7.094zM733.059 656.265l-16.696-38.193h7.693l14.897 34.538h-4.475l15.169-34.538h7.038l-16.642 38.193zM778.237 650.591c1.928 0 3.701-.328 5.32-.982a12.598 12.598 0 0 0 4.23-2.783c1.2-1.2 2.135-2.619 2.808-4.256s1.01-3.437 1.01-5.402c0-1.964-.328-3.765-.982-5.4a12.336 12.336 0 0 0-2.81-4.257 12.89 12.89 0 0 0-4.257-2.783c-1.618-.655-3.39-.982-5.319-.982-1.929 0-3.72.327-5.375.982-1.655.655-3.082 1.592-4.283 2.81a13.627 13.627 0 0 0-2.837 4.256c-.692 1.62-1.036 3.41-1.036 5.374 0 1.93.344 3.711 1.036 5.347a13.526 13.526 0 0 0 2.837 4.284c1.201 1.22 2.628 2.155 4.283 2.81 1.655.654 3.446.982 5.375.982m0 6.22c-2.946 0-5.684-.49-8.212-1.473-2.528-.982-4.72-2.364-6.575-4.147a18.84 18.84 0 0 1-4.31-6.247c-1.019-2.382-1.528-4.974-1.528-7.776 0-2.837.51-5.447 1.528-7.829a18.564 18.564 0 0 1 4.31-6.22c1.855-1.764 4.038-3.138 6.548-4.12 2.51-.982 5.256-1.473 8.24-1.473 2.945 0 5.674.482 8.184 1.446 2.51.964 4.682 2.328 6.52 4.092a18.668 18.668 0 0 1 4.282 6.247c1.02 2.401 1.53 5.02 1.53 7.857 0 2.838-.51 5.448-1.53 7.83a19.014 19.014 0 0 1-4.283 6.247c-1.837 1.783-4.01 3.157-6.519 4.12-2.51.963-5.239 1.446-8.185 1.446" fill="#fff"/><path d="M319.827 787.626c-2.564-1.463-4.808-3.232-6.734-5.305-1.926-2.072-3.246-4.08-3.962-6.023l4.815-3.532c.724 1.781 1.858 3.57 3.404 5.364a20.363 20.363 0 0 0 5.368 4.431c1.72.981 3.217 1.588 4.495 1.82 1.277.231 2.348.17 3.215-.186a3.972 3.972 0 0 0 1.995-1.753c.571-1 .671-2.01.3-3.03-.372-1.02-1.025-2.036-1.96-3.047a54.368 54.368 0 0 0-3.224-3.177 67.185 67.185 0 0 1-3.545-3.484c-1.15-1.217-2.104-2.486-2.862-3.81a9.451 9.451 0 0 1-1.25-4.289c-.078-1.537.383-3.179 1.383-4.93 1.017-1.783 2.426-3.144 4.228-4.085 1.8-.94 3.933-1.299 6.396-1.075 2.462.224 5.194 1.193 8.196 2.906a26.951 26.951 0 0 1 5.434 4.097c1.653 1.607 2.931 3.29 3.834 5.048l-4.627 3.64a20.795 20.795 0 0 0-3.438-4.543c-1.323-1.315-2.703-2.383-4.14-3.204-1.689-.963-3.174-1.54-4.452-1.732-1.28-.19-2.349-.097-3.209.283-.86.38-1.53.992-2.012 1.836-.57 1.001-.678 2.007-.323 3.018.356 1.011 1.005 2.014 1.951 3.01a72.493 72.493 0 0 0 3.246 3.19 90.511 90.511 0 0 1 3.57 3.498c1.158 1.2 2.12 2.454 2.887 3.762a8.989 8.989 0 0 1 1.242 4.253c.061 1.527-.4 3.151-1.38 4.87a10.147 10.147 0 0 1-4.202 4.037c-1.802.941-3.94 1.295-6.419 1.061-2.479-.232-5.219-1.206-8.22-2.919M348.96 792.574l3.9-4.325 18.776 8.01-.423 5.807zm-10.634 4.975 30.478-28.095 6.358 2.712.863 41.464-6.754-2.882-.091-37.083 2.583 1.102-26.781 25.62zM384.829 816.468l10.134-36.416 5.567 1.549 15.034 34.396-2.756-.767 7.803-28.041 6.71 1.868-10.134 36.416-5.566-1.55-15.035-34.395 2.757.767-7.803 28.04zM459.88 832.038l-13.073-39.128 7.584.682 11.622 35.364-4.357-.39 17.905-32.71 6.992.627-19.79 36.174zM490.55 833.714l.338-37.798 7.02.062-.338 37.8zM528.38 833.196c-2.874.205-5.574-.083-8.101-.859-2.527-.776-4.76-1.97-6.696-3.584a18.456 18.456 0 0 1-4.667-5.867c-1.174-2.298-1.86-4.848-2.06-7.649-.198-2.8.12-5.422.958-7.864a18.3 18.3 0 0 1 3.816-6.47c1.708-1.87 3.749-3.37 6.124-4.495 2.374-1.125 5.015-1.79 7.924-1.998 3.088-.219 5.944.111 8.569.988 2.625.88 4.89 2.297 6.799 4.254l-4.222 4.577c-1.47-1.375-3.074-2.37-4.814-2.988-1.741-.615-3.598-.854-5.573-.713-1.975.14-3.757.591-5.344 1.354a12.61 12.61 0 0 0-4.06 3.05 12.54 12.54 0 0 0-2.503 4.4c-.55 1.663-.755 3.464-.617 5.403.137 1.94.595 3.693 1.375 5.262a12.504 12.504 0 0 0 3.1 4.002c1.286 1.1 2.77 1.915 4.45 2.445 1.68.53 3.507.725 5.482.585s3.78-.638 5.416-1.495c1.635-.855 3.082-2.087 4.339-3.692l4.83 3.988c-1.613 2.172-3.657 3.887-6.13 5.145-2.473 1.26-5.271 2-8.395 2.221M556.251 806.97l18.452-3.558 1.095 5.674-18.452 3.558zm3.597 15.805 20.946-4.037 1.113 5.779-27.838 5.366-7.154-37.116 27.093-5.224 1.115 5.78-20.202 3.894zM593.716 821.548l-11.774-35.919 5.491-1.8 31.592 20.274-2.72.892-9.065-27.658 6.62-2.17 11.773 35.92-5.49 1.8-31.593-20.276 2.72-.89 9.065 27.658zM645.773 802.266l-13.462-28.876-11.354 5.293-2.51-5.384 29.072-13.553 2.51 5.384-11.355 5.294 13.461 28.876zM665.6 767.314l16.09-9.708 2.986 4.946-16.09 9.71zm8.833 13.591 18.263-11.019 3.04 5.04-24.273 14.646-19.53-32.364 23.627-14.257 3.04 5.04-17.614 10.63z" fill="#1d1d1b"/><path d="M239.34 255.38c-10.083 3.074-20.716 6.696-29.993 11.903-.56.19-1.303.565-1.854 1.114 6.315 4.349 12.823 8.874 19.33 13.398 4.216 3.138 8.615 6.094 12.831 9.232a207.437 207.437 0 0 1 11.331-13.49c7.152-7.493 14.88-14.461 23.38-20.727a115.158 115.158 0 0 1 11.278-7.936c-4.704-.082-9.593.018-14.28.652-10.887.94-21.565 2.772-32.023 5.854m-42.599-41.587c-4.503.45-8.07.703-11.254 1.306-8.797 1.793-17.953 4.31-24.642 7.673-2.23 1.12-4.46 2.242-6.497 3.537-1.11.74-2.405 1.662-3.515 2.402l-.55.549c9.927 5.887 19.302 12.324 28.687 19.119a211.745 211.745 0 0 1 16.262-19.505 311.536 311.536 0 0 1 15.606-15.55c-4.704-.082-9.4.193-14.097.469m107.244 46.529c-7.519 7.859-16.394 14.133-24.114 21.458-11.227 10.085-20.739 21.03-29.674 32.502-.506 2.339-1.774 4.336-3.61 6.165-.734.732-1.469 1.464-2.212 1.837-2.002 2.729-4.004 5.458-5.63 8.178-2.91 4.002-7.756 5.893-12.33 3.478-.568-.167-.76-.342-1.146-.693a9.78 9.78 0 0 1-4.95-2.406c-4.234-3.855-3.999-9.593-.335-13.61.183-.183.367-.366.358-.724-11.913-10.146-24.377-19.745-36.84-29.343-5.012 2.79-10.836 3.089-15.647-1.291-3.848-3.504-4.53-8.327-2.95-12.84-.192-.174-.568-.166-.568-.166-10.356-8.03-20.713-16.058-31.252-23.904-2.798.953-5.614 1.19-8.238 1.602-7.328.33-18.635-.512-20.168-9.26-1.33-8.214 3.757-15.486 9.257-21.332 5.507-5.488 12.161-10.283 19.227-13.653 7.432-3.736 15.442-6.947 23.47-9.44 15.12-4.79 101.9-25.206 98.174 6.762-.27 4.305-1.292 8.626-4.799 11.386-4.607 3.857-8.857 6.99-14.208 11.22l-9.39 8.256c1.678-.572 3.174-.961 4.67-1.35 7.292-1.762 14.218-3.16 21.53-4.205 14.996-2.1 30.405-2.774 45.29-1.826 6.576-.314 13.18.446 16.704 6.107 5.695 9.736-4.018 20.149-10.619 27.092M300.79 106.291c.44 2.298.883 4.596.73 6.857 5.078 16.666 12.219 32.78 22.235 46.92 1.835 2.84 3.916 5.581 5.893 8.09.245-.1.49-.197.838-.062-13.028-18.982-22.587-39.903-28.02-61.927-.385.43-1.224.491-1.676.122m104.797 91.953c-.53.762-.812 1.425-1.095 2.088-1.17 3.22-3.925 8.721-7.262 12.258-12.353 17.046-38.97 17.53-57.223 8.891a80.446 80.446 0 0 1-17.018-11.059c-2.837 1.411-6.785 1.617-9.808-1.298-24.84-24.152-40.553-56.357-46.553-89.428-2.48-12.756-1.197-30.044 14.436-33.83 6.19-1.654 13.096.256 17.578 4.511 5.8 5.927 5.709 16.138 8.427 23.574 3.198 9.17 7.13 18.044 11.45 26.488 9.194 17.493 21.367 33.243 35.434 47.41 4.568 1.194 9.072 1.59 13.586.057 4.24-2.798 7.579-6.334 9.767-10.51 2.117-10.198-4.893-24.715-7.922-32.852-7.741-21.374-17.196-42.06-26.756-62.982-3.35-6.908 3.4-15.112 10.976-14.295l-1.035-2.335c-1.035-2.336.03-5.788 2.83-6.634 11.544-3.247 17.492 7.57 22.056 15.917 2.974 5.41 6.438 10.621 8.92 16.227l4.142 9.341c9.569 18.992 17.282 39.002 19.927 59.943 1.395 12.915.83 26.615-4.857 38.518M523.31 120.545c-8.348 2.193-16.684 4.134-25.032 6.327-5.38 1.3-10.495 2.612-15.6 3.67-.651 2.763-2.354 5.229-4.557 6.913 13.295-5.794 27.322-10.036 40.828-14.553a33.469 33.469 0 0 1 4.594-1.587zm-51.604 85.353c.266.01.532.022.808-.22 2.17-.925 4.34-1.851 6.243-2.787 4.34-1.85 8.414-3.712 12.488-5.573l.02-.506c-4.86 1.575-9.72 3.15-14.834 4.462-5.125 1.565-10.262 3.383-15.632 4.43 3.965.67 10.099.415 10.907.194m26.129-155.102c2.148-.42 4.03-.85 6.177-1.268 10.984-1.58 21.967-3.157 33.427-3.448 2.403-.155 4.795-.057 7.187.04-10.474 2.107-21.213 4.203-31.676 6.056-18.235 3.056-36.47 6.112-54.261 11.214-6.19 1.522-12.133 3.559-18.09 5.85-.52-.274-.487-1.033.066-1.518 17.922-8.14 37.828-12.901 57.17-16.926m84.704 128.458c-19.818 2.738-39.691 6.74-58.833 12.295-9.166 2.666-18.333 5.333-27.256 8.517l-.265-.011c-.543.232-1.351.452-1.893.683-2.978 1.146-5.946 2.039-8.924 3.184l-.276.243c-3.276 1.893-18.61 5.575-18.333 5.333 0 0-1.606.188-2.67.145-4.283.585-9.056.135-10.996-4.254-.477-1.287-.434-2.3-.113-3.554-6.535-2.803-10.725-10.58-8.05-17.062-1.222-8.671-1.361-17.803-1.776-26.693l-1.878-30.501-1.944-28.981c-3.047-3.42-4.434-8.294-3.716-12.575.75-5.04 3.305-8.738 7.157-11.622.287-.496.852-1.233 1.15-1.982 5.68-2.05 11.613-3.834 17.27-5.377 17.792-5.102 36.027-8.158 54.25-10.961 14.217-2.46 28.189-5.437 42.16-8.414 1.85.329 3.699.658 5.272 1.23 1.573.57 2.88 1.132 4.186 1.692 1.285 1.067 2.826 2.398 4.11 3.464 1.63 5.39 2.199 10.739.918 15.757-4.307 1.09-8.88 2.17-13.452 3.252-5.923 1.532-12.111 3.053-18.29 4.32-.542.233-1.084.463-1.616.442-13.706 2.988-40.343 9.503-43.321 10.648-8.624 2.436-17.26 5.124-25.64 8.077l-.553.485c.156 2.54 1.358 11.717 1.303 12.983 15.144-5.465 30.023-10.94 45.4-15.634 8.592-1.677 17.46-3.595 26.062-5.524 1.074-.21 2.414-.41 3.488-.618 3.21-.376 6.145-.51 9.345-.631 6.655.019 13.022.533 16.48 6.759.499.78.732 1.55.976 2.068.488 1.034.976 2.068 1.197 3.092.255.264.255.264.52.275 2.338 1.363 3.823 3.959 4.246 6.512.855 4.852-2.574 10.289-7.456 12.37-5.69 2.303-11.525 1.81-17.693 2.825-6.421.75-13.12 1.745-19.564 3.002-12.897 2.767-25.552 6.052-38.26 10.602-7.84 2.72-15.167 5.97-22.761 9.209.292 5.589.593 10.926.885 16.515l-.044 1.012c.277-.242.543-.231.819-.473 5.956-2.292 11.9-4.33 17.846-6.368 7.56-2.48 15.122-4.958 22.949-7.426 4.052-1.356 8.104-2.71 12.145-3.813 6.476-2.016 12.953-4.033 19.418-5.796l10.495-2.613c2.956-.64 5.668-1.795 8.624-2.435 20.638-3.211 24.727 19.267 25.167 33.735.069 4.567-2.21 8.023-5.497 10.17-.321 1.255-1.162 2.234-2.768 2.422M694.214 255.375c19.797-44.643 37.339-90.09 49.889-136.812.122-.793.6-1.696 2.03-2.142 1.907-.783 4.756.592 4.033 3.08-12.3 43.437-28.283 85.948-49.728 125.825-.602 1.696-3 6.781-4.915 9.83-.475-.23-.832-.118-1.31.22m-62.557-64.792s-.238-.114-.595-.003l-7.426 13.442c-1.918 3.615-2.3 9.957-6.72 14.918 2.624-1.572 5.134-4.617 5.975-6.765 2.039-4.408 4.197-9.04 6.119-13.789 1.438-2.71 2.518-5.31 3.719-8.137l-1.072.334m-7.17-53.395c7.794-16.386 16.184-32.768 24.573-49.15 1.799-3.955 4.55-8.019 8.13-10.833-4.072 7.116-7.668 14.461-11.265 21.805-8.03 15.705-15.942 31.75-23.854 47.794-7.675 16.16-17.027 35.482-24.822 51.868 0 0-1.19-.007 3.013-10.18 7.082-16.729 16.31-34.693 24.225-51.304m48.556 117.621c-4.973-5.804-2.683-13.495-.756-19.942a555.667 555.667 0 0 0 2.649-8.37l-4.055-90.197c-.586-2.269-.815-4.649-1.164-6.803-7.91 15.478-16.294 30.728-24.442 46.091-4.318 9.267-8.873 18.42-13.428 27.571-3.477 7.12-7.815 21.483-18.27 18.142-5.245 3.145-11.666 2.318-16.051-1.783-2.49-2.053-3.79-4.666-4.372-7.5 8.877-19.552 18.229-38.875 27.58-58.197 7.436-15.708 15.466-31.412 23.139-47.005 5.034-10.056 9.832-20.226 15.696-29.598 1.667-.33 3.808-.433 5.59.143.959-1.807 2.629-3.27 4.655-4.28 12.275-5.713 18.74 14.146 20.257 21.971 2.682 14.062 3.58 28.114 4.12 42.278.789 11.446.983 22.89.82 34.443-.005 1.133-.364 1.811-.723 2.49.107 3.171.095 6.003.085 8.835 4.803-11.869 8.542-25.104 12.515-37.658 2.65-8.935 5.54-17.756 7.478-27.035 1.09-4.866 1.229-10.19 6.237-13.449 1.789-1.123 4.053-2.018 6.194-2.119.12-.226.357-.112.477-.338 5.485-3.596 12.37.292 14.969 4.951.593.57.828 1.25 1.063 1.931-1.326 4.751-2.178 9.732-3.268 14.597-3.15 14.937-8.084 29.865-13.135 44.452-9.87 29.855-22.114 59.132-34.952 87.838-4.41 2.13-9.647 3.008-14.158.832-1.904.216-3.684-.926-4.75-2.29M813.984 252.16c4.333-4.9 17.142-17.104 24.656-26.629-14.05 6.19-24.184 10.5-35.204 16.544 2.838 2.356 7.91 7.564 10.548 10.085m-22.404 26.788-13.773-14.803c-14.68 7.042-28.463 14.687-41.603 23.813-2.414 1.984-5.372-1.278-2.784-3.07 12.94-8.96 26.776-17.32 41.95-23.429l-1.565-1.727c-12.12 5.607-35.596 19.21-35.596 19.21l-10.096 6.288c-19.698 13.511-38.456-12.599-17.285-25.647 13.26-8.219 26.668-15.89 40.945-22.602-1.767-1.56-3.708-3.315-5.1-4.85.576-.139 1.555-.609 1.985-1.296-7.918-14.928 14.009-32.95 38.335-13.09 15.713-8.226 31.572-15.903 48.568-21.165 10.978-2.994 26.93-9.408 36.004.214 3.159 3.097 4.225 8.92 2.398 13.1 4.644 5.895 4.275 13.232-1.641 19.1-7.524 7.188-15.076 14.735-22.225 21.951-.028.357-.028.357.147.55 7.013-5.43 14.402-10.834 21.736-15.523 2.186-1.46-27.146 24.657-37.998 35.921 11.413 16.072-4.777 33.064-21.388 28.297-9.606 12.25-22.943 28.905-33.62 40.361-16.191 16.991-29.47 3.121-18.987-13.197-1.898-4.803 25.743-40.918 31.593-48.406M104.386 453.63h2.335c2.918 16.926 4.377 34.436 5.836 51.947.876 10.506-1.459 13.425-2.626 20.43-1.167-24.224-2.043-48.447-5.545-72.378M89.794 396.72c1.46-1.459 4.378-1.459 4.67 1.168 1.458 6.128 2.918 12.257 4.085 18.385 1.46.292 3.21.292 4.67.584.292-1.459 1.167-3.21 2.626-4.378 8.755-5.545 18.386 2.335 25.1 7.88 9.338 1.167 18.968 2.335 28.307 3.502-22.472-15.467-45.819-28.016-70.918-33.853.293 1.46.584 3.21.876 4.67.292.583.292 1.458.584 2.042m117.028 48.738c-.583 5.544-6.128 10.506-10.798 9.922-13.717-.876-27.433-2.043-41.15-3.21 7.88 11.673 14.885 23.64 21.013 36.188 7.88 16.635 18.094 35.021 15.76 53.991-.876 6.421-7.588 7.88-12.55 5.837-2.626.292-5.253.292-7.879-.875-.292 0-.584 0-.584-.293-.875.876-2.627 1.46-3.794.876-5.253-13.717-11.09-27.433-16.927-40.858-3.21-7.588-11.09-26.849-16.635-37.648-1.459-3.209-2.918-6.128-4.67-9.047v-.29a122.735 122.735 0 0 1-4.96-8.173c-7.588-.292-15.468-.876-23.056-1.167 1.46 13.132 2.626 26.557 3.21 39.982.876 14.3 2.335 29.184 1.46 43.484.291 1.752.291 3.502.291 4.962-1.75 3.502-3.794 6.42-6.712 8.755-3.794 3.21-9.63 3.502-13.133-.583-.875-1.46-1.459-2.919-1.75-4.67-2.336.584-5.254-1.459-5.254-4.669-1.459-6.129-.876-13.134-1.459-19.554-.876-6.42-1.75-12.84-2.627-19.262l-7.004-41.149c-.584-3.503-1.168-6.713-1.75-10.215h-1.752c0-.875-.584-1.75-1.75-2.043-3.21-.875-6.422-2.043-9.632-3.21 2.335-.292 4.378-.583 6.712-.876-2.918-1.167-6.128-2.918-8.755-4.669-8.17-5.253-4.669-19.845 4.086-19.845 1.751-.292 3.502-.292 5.253-.292-2.043-9.923-4.086-20.137-6.42-30.06 2.334-1.75 4.377-3.793 6.128-6.42-5.545-4.669-8.755-12.84-5.545-19.554 5.545-10.798 23.056-7.004 32.686-5.253 1.168 0 2.043.584 2.627 1.167 2.043.876 4.086 1.46 6.13 2.336.29 0 .582.291.874.291 32.102 10.215 60.995 30.06 89.595 49.322 2.335 1.751 3.502 4.085 4.086 6.42 4.086 2.92 8.172 6.13 11.966 9.047 4.67 3.502 6.42 8.755 5.545 15.176l-.876 6.13M281.82 395.553c-.875-2.043-1.751-4.378-2.918-6.421-.292-.291-.876-.583-1.168-.583h-1.46c-1.75 3.21-2.918 7.004-3.793 9.922-3.21 10.507-5.837 21.305-7.296 32.395-2.627 21.597-2.334 44.068 1.168 65.664.582 3.21.29 6.129-1.168 8.756-8.171-37.94-7.589-80.841 9.046-115.861-1.75 1.167-2.918 3.502-4.085 5.544-5.546 10.798-9.339 22.764-11.673 34.73-.293.584-.293.875-.584 1.167-1.168 6.713-1.752 13.425-2.335 20.137-.875 19.845 1.46 39.69 5.837 58.66-.877.584-2.043 1.168-3.21 1.459-3.502.876-7.588 0-10.506-2.043.29 0 .29 0 .29.293 4.67 9.63 14.886 21.596 27.434 17.802 3.502-1.168 6.129-3.794 7.88-7.004 1.752-3.211 3.21-6.421 4.086-9.923 4.962-13.717 6.712-28.308 6.712-42.61-1.168-14.591-2.043-29.475-4.377-43.775-.876-4.378-1.46-8.755-2.335-12.841-1.752-5.254-3.502-10.507-5.546-15.468m30.351 131.913c-3.21 4.377-6.712 8.463-10.798 11.965-5.543 5.545-12.257 9.339-20.428 10.506a53.064 53.064 0 0 1-9.632 0c-9.63 1.752-20.428-1.75-28.308-8.171-13.715-11.674-19.552-29.184-22.471-46.403-5.836-37.356-.583-75.88 18.97-108.565.292 0 .292-.292.584-.584 2.918-7.587 6.712-14.592 11.673-21.012.292-.584.876-.292.584.29-1.751 2.92-3.502 5.839-4.67 8.757-1.458 3.21-2.626 6.42-3.794 9.63.876-.291 1.752 0 2.336 0 4.96-10.798 11.964-19.845 21.303-21.887 3.793-1.46 7.589-2.627 11.382-2.336 4.087-.875 9.048-.875 12.55 1.168 3.793 2.335 6.712 7.296 8.755 11.09 2.334-.876 5.252-.292 6.712 2.335 4.086 7.88 8.171 16.05 11.09 24.515 2.627 8.755 4.377 17.802 5.838 26.557 2.918 18.094 4.084 36.188 2.041 54.575-1.459 16.05-4.084 33.853-13.716 47.57M460.13 473.182c-8.757-11.674-18.679-22.763-29.769-32.394-11.09-10.215-22.764-18.678-36.48-26.558-1.75-.875-3.503-1.75-5.545-2.918 4.961 24.223 9.34 48.737 13.424 72.96 1.46 8.755 3.211 17.511 4.67 26.266 9.047 3.21 18.386 6.13 28.017 8.172 7.587 1.75 11.382 2.334 18.97 2.626 7.004 0 11.381 0 17.51-1.75 4.961-1.169 9.047-2.628 12.257-5.546-.583-3.794-2.335-7.004-4.086-10.506-1.75-3.502-3.502-7.297-5.545-10.507-4.377-6.712-8.755-13.424-13.424-19.845m-112.943-70.626c4.961 20.138 9.047 40.275 14.3 60.412 2.627 10.506 5.254 20.721 7.88 31.227 1.751.875 3.502 2.042 5.253 2.918-1.75-4.96-3.502-9.922-4.669-14.884-3.794-13.716-16.344-65.664-20.137-78.213-.292-1.168-3.503-5.545-2.627-1.46m126.367 145.63c-15.175 3.502-30.35 2.918-45.819.583-7.296-1.167-14.592-2.626-21.596-4.378-1.167 2.627-3.21 4.67-5.545 5.254-1.459.291-2.918 0-4.086-.584-1.167 1.168-2.627 2.043-4.669 2.043-3.794.292-7.88-.292-10.798-2.335-6.42-4.378-8.464-9.047-9.923-16.05-9.339-3.795-18.386-7.88-27.433-12.55-8.463-4.67-11.09-16.052-6.129-24.223 4.67-8.172 15.76-11.09 23.931-6.42.292.291.876.583 1.168.875-.584-3.503-1.168-6.712-2.043-10.215-6.42-32.686-13.133-65.08-19.846-97.475-.29-1.167-.875-2.335-1.167-3.21-1.75-5.837 2.626-10.798 7.88-11.673 1.46-.293 2.918-.584 4.085-.584 2.627-7.588 16.052-9.923 22.764-9.339 19.553 1.46 33.562 14.3 47.28 27.433 15.174 14.592 30.35 29.476 44.36 45.527 4.96 5.253 9.921 10.798 14.3 16.635 7.295 9.631 14.3 19.845 19.844 30.936 7.004 13.716 13.425 30.351 7.004 45.527-5.545 12.841-20.428 21.012-33.562 24.223M589.699 440.204c-1.167-7.296-2.626-27.14-5.545-40.566-4.67 16.344-8.171 28.017-10.798 41.734 4.086-.584 12.258-.876 16.343-1.168m7.296 38.815-22.763.292c-4.378 17.51-7.588 34.73-9.048 52.532 0 3.502-4.961 3.502-4.67 0 1.46-17.51 4.087-35.313 9.632-52.532h-2.627c-3.794 14.3-8.755 44.068-8.755 44.068l-1.751 13.133c-2.335 26.557-38.523 22.472-34.73-4.96 2.336-17.22 5.254-34.147 9.632-51.074-2.627.292-5.546.584-7.88.584.292-.584.584-1.75.292-2.626-18.678-4.67-18.678-36.48 16.05-41.734 4.087-19.26 8.756-38.23 16.344-56.325 5.253-11.382 11.09-29.476 25.974-29.768 4.96-.292 10.798 3.21 13.133 7.88 8.464.584 14.592 6.42 15.467 15.76.876 11.673 2.043 23.64 3.21 35.02.292.292.292.292.585.292.29-9.923.875-20.137 2.043-29.768.29-2.919 2.042 41.15 4.085 58.66 22.18 2.627 25.39 28.892 9.339 39.107 3.794 17.218 8.755 40.858 11.09 58.37 3.21 26.264-18.386 26.848-25.098 5.835-5.545-2.043-17.22-52.24-19.554-62.746" fill="#fff"/><path d="M767.717 473.182c-8.756-11.674-18.678-22.763-29.768-32.394-11.09-10.215-22.764-18.678-36.481-26.558-1.75-.875-3.502-1.75-5.544-2.918 4.96 24.223 9.339 48.737 13.424 72.96 1.459 8.755 3.21 17.511 4.67 26.266 9.047 3.21 18.386 6.13 28.017 8.172 7.587 1.75 11.382 2.334 18.969 2.626 7.005 0 11.382 0 17.51-1.75 4.963-1.169 9.048-2.628 12.258-5.546-.583-3.794-2.335-7.004-4.086-10.506-1.75-3.502-3.502-7.297-5.545-10.507-4.377-6.712-8.755-13.424-13.424-19.845m-112.943-70.626c4.96 20.138 9.047 40.275 14.3 60.412 2.627 10.506 5.254 20.721 7.88 31.227 1.75.875 3.502 2.042 5.253 2.918-1.751-4.96-3.502-9.922-4.67-14.884-3.793-13.716-16.343-65.664-20.136-78.213-.292-1.168-3.503-5.545-2.627-1.46m126.367 145.63c-15.175 3.502-30.351 2.918-45.82.583-7.295-1.167-14.591-2.626-21.595-4.378-1.167 2.627-3.21 4.67-5.545 5.254-1.46.291-2.918 0-4.086-.584-1.167 1.168-2.627 2.043-4.67 2.043-3.793.292-7.88-.292-10.797-2.335-6.421-4.378-8.464-9.047-9.923-16.05-9.34-3.795-18.386-7.88-27.433-12.55-8.463-4.67-11.09-16.052-6.13-24.223 4.67-8.172 15.76-11.09 23.932-6.42.292.291.876.583 1.168.875-.584-3.503-1.168-6.712-2.043-10.215-6.421-32.686-13.133-65.08-19.846-97.475-.291-1.167-.875-2.335-1.167-3.21-1.751-5.837 2.626-10.798 7.88-11.673 1.459-.293 2.918-.584 4.085-.584 2.627-7.588 16.052-9.923 22.764-9.339 19.553 1.46 33.562 14.3 47.279 27.433 15.175 14.592 30.35 29.476 44.36 45.527 4.96 5.253 9.923 10.798 14.3 16.635 7.296 9.631 14.3 19.845 19.845 30.936 7.004 13.716 13.425 30.351 7.004 45.527-5.545 12.841-20.428 21.012-33.562 24.223M897.287 440.204c-1.168-7.296-2.626-27.14-5.545-40.566-4.67 16.344-8.171 28.017-10.798 41.734 4.086-.584 12.258-.876 16.343-1.168m7.296 38.815-22.763.292c-4.379 17.51-7.588 34.73-9.048 52.532 0 3.502-4.962 3.502-4.67 0 1.46-17.51 4.087-35.313 9.632-52.532h-2.627c-3.794 14.3-8.755 44.068-8.755 44.068l-1.751 13.133c-2.335 26.557-38.523 22.472-34.73-4.96 2.336-17.22 5.254-34.147 9.632-51.074-2.627.292-5.547.584-7.88.584.29-.584.583-1.75.29-2.626-18.676-4.67-18.676-36.48 16.053-41.734 4.086-19.26 8.755-38.23 16.343-56.325 5.253-11.382 11.09-29.476 25.974-29.768 4.96-.292 10.798 3.21 13.133 7.88 8.462.584 14.591 6.42 15.466 15.76.877 11.673 2.044 23.64 3.212 35.02.29.292.29.292.583.292.292-9.923.875-20.137 2.043-29.768.292-2.919 2.043 41.15 4.086 58.66 22.18 2.627 25.39 28.892 9.338 39.107 3.795 17.218 8.755 40.858 11.09 58.37 3.21 26.264-18.385 26.848-25.097 5.835-5.545-2.043-17.22-52.24-19.554-62.746" fill="#fff"/><path d="M505.013 883.72c1.999 0 3.997.007 5.996.026l.528.003c4.695 0 9.174-.627 13.317-1.864l.729-.218.762.009c1.202.016 2.367.006 3.5-.002l1.324-.01c2.643-.012 5.378-.024 7.883.025 6.91.139 13.347-.925 19.109-3.148l.882-.34.946.005a39.005 39.005 0 0 0 5.18-.292c5.298-.64 10.214-1.551 14.552-2.356l.186-.034c1.338-.248 2.666-.493 3.977-.725a35.987 35.987 0 0 0 8.566-2.637l.815-.368.893-.062c2.9-.202 5.834-.696 8.72-1.467 4.154-1.111 8.17-2.341 11.716-3.427a873.68 873.68 0 0 1 3.935-1.196 35.999 35.999 0 0 0 5.795-2.3l.697-.35.77-.121a35.975 35.975 0 0 0 6.896-1.793l17.763-6.554a36.111 36.111 0 0 0 6.589-3.227l.663-.414.758-.191a36.091 36.091 0 0 0 6.992-2.561l18.294-8.94a36.096 36.096 0 0 0 4.78-2.812l.567-.395.654-.227a36.055 36.055 0 0 0 6.536-3.033 279.99 279.99 0 0 0 4.339-2.635c2.3-1.416 4.472-2.754 6.057-3.533 4.432-2.183 8.357-4.85 11.666-7.927l.64-.594.802-.342a36.014 36.014 0 0 0 6.223-3.42 1467.12 1467.12 0 0 1 3.69-2.518c3.11-2.117 6.325-4.307 9.584-6.62a46.16 46.16 0 0 0 6.794-5.883l.604-.637.784-.394a36.023 36.023 0 0 0 7.657-5.171l3.986-3.518c3.06-2.705 6.215-5.491 9.377-8.251a39.63 39.63 0 0 0 4.986-5.246l.455-.574.6-.42a36.172 36.172 0 0 0 3.907-3.156 386.315 386.315 0 0 0 3.702-3.502c2.12-2.022 3.897-3.715 5.395-4.958 4.13-3.43 7.572-7.27 10.226-11.416l.457-.714.668-.523a36.26 36.26 0 0 0 4.407-4.097l2.738-3.02a539.684 539.684 0 0 1 5.272-5.774c3.353-3.597 6.122-7.412 8.235-11.343l.444-.827.715-.61a36.028 36.028 0 0 0 6.296-6.99l10.742-15.633a36.109 36.109 0 0 0 3-5.268l.324-.7.52-.57a36.01 36.01 0 0 0 4.51-6.14l9.752-16.735a36.089 36.089 0 0 0 3.047-6.734l.266-.796.51-.666a42.267 42.267 0 0 0 5.165-8.754c1.434-3.274 3.047-6.771 4.47-9.857.664-1.438 1.322-2.865 1.966-4.273a35.948 35.948 0 0 0 2.037-5.67l.204-.764.43-.663a36.035 36.035 0 0 0 3.532-7.037l6.744-18.152a36.11 36.11 0 0 0 1.766-6.636l.12-.726.324-.66a36.132 36.132 0 0 0 2.488-6.662c.103-.39.314-1.078.635-2.048 1.803-5.434 2.273-11.321 1.36-17.025l-3.155-19.705 12.074 15.889c9.93 13.073 24.199 20.57 39.144 20.569 3.266 0 6.564-.36 9.8-1.07 20.426-4.467 40.468-25.17 36.206-60.058l-.048-.38c-1.472-11.04-3.94-24.881-7.547-42.332l-.356-1.724.803-1.567c6.186-12.08 7.939-25.98 4.935-39.135-2.712-11.882-8.993-22.307-18.167-30.147l-1.606-1.373-.135-2.11c-.477-7.491-.911-15.315-1.23-21.03-.234-4.24-.435-7.845-.594-10.4-.1-1.577-.188-2.83-.261-3.688-.73-8.68-3.976-16.39-9.384-22.301l-.573-.627-.334-.781c-5.2-12.147-14.636-21.736-26.573-27.001l-.635-.28-.535-.443c-9.661-7.992-21.642-12.12-33.761-11.616-3.156.1-6.275.475-9.316 1.116l-3.956.834-1.644-3.694a316.695 316.695 0 0 0-1.77-3.892 36.378 36.378 0 0 0-1.566-3.002l-1.2-2.063.85-2.231a52.071 52.071 0 0 0 3.375-16.213l.093-2.04 1.495-1.392c4.294-3.997 8.604-7.958 11.967-11.048 2.77-2.546 5.143-4.727 6.813-6.284a165.75 165.75 0 0 0 2.452-2.322c6.16-5.994 10.028-13.301 11.188-21.128l.112-.746.325-.68c5.363-11.207 6.35-23.853 2.784-35.607l-.18-.591-.03-.616c-.581-11.847-5.47-23.278-13.411-31.363-10.785-11.164-25.935-16.791-42.678-15.868-9.81.539-18.62 3.134-25.05 5.028l-.347.102c-1.104.326-2.171.64-3.188.918-.39.107-.781.22-1.17.34-11.192 3.466-22.748 8.04-35.33 13.987l-1.825.863-1.913-.647a65.914 65.914 0 0 0-9.076-2.364l-5.676-1.053 1.853-5.467a793.021 793.021 0 0 0 11.84-38.153c3.9-13.678.242-27.79-9.783-37.753l-.49-.487-.34-.601a39.58 39.58 0 0 0-2.58-3.99l-.1-.142c-6.746-9.88-17.173-17.155-28.61-19.963-6.953-1.708-13.914-1.798-20.691-.27l-3.676.83-1.81-3.305c-5.698-10.41-13.214-18.047-22.338-22.704-12.395-6.325-26.882-6.517-39.75-.526-.286.133-.572.27-.857.412l-1.264.646-.803.124a36.036 36.036 0 0 0-16.757 7.278c-6.786 5.334-12.441 12.223-16.805 20.476l-10.427 19.712 1.012-22.277c.34-7.48-.7-15.281-3.091-23.184a35.894 35.894 0 0 0-11.463-17.278c-.49-.405-1.025-.86-1.564-1.318l-.194-.164c-.81-.687-1.62-1.373-2.355-1.984a36.022 36.022 0 0 0-8.818-5.39c-1.494-.641-3.538-1.52-6.06-2.434-4.504-1.638-8.573-2.362-11.266-2.84a36.043 36.043 0 0 0-7.781-.527l-.806.034-.777-.222a36.06 36.06 0 0 0-8.452-1.358c-2.602-.107-6.162-.252-10.123-.046l-.115.005c-13.321.386-25.872 2.19-36.946 3.78-.611.089-1.202.189-1.79.304a243.07 243.07 0 0 0-3.627.743l-.214.045c-.763.16-1.53.323-2.344.482l-.424.085c-21.115 4.394-43.564 9.782-64.732 19.396a35.965 35.965 0 0 0-8.83 5.692 37.464 37.464 0 0 0-5.718 6.305l-4.192 5.827-4.012-5.951c-2.85-4.227-5.834-7.808-9.123-10.947-13.266-12.665-30.853-17.121-48.254-12.226-.221.062-.441.126-.658.192-10.041 3.033-18.408 9.78-23.564 19.003l-.375.67-.56.527a47.919 47.919 0 0 0-6.792 7.994l-2.321 3.434-3.804-1.645c-11.177-4.834-23.732-5.847-35.348-2.852-31.154 7.769-47.993 38.745-40.988 75.338a210.492 210.492 0 0 0 3.992 17.54l1.802 6.613-6.846-.301c-9.624-.425-20.392.138-32.93 1.717-21.511 2.712-42.508 7.852-51.372 10.646-9.887 3.076-19.486 6.93-28.55 11.463-10.485 5.06-20.426 12.133-28.81 20.488a37.47 37.47 0 0 0-.812.835c-19.006 20.205-20.59 39.297-18.571 51.757l.077.452c3.272 18.676 18.745 38.754 52.357 39.1l1.665.017 7.87 6.04-2.091 3.767a36.081 36.081 0 0 0-.947 1.81l-.107.223c-.121.249-.233.48-.322.647l-.068.124c-2.656 4.69-4.525 9.492-5.555 14.267l-.196.906-.507.776c-1.617 2.47-3.03 5.212-4.2 8.144l-1.755 4.4-5.518-1.871c-.48-.167-.96-.335-1.447-.493l-.657-.236a80.414 80.414 0 0 0-1.55-.586l-.332-.122-.313-.17a39.065 39.065 0 0 0-13.581-4.363l-.268-.042c-5.711-1.054-15.266-2.815-25.446-2.278-19.808 1.047-35.878 10.816-44.087 26.804-.155.3-.306.608-.455.916-4.86 10.158-6.076 21.495-3.515 32.778l.23 1.014-.193 1.022a35.746 35.746 0 0 0 .33 14.932l.92 3.97-1.211 1.8c-2.717 4.036-4.804 8.502-6.204 13.272-4.353 14.818-1.736 30.15 7.18 42.065l.339.453.229.515a36.038 36.038 0 0 0 12.163 14.842l1.697 1.199 5.365 31.534 2.41 17.794c.062 1.025.097 2.456.13 3.86l.004.106c.11 4.62.248 10.364 1.439 16.738l.042.262a40.592 40.592 0 0 0 13.59 25.292l.36.316.296.378c.347.444.704.88 1.07 1.309 8.446 9.852 20.858 15.504 34.049 15.503 2.34 0 4.742-.19 7.138-.566l4.922-.773.79 4.919c.639 3.98 1.805 8.064 3.465 12.135.17.415.384.94.542 1.34l.135.34.084.356c1.15 4.88 3.014 9.449 5.543 13.575l.488.797.167.92c.797 4.38 2.264 8.723 4.358 12.906 1.005 2.005 1.648 3.446 1.914 4.28 1.43 4.555 3.467 8.756 6.058 12.502l.482.698.226.818a36.145 36.145 0 0 0 2.88 7.266c.733 1.384 1.47 2.748 2.205 4.104 1.412 2.606 2.63 4.857 3.602 6.91 1.828 3.868 4.01 7.372 6.483 10.414l.539.662.29.805a36.042 36.042 0 0 0 3.73 7.51l10.84 16.624a36.149 36.149 0 0 0 4.796 5.89l.602.599.37.762a41.724 41.724 0 0 0 5.774 8.827c1.203 1.41 2.632 3.34 4.144 5.384l1.383 1.864c2.67 3.58 5.66 6.696 8.88 9.252l.737.586.475.815a40.284 40.284 0 0 0 2.575 3.883c3.489 4.647 7.04 8.562 10.173 12.015l.292.323c.868.957 1.732 1.91 2.578 2.87a36.022 36.022 0 0 0 7.496 6.452l.796.513.553.769a40.213 40.213 0 0 0 3.342 4.055c3.892 4.137 7.884 7.617 11.092 10.413l.31.27c.902.786 1.798 1.569 2.672 2.356a36.233 36.233 0 0 0 5.934 4.334l.629.367.498.53c.332.356.67.703 1.017 1.044 6.898 6.793 14.729 12.818 23.27 17.903.74.44 1.507.86 2.28 1.249l.726.363.573.575a40.374 40.374 0 0 0 4.072 3.566c4.75 3.633 9.543 6.62 13.394 9.022l.23.144c1.157.72 2.304 1.435 3.422 2.156a36.08 36.08 0 0 0 6.743 3.404l.76.289.632.514c3.6 2.94 7.719 5.37 12.243 7.22l.475.196.427.287c4.47 3.014 9.256 5.225 14.225 6.569l.942.255.776.59a41.42 41.42 0 0 0 8.674 5.067c4.102 1.768 8.07 3.357 11.907 4.894l.287.115c1.398.56 2.799 1.122 4.205 1.692a35.966 35.966 0 0 0 6.816 2.009l.836.159.736.426a49.096 49.096 0 0 0 8.795 3.973l1.688.576c3.586 1.228 7.645 2.617 12.234 3.803 2.055.529 4.18.908 6.317 1.125l.9.092.81.4a36.081 36.081 0 0 0 7.583 2.744c1.603.384 3.219.733 4.838 1.077 2.035.436 3.528.76 4.346 1.013l.19.063c5.42 1.917 10.802 2.92 15.997 2.982l.826.01.778.275c1.506.53 3.062.966 4.623 1.292.75.156 1.495.323 2.238.49 2.608.585 5.744 1.287 9.287 1.796 3.533.508 6.79.742 9.408.93l.229.017c.783.056 1.57.113 2.357.18 1.799.153 3.62.172 5.423.054l.752-.05.733.175c8.295 1.976 19.456 4.037 32.197 2.41l.786-.1.779.149c2.202.417 4.457.629 6.703.629l5.059-.008c1.352-.003 2.704-.005 4.057-.005m6.524 10.028-.628-.003c-3.311-.035-6.623-.027-9.933-.02l-5.071.008a46.21 46.21 0 0 1-7.786-.662c-13.648 1.61-25.411-.45-34.29-2.53-2.047.1-4.116.062-6.157-.112-.74-.063-1.48-.115-2.218-.168l-.215-.016c-2.793-.201-6.247-.45-10.131-1.007-3.928-.564-7.275-1.314-9.964-1.916-.786-.178-1.48-.333-2.18-.48a45.93 45.93 0 0 1-5.127-1.383c-5.991-.163-12.131-1.337-18.263-3.493-.582-.162-2.475-.566-3.404-.766a211.706 211.706 0 0 1-5.092-1.133 46.226 46.226 0 0 1-8.871-3.112 52.767 52.767 0 0 1-6.908-1.293c-4.965-1.282-9.22-2.738-12.972-4.023l-1.675-.572a59.308 59.308 0 0 1-9.85-4.367 46.21 46.21 0 0 1-7.872-2.4 1007.94 1007.94 0 0 0-4.164-1.676l-.286-.114c-3.895-1.561-7.923-3.174-12.143-4.992a51.465 51.465 0 0 1-9.984-5.706c-5.537-1.603-10.86-4.084-15.842-7.384-4.996-2.093-9.591-4.79-13.677-8.027a46.049 46.049 0 0 1-7.856-4.054 254.344 254.344 0 0 0-3.29-2.073l-.216-.134c-4.05-2.525-9.066-5.653-14.196-9.576a50.619 50.619 0 0 1-4.503-3.881 47.003 47.003 0 0 1-2.19-1.223c-9.231-5.497-17.7-12.014-25.171-19.372a40.116 40.116 0 0 1-.795-.803 46.12 46.12 0 0 1-6.958-5.166c-.834-.752-1.69-1.498-2.551-2.25l-.308-.266c-3.375-2.943-7.575-6.603-11.808-11.103a50.25 50.25 0 0 1-3.617-4.304 46.062 46.062 0 0 1-8.787-7.724c-.814-.924-1.647-1.842-2.483-2.764l-.283-.312c-3.288-3.623-7.004-7.721-10.775-12.742a50.904 50.904 0 0 1-2.735-4.042c-3.616-2.975-6.962-6.512-9.955-10.526l-1.395-1.88c-1.41-1.905-2.738-3.7-3.716-4.845a51.77 51.77 0 0 1-6.783-10.188 46.172 46.172 0 0 1-5.528-6.92l-10.841-16.625a46.083 46.083 0 0 1-4.47-8.792c-2.761-3.505-5.193-7.466-7.236-11.786-.854-1.805-2.013-3.944-3.354-6.422a465.144 465.144 0 0 1-2.251-4.193 46.162 46.162 0 0 1-3.45-8.465c-2.935-4.393-5.254-9.26-6.893-14.48v.002c-.001 0-.271-.723-1.32-2.817-2.375-4.742-4.081-9.675-5.08-14.675-2.778-4.716-4.854-9.87-6.18-15.338-.12-.301-.256-.633-.371-.915a68.082 68.082 0 0 1-3.135-9.64 55.15 55.15 0 0 1-3.924.142c-16.113 0-31.293-6.924-41.645-19-.362-.424-.715-.85-1.06-1.283a50.59 50.59 0 0 1-16.557-31.072c-1.315-7.113-1.47-13.516-1.581-18.198l-.003-.111c-.03-1.196-.057-2.415-.105-3.332l-2.336-17.13-4.64-27.26a46.061 46.061 0 0 1-13.595-17.174c-10.553-14.395-13.63-32.74-8.436-50.424a58.097 58.097 0 0 1 6.3-14.174 45.66 45.66 0 0 1-.55-17.811c-2.768-13.17-1.23-26.393 4.47-38.308.19-.394.38-.778.576-1.16 9.88-19.24 28.999-30.984 52.456-32.223 11.276-.598 21.499 1.27 27.66 2.406a49.033 49.033 0 0 1 16.429 5.207 54.255 54.255 0 0 1 2.637-4.703c1.1-4.712 2.859-9.41 5.242-14.001-37.184-1.924-54.66-26.354-58.322-47.256l-.096-.57c-2.38-14.687-.64-37.048 21.157-60.218.34-.361.686-.718 1.038-1.068 9.164-9.132 20.043-16.871 31.458-22.378 9.482-4.742 19.587-8.8 29.97-12.031 9.193-2.897 30.943-8.23 53.112-11.025 10.266-1.293 19.442-1.932 27.834-1.932h.083a218.451 218.451 0 0 1-2.517-11.877c-8.043-42.023 11.839-77.762 48.36-86.87 12.437-3.205 25.803-2.526 38.032 1.885a57.964 57.964 0 0 1 5.278-5.867c6.455-11.153 16.732-19.315 29.017-23.027.279-.085.563-.168.848-.247 20.885-5.877 41.978-.547 57.864 14.62a71.353 71.353 0 0 1 6.625 7.274 46.6 46.6 0 0 1 2.93-2.8 45.939 45.939 0 0 1 11.28-7.273c22.057-10.016 45.15-15.57 66.82-20.078l.556-.112c.762-.15 1.48-.301 2.195-.451l.218-.046c1.23-.26 2.462-.517 3.773-.773a46.36 46.36 0 0 1 2.26-.383C508.81 2.366 521.64.522 535.508.116c4.4-.226 8.21-.072 10.995.043a46.23 46.23 0 0 1 10.019 1.52 46.12 46.12 0 0 1 9.14.7c3.032.538 7.614 1.353 12.93 3.286 2.788 1.012 4.985 1.955 6.588 2.643a46.064 46.064 0 0 1 11.264 6.887c.762.633 1.598 1.342 2.435 2.05l.196.167c.509.433 1.013.86 1.478 1.246a45.873 45.873 0 0 1 14.65 22.079 85.51 85.51 0 0 1 2.582 11.107 70.073 70.073 0 0 1 10.977-10.801 46.072 46.072 0 0 1 20.609-9.17c.34-.167.685-.333 1.032-.494 15.677-7.298 33.36-7.048 48.515.685 9.976 5.09 18.283 13.033 24.735 23.637 7.132-1.104 14.388-.767 21.62 1.007 13.77 3.38 26.316 12.114 34.434 23.965A49.383 49.383 0 0 1 782.542 85c12.093 12.369 16.64 30.346 11.867 47.09a807.48 807.48 0 0 1-10.226 33.364c.982.26 1.96.54 2.929.839 12.32-5.743 23.739-10.216 34.846-13.655.494-.153.994-.298 1.497-.436.954-.26 1.954-.555 2.99-.861l.35-.103c6.904-2.034 16.356-4.818 27.328-5.421 19.683-1.081 37.584 5.62 50.39 18.875 9.612 9.785 15.362 22.997 16.203 37.236 4.017 13.747 2.887 28.45-3.191 41.56-1.613 9.729-6.438 18.732-13.99 26.08-.6.584-1.484 1.424-2.607 2.47a1685.98 1685.98 0 0 1-6.864 6.332c-2.97 2.728-6.68 6.138-10.462 9.649a62.013 62.013 0 0 1-3.095 15.036c.303.586.589 1.17.857 1.752l.208.45a63.312 63.312 0 0 1 7.032-.62c14.326-.588 28.489 4.187 39.964 13.467 13.71 6.233 24.59 17.257 30.762 31.163 6.57 7.465 10.506 16.978 11.399 27.57.077.908.172 2.236.276 3.909.16 2.57.362 6.202.598 10.44.289 5.2.673 12.11 1.097 18.917 9.943 9.068 16.774 20.814 19.807 34.1 3.393 14.865 1.617 30.53-4.991 44.317 3.467 16.895 5.862 30.428 7.315 41.326l.065.503c5.023 41.1-19.284 65.64-43.994 71.047a55.994 55.994 0 0 1-11.938 1.299c-13.89 0-27.231-5.262-38.038-14.754a45.711 45.711 0 0 1-1.892 8.174c-.23.69-.387 1.18-.461 1.457a46.046 46.046 0 0 1-2.86 7.85 46.094 46.094 0 0 1-2.131 7.758l-6.743 18.153a46.052 46.052 0 0 1-4.09 8.325 45.977 45.977 0 0 1-2.394 6.486c-.65 1.419-1.31 2.853-1.98 4.303-1.403 3.045-2.996 6.496-4.391 9.682a52.423 52.423 0 0 1-5.887 10.163 46.227 46.227 0 0 1-3.62 7.808l-9.75 16.734a46.132 46.132 0 0 1-5.25 7.273 46.351 46.351 0 0 1-3.503 6.033l-10.743 15.635a46.066 46.066 0 0 1-7.337 8.315c-2.453 4.394-5.571 8.63-9.277 12.609-1.746 1.873-3.468 3.778-5.173 5.664l-2.76 3.043a46.367 46.367 0 0 1-4.965 4.702c-3.142 4.743-7.11 9.117-11.802 13.01-1.233 1.025-2.893 2.608-4.815 4.44a406.943 406.943 0 0 1-3.856 3.647 46.288 46.288 0 0 1-4.391 3.608 49.561 49.561 0 0 1-5.795 6.003 2010.5 2010.5 0 0 0-9.331 8.21l-3.99 3.522a45.987 45.987 0 0 1-9.004 6.208 56.415 56.415 0 0 1-7.663 6.534c-3.338 2.368-6.594 4.586-9.743 6.73-1.216.829-2.438 1.66-3.663 2.5a45.98 45.98 0 0 1-7.151 4.018c-3.882 3.493-8.392 6.514-13.42 8.99-1.161.57-3.23 1.844-5.23 3.077a308.434 308.434 0 0 1-4.488 2.724 46.044 46.044 0 0 1-7.701 3.644 46.185 46.185 0 0 1-5.538 3.202l-18.295 8.94a46.18 46.18 0 0 1-8.18 3.075 46.195 46.195 0 0 1-7.751 3.716l-17.763 6.553a46.048 46.048 0 0 1-8.043 2.166 46.22 46.22 0 0 1-6.707 2.597c-1.283.384-2.576.779-3.876 1.178-3.626 1.11-7.735 2.368-12.061 3.525a56.573 56.573 0 0 1-9.722 1.714 46.02 46.02 0 0 1-10.123 3.009c-1.281.225-2.58.466-3.891.709l-.183.034c-4.481.83-9.563 1.773-15.177 2.45a51.428 51.428 0 0 1-5.49.362c-6.743 2.464-14.152 3.633-22.017 3.484-2.386-.047-5.057-.034-7.645-.022l-1.296.008c-.957.008-1.936.018-2.943.009-4.86 1.372-10.05 2.067-15.438 2.067" fill="#fff"/></g></g></svg>